999
dxfrw 0.6.3
  0
SECTION
  2
HEADER
  9
$ACADVER
  1
AC1021
  9
$DWGCODEPAGE
  3
ANSI_1252
  9
$INSBASE
 10
0
 20
0
 30
0
  9
$EXTMIN
 10
71.27795580764752
 20
60.897826
 30
0
  9
$EXTMAX
 10
601.7911670302785
 20
341.4120263195277
 30
0
  9
$LIMMIN
 10
0
 20
0
  9
$LIMMAX
 10
420
 20
297
  9
$ORTHOMODE
 70
    0
  9
$REGENMODE
 70
    1
  9
$FILLMODE
 70
    1
  9
$QTEXTMODE
 70
    0
  9
$MIRRTEXT
 70
    0
  9
$LTSCALE
 40
1
  9
$ATTMODE
 70
    0
  9
$TEXTSIZE
 40
2.5
  9
$TRACEWID
 40
15.68
  9
$TEXTSTYLE
  7
STANDARD
  9
$CLAYER
  8
0
  9
$CELTYPE
  6
BYLAYER
  9
$CECOLOR
 62
  256
  9
$CELTSCALE
 40
1
  9
$DISPSILH
 70
    0
  9
$DIMSCALE
 40
2.5
  9
$DIMASZ
 40
2.5
  9
$DIMEXO
 40
0.625
  9
$DIMDLI
 40
3.75
  9
$DIMRND
 40
0
  9
$DIMDLE
 40
0
  9
$DIMEXE
 40
1.25
  9
$DIMTP
 40
0
  9
$DIMTM
 40
0
  9
$DIMTXT
 40
2.5
  9
$DIMCEN
 40
2.5
  9
$DIMTSZ
 40
0
  9
$DIMTOL
 70
    0
  9
$DIMLIM
 70
    0
  9
$DIMTIH
 70
    0
  9
$DIMTOH
 70
    0
  9
$DIMSE1
 70
    0
  9
$DIMSE2
 70
    0
  9
$DIMTAD
 70
    1
  9
$DIMZIN
 70
    8
  9
$DIMBLK
  1

  9
$DIMASO
 70
    1
  9
$DIMSHO
 70
    1
  9
$DIMPOST
  1

  9
$DIMAPOST
  1

  9
$DIMALT
 70
    0
  9
$DIMALTD
 70
    3
  9
$DIMALTF
 40
0.03937
  9
$DIMLFAC
 40
1
  9
$DIMTOFL
 70
    1
  9
$DIMTVP
 40
0
  9
$DIMTIX
 70
    0
  9
$DIMSOXD
 70
    0
  9
$DIMSAH
 70
    0
  9
$DIMBLK1
  1

  9
$DIMBLK2
  1

  9
$DIMSTYLE
  2
Standard
  9
$DIMCLRD
 70
    0
  9
$DIMCLRE
 70
    0
  9
$DIMCLRT
 70
    0
  9
$DIMTFAC
 40
1
  9
$DIMGAP
 40
0.625
  9
$DIMJUST
 70
    0
  9
$DIMSD1
 70
    0
  9
$DIMSD2
 70
    0
  9
$DIMTOLJ
 70
    0
  9
$DIMTZIN
 70
    8
  9
$DIMALTZ
 70
    0
  9
$DIMALTTZ
 70
    0
  9
$DIMUPT
 70
    0
  9
$DIMDEC
 70
    2
  9
$DIMTDEC
 70
    2
  9
$DIMALTU
 70
    2
  9
$DIMALTTD
 70
    3
  9
$DIMTXSTY
  7
STANDARD
  9
$DIMAUNIT
 70
    0
  9
$DIMADEC
 70
    0
  9
$DIMALTRND
 40
0
  9
$DIMAZIN
 70
    0
  9
$DIMDSEP
 70
   44
  9
$DIMATFIT
 70
    3
  9
$DIMFRAC
 70
    0
  9
$DIMLDRBLK
  1
STANDARD
  9
$DIMLUNIT
 70
    2
  9
$DIMLWD
 70
   -2
  9
$DIMLWE
 70
   -2
  9
$DIMTMOVE
 70
    0
  9
$DIMFXL
 40
1
  9
$DIMFXLON
 70
    0
  9
$DIMJOGANG
 40
0.7854
  9
$DIMTFILL
 70
    0
  9
$DIMTFILLCLR
 70
    0
  9
$DIMARCSYM
 70
    0
  9
$DIMLTYPE
  6

  9
$DIMLTEX1
  6

  9
$DIMLTEX2
  6

  9
$LUNITS
 70
    2
  9
$LUPREC
 70
    4
  9
$SKETCHINC
 40
1
  9
$FILLETRAD
 40
0
  9
$AUNITS
 70
    0
  9
$AUPREC
 70
    2
  9
$MENU
  1
.
  9
$ELEVATION
 40
0
  9
$PELEVATION
 40
0
  9
$THICKNESS
 40
0
  9
$LIMCHECK
 70
    0
  9
$CHAMFERA
 40
0
  9
$CHAMFERB
 40
0
  9
$CHAMFERC
 40
0
  9
$CHAMFERD
 40
0
  9
$SKPOLY
 70
    0
  9
$USRTIMER
 70
    1
  9
$ANGBASE
 50
0
  9
$ANGDIR
 70
    0
  9
$PDMODE
 70
   34
  9
$PDSIZE
 40
0
  9
$PLINEWID
 40
0
  9
$SPLFRAME
 70
    0
  9
$SPLINETYPE
 70
    2
  9
$SPLINESEGS
 70
    8
  9
$HANDSEED
  5
20000
  9
$SURFTAB1
 70
    6
  9
$SURFTAB2
 70
    6
  9
$SURFTYPE
 70
    6
  9
$SURFU
 70
    6
  9
$SURFV
 70
    6
  9
$UCSBASE
  2

  9
$UCSNAME
  2

  9
$UCSORG
 10
0
 20
0
 30
0
  9
$UCSXDIR
 10
1
 20
0
 30
0
  9
$UCSYDIR
 10
0
 20
1
 30
0
  9
$UCSORTHOREF
  2

  9
$UCSORTHOVIEW
 70
    0
  9
$UCSORGTOP
 10
0
 20
0
 30
0
  9
$UCSORGBOTTOM
 10
0
 20
0
 30
0
  9
$UCSORGLEFT
 10
0
 20
0
 30
0
  9
$UCSORGRIGHT
 10
0
 20
0
 30
0
  9
$UCSORGFRONT
 10
0
 20
0
 30
0
  9
$UCSORGBACK
 10
0
 20
0
 30
0
  9
$PUCSBASE
  2

  9
$PUCSNAME
  2

  9
$PUCSORG
 10
0
 20
0
 30
0
  9
$PUCSXDIR
 10
1
 20
0
 30
0
  9
$PUCSYDIR
 10
0
 20
1
 30
0
  9
$PUCSORTHOREF
  2

  9
$PUCSORTHOVIEW
 70
    0
  9
$PUCSORGTOP
 10
0
 20
0
 30
0
  9
$PUCSORGBOTTOM
 10
0
 20
0
 30
0
  9
$PUCSORGLEFT
 10
0
 20
0
 30
0
  9
$PUCSORGRIGHT
 10
0
 20
0
 30
0
  9
$PUCSORGFRONT
 10
0
 20
0
 30
0
  9
$PUCSORGBACK
 10
0
 20
0
 30
0
  9
$USERI1
 70
    0
  9
$USERI2
 70
    0
  9
$USERI3
 70
    0
  9
$USERI4
 70
    0
  9
$USERI5
 70
    0
  9
$USERR1
 40
0
  9
$USERR2
 40
0
  9
$USERR3
 40
0
  9
$USERR4
 40
0
  9
$USERR5
 40
0
  9
$WORLDVIEW
 70
    1
  9
$SHADEDGE
 70
    3
  9
$SHADEDIF
 70
   70
  9
$TILEMODE
 70
    1
  9
$MAXACTVP
 70
   64
  9
$PINSBASE
 10
0
 20
0
 30
0
  9
$PLIMCHECK
 70
    0
  9
$PEXTMIN
 10
0
 20
0
 30
0
  9
$PEXTMAX
 10
0
 20
0
 30
0
  9
$SNAPSTYLE
 70
    0
  9
$PLIMMIN
 10
0
 20
0
  9
$PLIMMAX
 10
12
 20
9
  9
$UNITMODE
 70
    0
  9
$VISRETAIN
 70
    1
  9
$PLINEGEN
 70
    0
  9
$PSLTSCALE
 70
    1
  9
$TREEDEPTH
 70
 3020
  9
$CMLSTYLE
  2
Standard
  9
$CMLJUST
 70
    0
  9
$CMLSCALE
 40
20
  9
$PROXYGRAPHICS
 70
    1
  9
$MEASUREMENT
 70
    1
  9
$CELWEIGHT
370
   -1
  9
$ENDCAPS
280
    0
  9
$JOINSTYLE
280
    0
  9
$LWDISPLAY
290
    0
  9
$INSUNITS
 70
    0
  9
$HYPERLINKBASE
  1

  9
$STYLESHEET
  1

  9
$XEDIT
290
    1
  9
$CEPSNTYPE
380
    0
  9
$PSTYLEMODE
290
    1
  9
$EXTNAMES
290
    1
  9
$PSVPSCALE
 40
1
  9
$OLESTARTUP
290
    0
  9
$SORTENTS
280
  127
  9
$INDEXCTL
280
    0
  9
$HIDETEXT
280
    1
  9
$XCLIPFRAME
290
    0
  9
$HALOGAP
280
    0
  9
$OBSCOLOR
 70
  257
  9
$OBSLTYPE
280
    0
  9
$INTERSECTIONDISPLAY
280
    0
  9
$INTERSECTIONCOLOR
 70
  257
  9
$DIMASSOC
280
    1
  9
$PROJECTNAME
  1

  9
$CAMERADISPLAY
290
    0
  9
$LENSLENGTH
 40
50
  9
$CAMERAHEIGHT
 40
0
  9
$STEPSPERSEC
 40
2
  9
$STEPSIZE
 40
50
  9
$3DDWFPREC
 40
2
  9
$PSOLWIDTH
 40
5
  9
$PSOLHEIGHT
 40
80
  9
$LOFTANG1
 40
1.570796326794897
  9
$LOFTANG2
 40
1.570796326794897
  9
$LOFTMAG1
 40
0
  9
$LOFTMAG2
 40
0
  9
$LOFTPARAM
 70
    7
  9
$LOFTNORMALS
280
    1
  9
$LATITUDE
 40
1
  9
$LONGITUDE
 40
1
  9
$NORTHDIRECTION
 40
0
  9
$TIMEZONE
 70
-8000
  9
$LIGHTGLYPHDISPLAY
280
    1
  9
$TILEMODELIGHTSYNCH
280
    1
  9
$SOLIDHIST
280
    1
  9
$SHOWHIST
280
    1
  9
$DWFFRAME
280
    2
  9
$DGNFRAME
280
    0
  9
$REALWORLDSCALE
290
    1
  9
$INTERFERECOLOR
 62
    1
  9
$CSHADOW
280
    0
  9
$SHADOWPLANELOCATION
 40
0
  0
ENDSEC
  0
SECTION
  2
CLASSES
  0
ENDSEC
  0
SECTION
  2
TABLES
  0
TABLE
  2
VPORT
  5
8
330
0
100
AcDbSymbolTable
 70
    1
  0
VPORT
  5
31
330
2
100
AcDbSymbolTableRecord
100
AcDbViewportTableRecord
  2
*ACTIVE
 70
    0
 10
0
 20
0
 11
1
 21
1
 12
446.190692227188
 22
214.7590431449366
 13
0
 23
0
 14
10
 24
10
 15
10
 25
10
 16
0
 26
0
 36
1
 17
0
 27
0
 37
0
 40
582.7472741899574
 41
2.006811989100818
 42
50
 43
0
 44
0
 50
0
 51
0
 71
    0
 72
  100
 73
    1
 74
    3
 75
    0
 76
    1
 77
    0
 78
    0
281
    0
 65
    1
110
0
120
0
130
0
111
1
121
0
131
0
112
0
122
1
132
0
 79
    0
146
0
348
10020
 60
    7
 61
    5
292
1
282
    1
141
0
142
0
 63
  250
421
3358443
  0
ENDTAB
  0
TABLE
  2
LTYPE
  5
5
330
0
100
AcDbSymbolTable
 70
    4
  0
LTYPE
  5
14
330
5
100
AcDbSymbolTableRecord
100
AcDbLinetypeTableRecord
  2
ByBlock
 70
    0
  3

 72
   65
 73
    0
 40
0
  0
LTYPE
  5
15
330
5
100
AcDbSymbolTableRecord
100
AcDbLinetypeTableRecord
  2
ByLayer
 70
    0
  3

 72
   65
 73
    0
 40
0
  0
LTYPE
  5
16
330
5
100
AcDbSymbolTableRecord
100
AcDbLinetypeTableRecord
  2
Continuous
 70
    0
  3
Solid line
 72
   65
 73
    0
 40
0
  0
LTYPE
  5
32
330
5
100
AcDbSymbolTableRecord
100
AcDbLinetypeTableRecord
  2
DOT
 70
    0
  3
Dot . . . . . . . . . . . . . . . . . . . . . .
 72
   65
 73
    2
 40
6.35
 49
0
 74
    0
 49
-6.35
 74
    0
  0
LTYPE
  5
33
330
5
100
AcDbSymbolTableRecord
100
AcDbLinetypeTableRecord
  2
DOTTINY
 70
    0
  3
Dot (.15x) .....................................
 72
   65
 73
    2
 40
0.9525
 49
0
 74
    0
 49
-0.9525
 74
    0
  0
LTYPE
  5
34
330
5
100
AcDbSymbolTableRecord
100
AcDbLinetypeTableRecord
  2
DOT2
 70
    0
  3
Dot (.5x) .....................................
 72
   65
 73
    2
 40
3.175
 49
0
 74
    0
 49
-3.175
 74
    0
  0
LTYPE
  5
35
330
5
100
AcDbSymbolTableRecord
100
AcDbLinetypeTableRecord
  2
DOTX2
 70
    0
  3
Dot (2x) .  .  .  .  .  .  .  .  .  .  .  .  .
 72
   65
 73
    2
 40
12.7
 49
0
 74
    0
 49
-12.7
 74
    0
  0
LTYPE
  5
36
330
5
100
AcDbSymbolTableRecord
100
AcDbLinetypeTableRecord
  2
DASHED
 70
    0
  3
Dashed _ _ _ _ _ _ _ _ _ _ _ _ _ _ _ _ _
 72
   65
 73
    2
 40
19.05
 49
12.7
 74
    0
 49
-6.35
 74
    0
  0
LTYPE
  5
37
330
5
100
AcDbSymbolTableRecord
100
AcDbLinetypeTableRecord
  2
DASHEDTINY
 70
    0
  3
Dashed (.15x) _ _ _ _ _ _ _ _ _ _ _ _ _ _ _ _ _
 72
   65
 73
    2
 40
2.8575
 49
1.905
 74
    0
 49
-0.9525
 74
    0
  0
LTYPE
  5
38
330
5
100
AcDbSymbolTableRecord
100
AcDbLinetypeTableRecord
  2
DASHED2
 70
    0
  3
Dashed (.5x) _ _ _ _ _ _ _ _ _ _ _ _ _ _ _ _ _
 72
   65
 73
    2
 40
9.524999999999999
 49
6.35
 74
    0
 49
-3.175
 74
    0
  0
LTYPE
  5
39
330
5
100
AcDbSymbolTableRecord
100
AcDbLinetypeTableRecord
  2
DASHEDX2
 70
    0
  3
Dashed (2x) ____  ____  ____  ____  ____  ___
 72
   65
 73
    2
 40
38.09999999999999
 49
25.4
 74
    0
 49
-12.7
 74
    0
  0
LTYPE
  5
3A
330
5
100
AcDbSymbolTableRecord
100
AcDbLinetypeTableRecord
  2
DASHDOT
 70
    0
  3
Dash dot __ . __ . __ . __ . __ . __ . __ . __
 72
   65
 73
    4
 40
25.4
 49
12.7
 74
    0
 49
-6.35
 74
    0
 49
0
 74
    0
 49
-6.35
 74
    0
  0
LTYPE
  5
3B
330
5
100
AcDbSymbolTableRecord
100
AcDbLinetypeTableRecord
  2
DASHDOTTINY
 70
    0
  3
Dash dot (.15x) _._._._._._._._._._._._._._._.
 72
   65
 73
    4
 40
3.81
 49
1.905
 74
    0
 49
-0.9525
 74
    0
 49
0
 74
    0
 49
-0.9525
 74
    0
  0
LTYPE
  5
3C
330
5
100
AcDbSymbolTableRecord
100
AcDbLinetypeTableRecord
  2
DASHDOT2
 70
    0
  3
Dash dot (.5x) _._._._._._._._._._._._._._._.
 72
   65
 73
    4
 40
12.7
 49
6.35
 74
    0
 49
-3.175
 74
    0
 49
0
 74
    0
 49
-3.175
 74
    0
  0
LTYPE
  5
3D
330
5
100
AcDbSymbolTableRecord
100
AcDbLinetypeTableRecord
  2
DASHDOTX2
 70
    0
  3
Dash dot (2x) ____  .  ____  .  ____  .  ___
 72
   65
 73
    4
 40
50.8
 49
25.4
 74
    0
 49
-12.7
 74
    0
 49
0
 74
    0
 49
-12.7
 74
    0
  0
LTYPE
  5
3E
330
5
100
AcDbSymbolTableRecord
100
AcDbLinetypeTableRecord
  2
DIVIDE
 70
    0
  3
Divide ____ . . ____ . . ____ . . ____ . . ____
 72
   65
 73
    6
 40
31.75
 49
12.7
 74
    0
 49
-6.35
 74
    0
 49
0
 74
    0
 49
-6.35
 74
    0
 49
0
 74
    0
 49
-6.35
 74
    0
  0
LTYPE
  5
3F
330
5
100
AcDbSymbolTableRecord
100
AcDbLinetypeTableRecord
  2
DIVIDETINY
 70
    0
  3
Divide (.15x) __..__..__..__..__..__..__..__.._
 72
   65
 73
    6
 40
4.7625
 49
1.905
 74
    0
 49
-0.9525
 74
    0
 49
0
 74
    0
 49
-0.9525
 74
    0
 49
0
 74
    0
 49
-0.9525
 74
    0
  0
LTYPE
  5
40
330
5
100
AcDbSymbolTableRecord
100
AcDbLinetypeTableRecord
  2
DIVIDE2
 70
    0
  3
Divide (.5x) __..__..__..__..__..__..__..__.._
 72
   65
 73
    6
 40
15.875
 49
6.35
 74
    0
 49
-3.175
 74
    0
 49
0
 74
    0
 49
-3.175
 74
    0
 49
0
 74
    0
 49
-3.175
 74
    0
  0
LTYPE
  5
41
330
5
100
AcDbSymbolTableRecord
100
AcDbLinetypeTableRecord
  2
DIVIDEX2
 70
    0
  3
Divide (2x) ________  .  .  ________  .  .  _
 72
   65
 73
    6
 40
63.5
 49
25.4
 74
    0
 49
-12.7
 74
    0
 49
0
 74
    0
 49
-12.7
 74
    0
 49
0
 74
    0
 49
-12.7
 74
    0
  0
LTYPE
  5
42
330
5
100
AcDbSymbolTableRecord
100
AcDbLinetypeTableRecord
  2
BORDER
 70
    0
  3
Border __ __ . __ __ . __ __ . __ __ . __ __ .
 72
   65
 73
    6
 40
44.45
 49
12.7
 74
    0
 49
-6.35
 74
    0
 49
12.7
 74
    0
 49
-6.35
 74
    0
 49
0
 74
    0
 49
-6.35
 74
    0
  0
LTYPE
  5
43
330
5
100
AcDbSymbolTableRecord
100
AcDbLinetypeTableRecord
  2
BORDERTINY
 70
    0
  3
Border (.15x) __.__.__.__.__.__.__.__.__.__.__.
 72
   65
 73
    6
 40
6.6675
 49
1.905
 74
    0
 49
-0.9525
 74
    0
 49
1.905
 74
    0
 49
-0.9525
 74
    0
 49
0
 74
    0
 49
-0.9525
 74
    0
  0
LTYPE
  5
44
330
5
100
AcDbSymbolTableRecord
100
AcDbLinetypeTableRecord
  2
BORDER2
 70
    0
  3
Border (.5x) __.__.__.__.__.__.__.__.__.__.__.
 72
   65
 73
    6
 40
22.225
 49
6.35
 74
    0
 49
-3.175
 74
    0
 49
6.35
 74
    0
 49
-3.175
 74
    0
 49
0
 74
    0
 49
-3.175
 74
    0
  0
LTYPE
  5
45
330
5
100
AcDbSymbolTableRecord
100
AcDbLinetypeTableRecord
  2
BORDERX2
 70
    0
  3
Border (2x) ____  ____  .  ____  ____  .  ___
 72
   65
 73
    6
 40
88.89999999999999
 49
25.4
 74
    0
 49
-12.7
 74
    0
 49
25.4
 74
    0
 49
-12.7
 74
    0
 49
0
 74
    0
 49
-12.7
 74
    0
  0
LTYPE
  5
46
330
5
100
AcDbSymbolTableRecord
100
AcDbLinetypeTableRecord
  2
CENTER
 70
    0
  3
Center ____ _ ____ _ ____ _ ____ _ ____ _ ____
 72
   65
 73
    4
 40
50.8
 49
31.75
 74
    0
 49
-6.35
 74
    0
 49
6.35
 74
    0
 49
-6.35
 74
    0
  0
LTYPE
  5
47
330
5
100
AcDbSymbolTableRecord
100
AcDbLinetypeTableRecord
  2
CENTERTINY
 70
    0
  3
Center (.15x) ___ _ ___ _ ___ _ ___ _ ___ _ ___
 72
   65
 73
    4
 40
7.62
 49
4.7625
 74
    0
 49
-0.9525
 74
    0
 49
0.9525
 74
    0
 49
-0.9525
 74
    0
  0
LTYPE
  5
48
330
5
100
AcDbSymbolTableRecord
100
AcDbLinetypeTableRecord
  2
CENTER2
 70
    0
  3
Center (.5x) ___ _ ___ _ ___ _ ___ _ ___ _ ___
 72
   65
 73
    4
 40
28.575
 49
19.05
 74
    0
 49
-3.175
 74
    0
 49
3.175
 74
    0
 49
-3.175
 74
    0
  0
LTYPE
  5
49
330
5
100
AcDbSymbolTableRecord
100
AcDbLinetypeTableRecord
  2
CENTERX2
 70
    0
  3
Center (2x) ________  __  ________  __  _____
 72
   65
 73
    4
 40
101.6
 49
63.5
 74
    0
 49
-12.7
 74
    0
 49
12.7
 74
    0
 49
-12.7
 74
    0
  0
ENDTAB
  0
TABLE
  2
LAYER
  5
2
330
0
100
AcDbSymbolTable
 70
    1
  0
LAYER
  5
10
330
2
100
AcDbSymbolTableRecord
100
AcDbLayerTableRecord
  2
0
 70
    0
 62
    7
  6
CONTINUOUS
370
    0
390
F
  0
ENDTAB
  0
TABLE
  2
STYLE
  5
3
330
0
100
AcDbSymbolTable
 70
    3
  0
STYLE
  5
4A
330
2
100
AcDbSymbolTableRecord
100
AcDbTextStyleTableRecord
  2
Standard
 70
    0
 40
0
 41
1
 50
0
 71
    0
 42
1
  3
txt
  4

  0
ENDTAB
  0
TABLE
  2
VIEW
  5
6
330
0
100
AcDbSymbolTable
 70
    0
  0
ENDTAB
  0
TABLE
  2
UCS
  5
7
330
0
100
AcDbSymbolTable
 70
    0
  0
ENDTAB
  0
TABLE
  2
APPID
  5
9
330
0
100
AcDbSymbolTable
 70
    1
  0
APPID
  5
12
330
9
100
AcDbSymbolTableRecord
100
AcDbRegAppTableRecord
  2
ACAD
 70
    0
  0
APPID
  5
4B
330
9
100
AcDbSymbolTableRecord
100
AcDbRegAppTableRecord
  2
LibreCad
 70
    0
  0
ENDTAB
  0
TABLE
  2
DIMSTYLE
  5
A
330
0
100
AcDbSymbolTable
 70
    1
100
AcDbDimStyleTable
 71
    1
  0
DIMSTYLE
105
4C
330
A
100
AcDbSymbolTableRecord
100
AcDbDimStyleTableRecord
  2
Standard
 70
    0
 40
1
 41
2.5
 42
0.625
 43
0.38
 44
1.25
 45
0
 46
0
 47
0
 48
0
 49
1
140
2.5
141
0.09
142
2.5
143
25.4
144
1
145
0
146
1
147
0.625
148
0
 71
    0
 72
    0
 73
    0
 74
    1
 75
    0
 76
    0
 77
    0
 78
    1
 79
    0
170
    0
171
    2
172
    0
173
    0
174
    0
175
    0
176
    0
177
    0
178
    0
179
    0
271
    2
272
    4
273
    2
274
    2
275
    0
276
    0
277
    2
278
    0
279
    0
280
    0
281
    0
282
    0
283
    1
284
    0
285
    0
286
    0
288
    0
289
    3
340
standard
341

371
   -2
372
   -2
  0
ENDTAB
  0
TABLE
  2
BLOCK_RECORD
  5
1
330
0
100
AcDbSymbolTable
 70
    2
  0
BLOCK_RECORD
  5
1F
330
1
100
AcDbSymbolTableRecord
100
AcDbBlockTableRecord
  2
*Model_Space
 70
    0
280
    1
281
    0
  0
BLOCK_RECORD
  5
1E
330
1
100
AcDbSymbolTableRecord
100
AcDbBlockTableRecord
  2
*Paper_Space
 70
    0
280
    1
281
    0
  0
ENDTAB
  0
ENDSEC
  0
SECTION
  2
BLOCKS
  0
BLOCK
  5
20
330
1F
100
AcDbEntity
  8
0
100
AcDbBlockBegin
  2
*Model_Space
 70
    0
 10
0
 20
0
 30
0
  3
*Model_Space
  1

  0
ENDBLK
  5
21
330
1F
100
AcDbEntity
  8
0
100
AcDbBlockEnd
  0
BLOCK
  5
1C
330
1B
100
AcDbEntity
  8
0
100
AcDbBlockBegin
  2
*Paper_Space
 70
    0
 10
0
 20
0
 30
0
  3
*Paper_Space
  1

  0
ENDBLK
  5
1D
330
1F
100
AcDbEntity
  8
0
100
AcDbBlockEnd
  0
ENDSEC
  0
SECTION
  2
ENTITIES
  0
LWPOLYLINE
  5
4D
100
AcDbEntity
  8
0
  6
ByLayer
 62
  256
370
   -1
100
AcDbPolyline
 90
   68
 70
    1
 43
0
 10
393.927047
 20
340.997403
 42
0.05479799999999996
 10
379.289303
 20
337.9825059999999
 42
0.05754600000000001
 10
365.912103
 20
331.8865950000001
 42
0.06099400000000001
 10
354.969854
 20
323.317192
 42
0.07905300000000007
 10
347.504985
 20
313.009837
 42
0.05775399999999997
 10
345.269358
 20
306.953905
 42
0.03578200000000007
 10
344.0095499999999
 20
299.468088
 42
0.02739899999999989
 10
343.624718
 20
289.9505400000001
 42
0.01246500000000004
 10
344.1143089999998
 20
277.5000000000001
 42
0.007541000000000034
 10
345.3177639999998
 20
262.3584260000001
 42
0.01799599999999997
 10
346.784079
 20
251.1760310000001
 42
0.02408200000000002
 10
348.6278620000001
 20
242.713643
 42
0.04828299999999996
 10
351.030221
 20
236.3151810000001
 42
0.09840899999999983
 10
359.342339
 20
225.4230150000001
 42
0.07326699999999983
 10
372.051479
 20
217.1600800000001
 42
0.06614100000000003
 10
387.929051
 20
212.2812270000001
 42
0.05575400000000011
 10
405.5
 20
211.320211
 42
0.03546299999999987
 10
417.214276
 20
212.823702
 42
0.04368299999999985
 10
427.779678
 20
215.928917
 42
0.04608899999999994
 10
437.1662449999999
 20
220.641357
 42
0.04832000000000015
 10
445.371052
 20
226.930092
 42
0.03200999999999993
 10
450.8563659999999
 20
232.744601
 42
0.07004099999999996
 10
454.062323
 20
237.945349
 42
0.09785900000000003
 10
455.0945249999999
 20
242.616684
 42
0.1291539999999994
 10
454.085476
 20
246.840286
 42
0.1080979999999998
 10
452.377902
 20
248.840009
 42
0.08988999999999964
 10
449.87867
 20
250.107584
 42
0.06802599999999996
 10
446.479041
 20
250.636132
 42
0.03277499999999995
 10
442.066379
 20
250.4279999999999
 42
0.02543499999999998
 10
437.857037
 20
249.733502
 42
0.09001900000000014
 10
435.338408
 20
248.686622
 42
0.06547800000000008
 10
432.950485
 20
246.657884
 42
0.009370000000000031
 10
428.7243539999999
 20
241.8104889999999
 42
-0.0458650000000001
 10
423.730428
 20
236.8619149999999
 42
-0.06098000000000002
 10
418.34491
 20
233.429967
 42
-0.05844399999999998
 10
412.1091349999999
 20
231.302418
 42
-0.03789999999999988
 10
404.5518799999999
 20
230.2660860000001
 42
-0.01344199999999976
 10
400.131965
 20
230.117371
 42
-0.03091799999999995
 10
396.810657
 20
230.300447
 42
-0.03364200000000005
 10
393.711241
 20
230.877718
 42
-0.01894300000000003
 10
390.042028
 20
231.969795
 42
-0.07604600000000004
 10
380.046903
 20
237.160211
 42
-0.1210760000000001
 10
373.879098
 20
244.496955
 42
-0.078754
 10
370.253723
 20
256.1798660000001
 42
-0.01872399999999996
 10
368.0862330000001
 20
276.5000000000001
 42
-0.01269800000000001
 10
367.56723
 20
288.443698
 42
-0.03272600000000003
 10
367.976146
 20
297.064663
 42
-0.04589900000000001
 10
369.308528
 20
303.486927
 42
-0.07924699999999994
 10
371.6983069999999
 20
308.378351
 42
-0.06571800000000007
 10
377.312979
 20
314.479881
 42
-0.06586099999999998
 10
384.314734
 20
318.910203
 42
-0.06198700000000003
 10
392.612004
 20
321.5570789999999
 42
-0.04832499999999999
 10
402.047697
 20
322.3934699999999
 42
-0.04497299999999996
 10
408.945917
 20
321.714922
 42
-0.05508199999999999
 10
415.134796
 20
319.814104
 42
-0.05474599999999998
 10
420.789069
 20
316.595993
 42
-0.04362100000000001
 10
426.096723
 20
311.996941
 42
0.01229200000000001
 10
429.261506
 20
308.887386
 42
0.08090999999999957
 10
431.100656
 20
307.654517
 42
0.09032400000000061
 10
433.152387
 20
307.132984
 42
0.01719199999999996
 10
437.018857
 20
307.0000000000001
 42
0.1025659999999998
 10
446.3393209999999
 20
308.9322460000001
 42
0.2794199999999997
 10
450.082461
 20
314.208566
 42
0.1920780000000003
 10
447.652853
 20
321.860351
 42
0.05804500000000001
 10
438.714954
 20
330.489929
 42
0.05524299999999997
 10
429.470714
 20
336.050245
 42
0.05021799999999998
 10
418.935062
 20
339.668253
 42
0.04625500000000003
 10
407.085659
 20
341.313859
 42
0.034812
  0
LWPOLYLINE
  5
4E
100
AcDbEntity
  8
0
  6
ByLayer
 62
  256
370
   -1
100
AcDbPolyline
 90
   88
 70
    1
 43
0
 10
261.208627
 20
330.539901
 42
0.02690799999999998
 10
254.807322
 20
328.716648
 42
0.033492
 10
249.105981
 20
326.3179809999999
 42
0.03467299999999988
 10
243.9404180000001
 20
323.2599609999999
 42
0.03278199999999999
 10
239.1437290000001
 20
319.4646299999999
 42
0.04983699999999995
 10
231.0011
 20
310.4802179999999
 42
0.1610130000000002
 10
228.519104
 20
302.925118
 42
0.2754770000000012
 10
231.5065909999999
 20
297.9354979999999
 42
0.1240520000000003
 10
239.187707
 20
296
 42
0.0350330000000001
 10
243.352918
 20
296.292197
 42
0.1126710000000002
 10
245.933276
 20
297.276639
 42
0.06902199999999985
 10
248.4790329999999
 20
299.5397449999999
 42
0.007844000000000044
 10
253.3956399999999
 20
305.489634
 42
-0.05370800000000006
 10
257.042903
 20
309.160153
 42
-0.06904500000000019
 10
261.111211
 20
311.617618
 42
-0.06344000000000001
 10
265.967325
 20
313.00777
 42
-0.03727
 10
272
 20
313.476822
 42
-0.06243199999999993
 10
280.755039
 20
312.4068239999999
 42
-0.09669599999999992
 10
287.626995
 20
309.179129
 42
-0.1082490000000001
 10
292.264633
 20
303.92586
 42
-0.09517900000000011
 10
294.55374
 20
296.9668
 42
-0.1168570000000002
 10
293.835985
 20
290.133619
 42
-0.1104080000000001
 10
290.129848
 20
284.18584
 42
-0.09120199999999994
 10
283.540565
 20
279.563493
 42
-0.05624899999999988
 10
274.518852
 20
276.59933
 42
0.03285400000000004
 10
269.248106
 20
275.13634
 42
0.09825199999999981
 10
266.039769
 20
273.246542
 42
0.1473739999999996
 10
264.52448
 20
270.774865
 42
0.1141730000000001
 10
264.429403
 20
267.602983
 42
0.06230700000000001
 10
265.486186
 20
264.433662
 42
0.1258479999999988
 10
267.163793
 20
262.4284630000001
 42
0.1124689999999993
 10
269.738471
 20
261.3407000000001
 42
0.04396399999999982
 10
273.605766
 20
261.0000000000001
 42
-0.05403000000000003
 10
284.147746
 20
259.8575000000001
 42
-0.09128300000000009
 10
292.315926
 20
256.4235590000001
 42
-0.1082390000000001
 10
297.808972
 20
250.816457
 42
-0.1030210000000001
 10
300.578182
 20
243.32721
 42
-0.1253549999999998
 10
299.645231
 20
234.08084
 42
-0.117801
 10
294.404495
 20
226.159578
 42
-0.1053209999999999
 10
285.573436
 20
220.842933
 42
-0.08368900000000012
 10
274.568499
 20
219.009769
 42
-0.05981599999999998
 10
269.7445749999999
 20
219.598372
 42
-0.04592499999999988
 10
264.723117
 20
221.333465
 42
-0.04505899999999989
 10
259.998245
 20
224.004567
 42
-0.05148100000000012
 10
256.053833
 20
227.37754
 42
0.02407499999999999
 10
253.817195
 20
229.512709
 42
0.09259400000000025
 10
252.16496
 20
230.479428
 42
0.07503
 10
250.103084
 20
230.886559
 42
0.01250600000000002
 10
246.053833
 20
230.968197
 42
0.02561900000000001
 10
241.402691
 20
230.707094
 42
0.08571699999999988
 10
238.476089
 20
229.870854
 42
0.117543
 10
236.516794
 20
228.27556
 42
0.07265499999999997
 10
235.064065
 20
225.668505
 42
0.08963699999999995
 10
234.590965
 20
223.133786
 42
0.09905300000000004
 10
235.065747
 20
220.687941
 42
0.0684869999999999
 10
236.652415
 20
217.95465
 42
0.02266699999999993
 10
239.676055
 20
214.422897
 42
0.07570399999999997
 10
248.527309
 20
207.463487
 42
0.06426000000000011
 10
259.550924
 20
202.972775
 42
0.06046700000000017
 10
272.004639
 20
201.2467899999999
 42
0.05349800000000014
 10
285.0544039999999
 20
202.424009
 42
0.05751900000000018
 10
299.495043
 20
207.077965
 42
0.07547500000000017
 10
311.088826
 20
214.629961
 42
0.08434299999999999
 10
318.986396
 20
224.506839
 42
0.09738699999999996
 10
322.682032
 20
235.963071
 42
0.05799700000000012
 10
322.7004410000001
 20
245.06617
 42
0.06996400000000008
 10
320.5574920000001
 20
253.336316
 42
0.07264299999999994
 10
316.309497
 20
260.450855
 42
0.06971100000000004
 10
310.151481
 20
266.168033
 42
0.004546999999999986
 10
308.019034
 20
267.62692
 42
0.005890999999999984
 10
306.035842
 20
268.923764
 42
0.004518000000000007
 10
304.35518
 20
269.9734950000001
 42
0.0516579999999998
 10
303.651481
 20
270.309997
 42
-0.4656510000000337
 10
303.495779
 20
270.728233
 42
-0.03668799999999992
 10
304.245841
 20
271.85201
 42
-0.02974799999999998
 10
305.53503
 20
273.317856
 42
-0.01577400000000001
 10
307.2918069999999
 20
274.982277
 42
0.03887300000000001
 10
311.263814
 20
279.109607
 42
0.05430199999999995
 10
314.068561
 20
283.390386
 42
0.05535800000000012
 10
315.849467
 20
288.108603
 42
0.04257999999999992
 10
316.755499
 20
293.54281
 42
0.09141200000000006
 10
315.580738
 20
304.99542
 42
0.09078799999999998
 10
310.399707
 20
315.306739
 42
0.08555000000000008
 10
301.582619
 20
323.5771779999999
 42
0.07036599999999991
 10
289.904718
 20
329.1067869999999
 42
0.03701800000000004
 10
283.148035
 20
330.672645
 42
0.02596299999999994
 10
275.374851
 20
331.466805
 42
0.02618499999999999
 10
267.687402
 20
331.447913
 42
0.04223999999999996
  0
LWPOLYLINE
  5
4F
100
AcDbEntity
  8
0
  6
ByLayer
 62
  256
370
   -1
100
AcDbPolyline
 90
   44
 70
    1
 43
0
 10
148
 20
321.372401
 42
0.04214299999999994
 10
145.086378
 20
320.583264
 42
0.05845500000000013
 10
142.670943
 20
319.3699120000001
 42
0.063586
 10
140.75543
 20
317.725835
 42
0.06440299999999996
 10
139.324058
 20
315.659766
 42
0.033199
 10
135.2742580000013
 20
306.3642429999991
 42
0.0006200000000000386
 10
117.361241999999
 20
256.2453159999859
 42
0.0002589999999999679
 10
98.73036999999751
 20
203.827398999998
 42
0.08545399999999991
 10
97.99999999999999
 20
199.585114
 42
0.1317190000000001
 10
99.23341199999997
 20
194.984362
 42
0.11604
 10
102.645862
 20
191.357196
 42
0.111733
 10
107.435628
 20
189.541725
 42
0.1151380000000001
 10
112.484363
 20
189.994839
 42
0.08063299999999984
 10
115.715037
 20
191.675501
 42
0.08385099999999995
 10
118.198102
 20
194.27301
 42
0.05386599999999989
 10
120.425159
 20
198.469132
 42
0.01468199999999985
 10
123.008322
 20
205.5249779999999
 42
-0.02413299999999991
 10
125.823778
 20
212.787244
 42
-0.08623700000000011
 10
128.58568
 20
216.910889
 42
-0.114539
 10
132.117931
 20
219.22771
 42
-0.06077700000000002
 10
137.239677
 20
220.432486
 42
-0.007856000000000002
 10
149.972288
 20
221.6317590000001
 42
-0.003922999999999993
 10
166.1174760000002
 20
222.7695330000001
 42
-0.001225999999999975
 10
182.5943879999999
 20
223.7602929999998
 42
-0.08818099999999976
 10
185.289278
 20
223.439986
 42
-0.08846800000000019
 10
188.069924
 20
222.02511
 42
-0.05782500000000004
 10
190.678053
 20
219.532853
 42
-0.03974099999999998
 10
193.4334969999999
 20
215.616762
 42
-0.014231
 10
196.740156
 20
209.638811
 42
0.03152200000000002
 10
201.25334
 20
202.1065560000001
 42
0.1085009999999999
 10
205.390111
 20
198.238831
 42
0.1511169999999998
 10
209.940394
 20
197.146123
 42
0.083063
 10
215.568108
 20
198.464011
 42
0.09899100000000018
 10
218.313316
 20
200.314507
 42
0.07546000000000019
 10
220.4531
 20
203.251109
 42
0.07611799999999992
 10
221.610683
 20
206.66262
 42
0.1044610000000002
 10
221.504129
 20
209.892025
 42
0.06499600000000003
 10
219.5085890000046
 20
215.0223720000031
 42
0.0003160000000000057
 10
192.511857999998
 20
264.2753589999993
 42
0.0003639999999999873
 10
165.6201449999935
 20
313.1788899999956
 42
0.05587599999999993
 10
161.967559
 20
318.348315
 42
0.09602799999999975
 10
159.555002
 20
320.1921389999999
 42
0.06204899999999976
 10
156.227069
 20
321.358716
 42
0.054769
 10
152.272258
 20
321.7706590000001
 42
0.04368300000000008
  0
LWPOLYLINE
  5
50
100
AcDbEntity
  8
0
  6
ByLayer
 62
  256
370
   -1
100
AcDbPolyline
 90
   24
 70
    1
 43
0
 10
163.96773
 20
274.454265
 42
-0.006214000000000021
 10
170.864185
 20
260.518605
 42
-0.04249300000000001
 10
173.576462
 20
253.360183
 42
-0.09478100000000013
 10
174.000516
 20
248.567421
 42
-0.1204000000000001
 10
172.522219
 20
244.393566
 42
-0.09987799999999997
 10
170.099003
 20
241.939803
 42
-0.07204000000000017
 10
166.623436
 20
240.266334
 42
-0.05010399999999992
 10
161.6888779999999
 20
239.241479
 42
-0.01900699999999999
 10
154.6611809999998
 20
238.772421
 42
-0.005536999999999789
 10
148.5730490000001
 20
238.6654819999999
 42
-0.05365700000000016
 10
146.007312
 20
238.924783
 42
-0.09974200000000011
 10
144.199565
 20
239.703528
 42
-0.03922199999999987
 10
142.087854
 20
241.425161
 42
-0.1010449999999997
 10
139.285875
 20
245.459924
 42
-0.1253220000000002
 10
138.576736
 20
249.961486
 42
-0.04981199999999999
 10
139.9629409999999
 20
257.0681749999999
 42
-0.005077000000000022
 10
145.0802279999999
 20
273.4753099999998
 42
-0.003507000000000017
 10
147.9242120000001
 20
282.071704
 42
-0.006043999999999995
 10
150.427905
 20
289.1811180000001
 42
-0.001699000000000004
 10
152.6494419999999
 20
295.1906270000001
 42
-0.5644190000000139
 10
153.051589
 20
295.266141
 42
-0.06103999999999955
 10
153.5004639999997
 20
294.619492
 42
-0.0004499999999999942
 10
156.5403020000002
 20
288.8366190000002
 42
-0.001691000000000003
 10
159.9963119999998
 20
282.193117
 42
-0.001083000000000007
  0
LWPOLYLINE
  5
51
100
AcDbEntity
  8
0
  6
ByLayer
 62
  256
370
   -1
100
AcDbPolyline
 90
   32
 70
    1
 43
0
 10
538.743767
 20
235.9993169999999
 42
-0.01119800000000005
 10
536.6918270000001
 20
225.4103859999991
 42
-0.001880999999999924
 10
532.2324690000005
 20
205.2382680000005
 42
-0.002217000000000131
 10
527.3034389999998
 20
183.7775919999987
 42
-0.00384299999999987
 10
522.9928770000001
 20
166.0000000000001
 42
0.009867999999999974
 10
519.602457
 20
151.243015
 42
0.0496849999999999
 10
518.7012330000001
 20
142.837254
 42
0.09533099999999943
 10
519.7319970000001
 20
137.254226
 42
0.114194
 10
522.7436709999999
 20
132.852632
 42
0.04583900000000005
 10
525.489023
 20
130.758144
 42
0.04087999999999994
 10
528.674541
 20
129.106234
 42
0.04051600000000009
 10
531.537015
 20
128.171312
 42
0.2804949999999983
 10
532.8825399999999
 20
128.605635
 42
0.117387999999996
 10
533.303646999997
 20
129.4186249999912
 42
0.0002460000000000274
 10
536.7441659999965
 20
143.2544199999923
 42
0.001678999999999976
 10
540.5609569999997
 20
158.8596829999976
 42
0.001039000000000056
 10
544.9454429999987
 20
177.2179219999982
 42
0.001127000000000096
 10
551.2715979999994
 20
204.22347
 42
0.007480000000000069
 10
554.1959749999999
 20
217.7517859999997
 42
0.0143750000000001
 10
555.614977
 20
226.05889
 42
0.05105099999999995
 10
555.8222500000002
 20
231.450574
 42
0.01500000000000002
 10
555.4835220000001
 20
235.059348
 42
0.05269600000000023
 10
554.95484
 20
237.328734
 42
0.06853700000000006
 10
554.046287
 20
239.112774
 42
0.03904200000000001
 10
552.5105569999999
 20
240.988981
 42
0.05830000000000009
 10
550.267768
 20
242.841338
 42
0.03702900000000002
 10
547.29108
 20
244.466938
 42
0.03732100000000001
 10
544.164233
 20
245.612654
 42
0.06789700000000007
 10
541.475154
 20
245.994423
 42
0.3297419999999969
 10
541.007955
 20
245.652644
 42
0.008854999999999976
 10
540.25006
 20
243.060661
 42
0.01509599999999995
 10
539.471863
 20
239.832752
 42
0.00934200000000002
  0
LWPOLYLINE
  5
52
100
AcDbEntity
  8
0
  6
ByLayer
 62
  256
370
   -1
100
AcDbPolyline
 90
   32
 70
    1
 43
0
 10
490.1563070000001
 20
213.004818
 42
0.006631000000000049
 10
485.4097399999999
 20
207.793865
 42
0.01053400000000001
 10
481.5022529999999
 20
203.1965580000001
 42
0.006317000000000044
 10
478.4235909999999
 20
199.316702
 42
0.1660329999999993
 10
478
 20
198.076247
 42
0.1163889999999994
 10
478.449022
 20
196.173405
 42
0.09638499999999944
 10
479.721532
 20
194.5189760000001
 42
0.09105499999999954
 10
481.595119
 20
193.392422
 42
0.09018100000000026
 10
483.753166
 20
193
 42
0.1156089999999998
 10
485.346989
 20
193.373514
 42
0.047806
 10
487.23998
 20
194.549624
 42
0.03133999999999989
 10
489.639353
 20
196.629246
 42
0.01007799999999982
 10
492.933154
 20
199.9999999999999
 42
-0.01949299999999992
 10
497.652768
 20
204.6513869999999
 42
-0.09170200000000005
 10
500.871714
 20
206.6527
 42
-0.1551270000000007
 10
503.698592
 20
206.838275
 42
-0.09245300000000013
 10
506.795923
 20
205.430388
 42
-0.06158800000000016
 10
507.822498
 20
204.504203
 42
-0.020226
 10
509.0939179999999
 20
202.910205
 42
-0.01980199999999998
 10
510.375132
 20
201.010053
 42
-0.02115899999999999
 10
511.472039
 20
199.055178
 42
0.05756499999999996
 10
513.9835890000001
 20
195.25521
 42
0.1214230000000007
 10
516.82096
 20
193.185998
 42
0.1640580000000003
 10
519.712525
 20
193.002953
 42
0.1316009999999998
 10
522.428571
 20
194.571429
 42
0.1448959999999994
 10
523.601498
 20
196.730709
 42
0.1201170000000009
 10
523.5246519999999
 20
199.355644
 42
0.05034499999999994
 10
521.969264
 20
203.378191
 42
0.007204000000000002
 10
517.8541050000001
 20
211.20658
 42
0.01797
 10
510.6180720000001
 20
223.4351990000001
 42
0.2382909999999997
 10
506.238455
 20
226.017134
 42
0.2099929999999999
 10
501.217943
 20
224.1893999999999
 42
0.013908
  0
LWPOLYLINE
  5
53
100
AcDbEntity
  8
0
  6
ByLayer
 62
  256
370
   -1
100
AcDbPolyline
 90
   28
 70
    1
 43
0
 10
460.364082
 20
222.853949
 42
0.09406800000000025
 10
458.757816
 20
221.639418
 42
0.05452599999999997
 10
457.3336
 20
219.673138
 42
0.05346400000000015
 10
456.335566
 20
217.383697
 42
0.07621299999999998
 10
456
 20
215.19499
 42
0.07828000000000011
 10
456.148693
 20
214.251061
 42
0.01488499999999998
 10
456.7343749999999
 20
212.607145
 42
0.01555600000000004
 10
457.5429369999999
 20
210.711278
 42
0.01373800000000001
 10
458.5
 20
208.787849
 42
-0.04540799999999995
 10
460.2274279999999
 20
204.684167
 42
-0.06977000000000003
 10
460.8723660000001
 20
200.88984
 42
-0.06189500000000001
 10
460.479229
 20
196.745583
 42
-0.02829600000000005
 10
459.0021919999999
 20
191.506372
 42
0.02822699999999997
 10
457.780644
 20
187.175702
 42
0.1292929999999998
 10
457.880782
 20
184.587582
 42
0.3189420000000009
 10
459.106338
 20
183.641365
 42
0.1336349999999998
 10
461.249292
 20
184.133417
 42
0.05615299999999995
 10
464.770582
 20
186.561036
 42
0.02618199999999993
 10
468.7637479999999
 20
190.418572
 42
0.02620100000000021
 10
472.359141
 20
194.705153
 42
0.05205400000000011
 10
474.641754
 20
198.5
 42
0.07273299999999995
 10
476.6108719999999
 20
205.043686
 42
0.06151999999999991
 10
476.785907
 20
212.273863
 42
0.06783799999999994
 10
475.308269
 20
218.468774
 42
0.1812549999999999
 10
472.334658
 20
221.803379
 42
0.06584400000000022
 10
469.641914
 20
222.793784
 42
0.03336499999999996
 10
466.066208
 20
223.349733
 42
0.03266500000000006
 10
462.594558
 20
223.426927
 42
0.104566
  0
LWPOLYLINE
  5
54
100
AcDbEntity
  8
0
  6
ByLayer
 62
  256
370
   -1
100
AcDbPolyline
 90
   38
 70
    1
 43
0
 10
575.5
 20
202.593633
 42
0.1260789999999999
 10
561.241119
 20
190.675603
 42
0.08103200000000005
 10
551.5804169999999
 20
171.276315
 42
0.08807900000000014
 10
549.0918969999999
 20
151.411866
 42
0.2024980000000004
 10
555.52913
 20
138.108567
 42
0.04189800000000005
 10
558.71468
 20
135.7526589999999
 42
0.07650200000000011
 10
561.6854070000001
 20
134.495488
 42
0.06112399999999995
 10
565.331956
 20
134.035315
 42
0.01871800000000005
 10
570.8926719999999
 20
134.224433
 42
0.05755199999999998
 10
578.438768
 20
135.647585
 42
0.05325000000000009
 10
585.675165
 20
138.773675
 42
0.05619899999999999
 10
591.683224
 20
143.12174
 42
0.08786900000000022
 10
595.570418
 20
148.163872
 42
0.04613599999999995
 10
596.1510569999999
 20
149.579344
 42
0.01504399999999999
 10
596.7473829999999
 20
151.759595
 42
0.01485000000000002
 10
597.2675630000001
 20
154.234094
 42
0.01621200000000006
 10
597.6225720000001
 20
156.663872
 10
598.28286
 20
162.5
 10
591.39143
 20
155.8977149999999
 42
-0.01891900000000001
 10
586.29027
 20
151.3679379999999
 42
-0.0321209999999999
 10
581.659703
 20
148.033487
 42
-0.03911599999999999
 10
577.532834
 20
145.876212
 42
-0.07962300000000037
 10
573.992377
 20
144.992636
 42
-0.01959599999999988
 10
570.368956
 20
144.824124
 42
-0.05487400000000014
 10
567.844076
 20
145.083453
 42
-0.0845559999999994
 10
566.12663
 20
145.7708140000001
 42
-0.1332779999999989
 10
565.043555
 20
146.918616
 42
-0.1439650000000031
 10
564.7995240000001
 20
148.089749
 42
-0.1725829999999922
 10
565.258592
 20
149.111325
 42
-0.06515200000000008
 10
566.726849
 20
150.290281
 42
-0.008145999999999987
 10
570.258372
 20
152.3600950000001
 42
0.05469799999999986
 10
582.722146
 20
161.3171120000001
 42
0.04961699999999994
 10
593.4074929999998
 20
173.037696
 42
0.05347099999999998
 10
600.4520399999999
 20
184.972141
 42
0.160297
 10
601.464505
 20
194.266649
 42
0.1511840000000001
 10
598.202455
 20
200.105522
 42
0.1131990000000001
 10
591.830035
 20
203.888895
 42
0.09909700000000006
 10
583.674764
 20
204.812692
 42
0.09040100000000006
  0
LWPOLYLINE
  5
55
100
AcDbEntity
  8
0
  6
ByLayer
 62
  256
370
   -1
100
AcDbPolyline
 90
   20
 70
    1
 43
0
 10
591.0000000000001
 20
188.671445
 42
-0.08174400000000258
 10
590.8029590000001
 20
187.474262
 42
-0.02204399999999999
 10
590.104225
 20
185.6745289999999
 42
-0.02170899999999994
 10
589.117764
 20
183.6725279999999
 42
-0.0209510000000001
 10
587.950553
 20
181.739064
 42
-0.04255199999999991
 10
582.4835499999999
 20
174.839578
 42
-0.02000699999999994
 10
574.3536629999999
 20
166.8665129999999
 42
-0.01532599999999993
 10
566.5451409999999
 20
160.2224199999999
 42
-0.628744999999991
 10
565
 20
160.965421
 42
-0.1103160000000001
 10
565.595491
 20
163.631593
 42
-0.01071399999999997
 10
568.5562619999998
 20
169.593804
 42
-0.01467200000000003
 10
572.039759
 20
175.796912
 42
-0.02445000000000005
 10
575.371815
 20
180.774336
 42
-0.02578799999999998
 10
578.994565
 20
185.160456
 42
-0.04413200000000003
 10
582.49555
 20
188.361378
 42
-0.05509399999999993
 10
585.781959
 20
190.34196
 42
-0.1080759999999999
 10
588.75
 20
190.9962619999999
 42
-0.05701799999999974
 10
589.82911
 20
190.87462
 42
-0.1448990000000022
 10
590.508835
 20
190.4908710000001
 42
-0.1406810000000043
 10
590.8820949999999
 20
189.790268
 42
-0.05254599999999917
  0
LWPOLYLINE
  5
56
100
AcDbEntity
  8
0
  6
ByLayer
 62
  256
370
   -1
100
AcDbPolyline
 90
   70
 70
    1
 43
0
 10
436
 20
193.482555
 42
-0.0497580000000002
 10
435.9608920000001
 20
193.0905459999991
 42
-0.0004699999999999824
 10
435.3873060000001
 20
190.2581709999992
 42
-0.001573999999999988
 10
434.7136630000001
 20
187.0002360000001
 42
-0.001018000000000098
 10
433.9142340000001
 20
183.2325549999997
 42
-0.02096099999999989
 10
432.3410479999999
 20
177.148418
 42
-0.02852299999999991
 10
430.38708
 20
171.828149
 42
-0.01815800000000011
 10
427.23506
 20
165.2242079999999
 42
-0.003726000000000008
 10
421.1642339999998
 20
153.8173689999996
 42
-0.002593999999999861
 10
417.0538190000001
 20
146.3240030000001
 42
-0.004492000000000045
 10
413.5497459999997
 20
140.1453389999994
 42
-0.001085999999999821
 10
410.4906670000001
 20
134.8888680000002
 42
-0.6356559999999738
 10
410.217881
 20
134.913727
 42
-0.1492349999999966
 10
410.1865409999998
 20
135.525486
 42
-0.00100799999999995
 10
411.4968189999999
 20
140.7194119999998
 42
-0.003834000000000024
 10
413.059319
 20
146.669561
 42
-0.002427999999999998
 10
414.9678809999999
 20
153.5838649999998
 42
0.005863999999999965
 10
416.8947099999999
 20
160.7561949999998
 42
0.007160999999999925
 10
418.5218149999999
 20
167.5103619999998
 42
0.006101000000000121
 10
419.736612
 20
173.213296
 42
0.04945899999999975
 10
420
 20
175.869473
 42
0.07908000000000004
 10
419.17082
 20
181.079327
 42
0.1019200000000004
 10
416.773289
 20
185.278351
 42
0.09189400000000016
 10
412.687861
 20
188.485778
 42
0.05364500000000001
 10
406.876265
 20
190.774206
 10
403.252529
 20
191.769059
 10
402.6211739999999
 20
185.634529
 42
-0.02504699999999993
 10
402.1007929999999
 20
182.2518469999999
 42
-0.005387999999999973
 10
400.844057
 20
176.4551429999998
 42
-0.005612999999999892
 10
399.2392100000001
 20
169.766915
 42
-0.005331000000000016
 10
397.4580000000001
 20
163
 42
0.006063000000000018
 10
395.6799060000001
 20
156.2045270000001
 42
0.006234000000000064
 10
394.0843440000001
 20
149.430604
 42
0.006054000000000004
 10
392.8455990000001
 20
143.524788
 42
0.02615100000000003
 10
392.337044
 20
139.976523
 42
0.01136700000000002
 10
392.0696249999999
 20
136.010963
 42
0.06631800000000034
 10
392.2527759999999
 20
133.931304
 42
0.08994199999999969
 10
392.9569460000001
 20
132.264326
 42
0.03011399999999995
 10
394.54105
 20
130.133584
 42
0.04145400000000019
 10
397.493681
 20
127.162993
 42
0.03414800000000016
 10
401.086049
 20
124.503353
 42
0.03481699999999988
 10
404.618875
 20
122.575989
 42
0.1078710000000001
 10
407.257622
 20
122
 42
0.129454
 10
410.245128
 20
122.786671
 42
0.08876100000000023
 10
412.958198
 20
125.035041
 42
0.04819799999999987
 10
415.946112
 20
129.35216
 42
0.01110400000000011
 10
420.0927120000001
 20
137.184948
 42
-0.003938999999999923
 10
424.087313
 20
144.9993829999999
 42
-0.04230400000000008
 10
425.99024
 20
148.001208
 42
-0.7582700000000258
 10
426.533724
 20
147.786463
 42
-0.04409099999999989
 10
425.982898
 20
144.94037
 42
0.06645499999999999
 10
425.000004
 20
138.283138
 42
0.1091629999999998
 10
426.146604
 20
132.729421
 42
0.1184389999999999
 10
429.423665
 20
128.479307
 42
0.08766900000000012
 10
434.641468
 20
125.606497
 42
0.007888000000000084
 10
436.465858
 20
125.016816
 42
0.01231099999999993
 10
438.056085
 20
124.572895
 42
0.00649200000000004
 10
439.388558
 20
124.254404
 42
0.2572159999999886
 10
439.66893
 20
124.335597
 42
0.1406940000000015
 10
440.5741119999984
 20
125.9697489999953
 42
0.0003980000000000816
 10
446.1923799999977
 20
150.4614229999979
 42
0.0009190000000001217
 10
451.5218239999995
 20
173.9781990000008
 42
0.05531100000000005
 10
452
 20
178.287548
 42
0.06735200000000004
 10
451.429063
 20
182.506771
 42
0.06955500000000017
 10
449.7584660000001
 20
186.3727940000001
 42
0.07060400000000018
 10
447.119441
 20
189.5850140000001
 42
0.07293700000000015
 10
443.717721
 20
191.894603
 42
0.02254400000000002
 10
440.822597
 20
193.138345
 42
0.03945999999999999
 10
438.317872
 20
193.863474
 42
0.05481800000000001
 10
436.538801
 20
194.030118
 42
0.409497000000006
  0
LWPOLYLINE
  5
57
100
AcDbEntity
  8
0
  6
ByLayer
 62
  256
370
   -1
100
AcDbPolyline
 90
   22
 70
    1
 43
0
 10
494.060702
 20
184.427177
 42
-0.02547600000000001
 10
493.2640339999999
 20
180.9198639999999
 42
-0.006946999999999933
 10
491.649272
 20
175.472745
 42
-0.007007000000000121
 10
489.642671
 20
169.3375719999998
 42
-0.007239999999999897
 10
487.485708
 20
163.327867
 42
0.011461
 10
482.6575149999999
 20
149.509907
 42
0.05316800000000009
 10
480.9222169999999
 20
141.246807
 42
0.1012149999999998
 10
481.4909919999999
 20
135.633399
 42
0.1291830000000003
 10
484.241736
 20
131.242627
 42
0.05195400000000001
 10
487.055892
 20
129.101635
 42
0.04345000000000001
 10
490.421109
 20
127.435547
 42
0.04574600000000006
 10
493.371648
 20
126.582508
 42
0.3686159999999952
 10
494.5071969999998
 20
127.2271329999996
 42
0.005498999999999976
 10
500.5292499999994
 20
144.4062439999992
 42
0.006236999999999967
 10
505.915518
 20
161.0100059999992
 42
0.002589000000000044
 10
510.4803200000001
 20
175.9765389999999
 42
0.1226739999999998
 10
510.627076
 20
179.114621
 42
0.07192300000000018
 10
509.1684740000001
 20
183.225033
 42
0.08542200000000014
 10
506.662747
 20
186.487029
 42
0.07974199999999995
 10
503.058044
 20
188.880782
 42
0.05382299999999993
 10
498.3622
 20
190.434374
 10
495.2244
 20
191.109624
  0
LWPOLYLINE
  5
58
100
AcDbEntity
  8
0
  6
ByLayer
 62
  256
370
   -1
100
AcDbPolyline
 90
   76
 70
    1
 43
0
 10
350.5
 20
188.118725
 42
0.06561299999999998
 10
345.410762
 20
184.91646
 42
0.03916000000000004
 10
340.2719959999999
 20
179.92409
 42
0.03605800000000006
 10
335.497064
 20
173.636223
 42
0.03255900000000001
 10
331.492308
 20
166.515231
 42
0.01885899999999998
 10
328.334901
 20
159.240624
 42
0.03368499999999999
 10
326.3811020000001
 20
153.022368
 42
0.035488
 10
325.341938
 20
146.825442
 42
0.02380399999999999
 10
325
 20
139.647123
 42
0.06360999999999994
 10
326.08682
 20
131.13891
 42
0.08843200000000001
 10
329.2859000000001
 20
124.172742
 42
0.1063839999999998
 10
334.144982
 20
119.628606
 42
0.1358129999999999
 10
340.030176
 20
118
 42
0.09051199999999991
 10
343.568542
 20
118.645818
 42
0.04514900000000013
 10
347.680162
 20
120.638548
 42
0.04176500000000002
 10
351.798293
 20
123.609818
 42
0.04116500000000008
 10
355.387054
 20
127.237433
 42
-0.01638599999999999
 10
356.762461
 20
128.772797
 42
-0.03773800000000015
 10
357.914881
 20
129.808453
 42
-0.08210500000000016
 10
358.670015
 20
130.213955
 42
-0.5119860000000163
 10
358.971351
 20
130
 42
-0.06112799999999977
 10
358.851707
 20
128.9651789999999
 42
-0.002430999999999891
 10
357.939004
 20
125.2687499999999
 42
-0.004256999999999902
 10
356.797554
 20
120.897971
 42
-0.002995000000000123
 10
355.4422420000001
 20
115.9999999999998
 42
0.01555600000000004
 10
352.69759
 20
105.014677
 42
0.03265099999999999
 10
351.396475
 20
96.31426900000002
 42
0.04255300000000001
 10
351.409009
 20
89.67393600000001
 42
0.1198150000000003
 10
352.88346
 20
85.304334
 42
0.04660199999999996
 10
354.9315429999999
 20
82.64935999999997
 42
0.05701800000000024
 10
357.314159
 20
80.61513699999998
 42
0.05786300000000016
 10
360.063964
 20
79.193422
 42
0.05021800000000004
 10
363.200753
 20
78.354848
 10
366.613046
 20
77.801109
 10
368.8489949999999
 20
89.15055500000004
 42
-0.007502999999999958
 10
370.2362189999999
 20
95.67419199999972
 42
-0.001320000000000003
 10
373.059565
 20
107.8879750000002
 42
-0.001429999999999998
 10
376.449451
 20
122.1936319999998
 42
-0.001285000000000082
 10
380.0430090000004
 20
137.0000000000006
 42
0.002076999999999864
 10
383.4751279999997
 20
151.2395389999994
 42
0.003036999999999943
 10
386.3683869999998
 20
163.8062499999986
 42
0.001477000000000019
 10
388.7298709999998
 20
174.504094999999
 42
0.0539339999999997
 10
388.996799
 20
177
 42
0.0742889999999999
 10
388.396354
 20
180.985665
 42
0.09635299999999976
 10
386.661197
 20
184.239177
 42
0.08973299999999966
 10
383.720702
 20
186.7653409999999
 42
0.05640999999999993
 10
379.568762
 20
188.609847
 42
0.008111999999999972
 10
377.420686
 20
189.248849
 42
0.01287999999999999
 10
375.560382
 20
189.718235
 42
0.006762999999999999
 10
374.008808
 20
190.045495
 42
0.2906230000000127
 10
373.709105
 20
189.928798
 42
0.09521100000000161
 10
373.5375769999999
 20
189.5681709999999
 42
0.0009090000000000039
 10
372.8077909999999
 20
186.7372759999999
 42
0.002996000000000047
 10
371.9917509999999
 20
183.466323
 42
0.001929999999999955
 10
371.083364
 20
179.6661830000001
 42
-0.03189699999999993
 10
368.419099
 20
170.8840799999999
 42
-0.02098299999999987
 10
364.3021309999999
 20
161.154198
 42
-0.02005799999999982
 10
359.106669
 20
151.231734
 42
-0.02060200000000009
 10
353.1757059999999
 20
141.8482649999999
 42
-0.01467100000000004
 10
346.8092559999999
 20
133.1931599999999
 42
-0.1271839999999996
 10
343.044808
 20
130.306125
 42
-0.4361629999999998
 10
340.816945
 20
131.30462
 42
-0.08190199999999971
 10
340.0000000000001
 20
136.258516
 42
-0.06949399999999993
 10
341.657389
 20
148.125674
 42
-0.06791000000000001
 10
346.50585
 20
159.185864
 42
-0.06945800000000001
 10
354.013633
 20
168.329955
 42
-0.07899400000000001
 10
363.443257
 20
174.602653
 10
368.822644
 20
177.065418
 10
366.269361
 20
181.633739
 42
0.04852299999999991
 10
364.08734
 20
184.778257
 42
0.04630200000000007
 10
361.30864
 20
187.497914
 42
0.04997000000000001
 10
358.432576
 20
189.391549
 42
0.1242730000000005
 10
356
 20
189.9743000000001
 42
0.06513600000000054
 10
355.176499
 20
189.8563720000001
 42
0.01326600000000007
 10
353.765625
 20
189.421707
 42
0.01377199999999999
 10
352.141407
 20
188.823427
 42
0.01253100000000005
  0
LWPOLYLINE
  5
59
100
AcDbEntity
  8
0
  6
ByLayer
 62
  256
370
   -1
100
AcDbPolyline
 90
   72
 70
    1
 43
0
 10
290.759081
 20
184.643199
 42
0.02869900000000005
 10
286.658404
 20
182.832632
 42
0.05876800000000015
 10
283.743307
 20
180.878396
 42
0.06588700000000004
 10
281.573791
 20
178.46017
 42
0.04582799999999991
 10
279.786705
 20
175.250716
 42
0.02556199999999998
 10
278.854381
 20
172.813488
 42
0.03983999999999997
 10
278.332013
 20
170.627952
 42
0.04054199999999989
 10
278.168128
 20
168.415325
 42
0.027702
 10
278.325634
 20
165.898341
 42
0.05278899999999991
 10
279.210174
 20
162.004392
 42
0.05134199999999993
 10
280.895722
 20
158.343085
 42
0.03093099999999998
 10
283.985402
 20
153.7867280000001
 42
0.006824000000000019
 10
289.8617790000001
 20
146.3902660000001
 42
-0.007479000000000002
 10
295.269082
 20
139.565889
 42
-0.06757299999999983
 10
297.1572519999999
 20
136.269364
 42
-0.1411989999999989
 10
297.4375299999999
 20
133.601617
 42
-0.06972599999999973
 10
296.372363
 20
130.333735
 42
-0.02750000000000004
 10
295.270107
 20
128.359937
 42
-0.08036999999999984
 10
294.239602
 20
127.196034
 42
-0.09632400000000031
 10
293.009465
 20
126.534093
 42
-0.05131700000000017
 10
291.308961
 20
126.191039
 42
-0.04388600000000008
 10
289.774925
 20
126.17753
 42
-0.05889499999999952
 10
288.412502
 20
126.448836
 42
-0.06189199999999997
 10
287.203204
 20
127.014969
 42
-0.05604100000000003
 10
286.123894
 20
127.876106
 42
-0.08021699999999989
 10
284.63814
 20
129.934077
 42
-0.03285200000000008
 10
283.29362
 20
133.118292
 42
-0.03262299999999999
 10
282.328503
 20
136.624168
 42
-0.05027499999999994
 10
282.005577
 20
139.75
 42
0.2076009999999966
 10
281.341192
 20
141.270854
 42
0.1641200000000012
 10
279.688842
 20
142.017099
 42
0.09744599999999989
 10
277.13426
 20
141.772621
 42
0.04692399999999993
 10
274.071521
 20
140.536985
 42
0.0544340000000001
 10
272.041747
 20
139.189634
 42
0.1023419999999999
 10
270.821635
 20
137.656052
 42
0.08649200000000051
 10
270.190893
 20
135.584211
 42
0.03075099999999998
 10
270
 20
132.483312
 42
0.1151099999999999
 10
271.782134
 20
124.844895
 42
0.127194
 10
276.727413
 20
119.1083
 42
0.106826
 10
284.613474
 20
115.834666
 42
0.06411600000000001
 10
294.7799949999999
 20
115.299723
 42
0.06043499999999995
 10
303.579154
 20
117.048696
 42
0.1052979999999999
 10
309.983918
 20
120.773485
 42
0.117909
 10
313.857575
 20
126.441848
 42
0.08906800000000012
 10
315.264871
 20
133.87608
 42
0.05634700000000003
 10
314.681462
 20
139.511626
 42
0.06704900000000003
 10
312.85147
 20
144.530716
 42
0.04944099999999998
 10
309.273042
 20
149.964946
 42
0.01662499999999998
 10
303.0458399999999
 20
157.146065
 42
-0.009471000000000005
 10
297.4341529999999
 20
163.4333680000001
 42
-0.04978200000000005
 10
294.7841519999999
 20
167.222863
 42
-0.09836900000000012
 10
293.8372
 20
170.132242
 42
-0.1194749999999998
 10
294.1774639999999
 20
172.97177
 42
-0.2381660000000014
 10
297.9553
 20
176.463708
 42
-0.2069779999999999
 10
303.349036
 20
175.760079
 42
-0.136646
 10
308.2228239999999
 20
170.645273
 42
-0.1230309999999995
 10
309.9999999999999
 20
163.532119
 42
0.06871000000000035
 10
310.23473
 20
161.832051
 42
0.2791240000000045
 10
310.965922
 20
161.148144
 42
0.1363560000000005
 10
312.375595
 20
161.237687
 42
0.01532699999999992
 10
315.401426
 20
162.394367
 42
0.06022099999999982
 10
317.970549
 20
163.851991
 42
0.06145000000000007
 10
320.098818
 20
165.871236
 42
0.06685300000000011
 10
321.518676
 20
168.159133
 42
0.105873
 10
322
 20
170.406782
 42
0.09368500000000024
 10
321.385324
 20
173.65855
 42
0.04976299999999996
 10
319.511216
 20
177.319896
 42
0.04886099999999992
 10
316.87326
 20
180.648337
 42
0.07286300000000009
 10
313.937952
 20
182.914717
 42
0.07604699999999995
 10
309.183403
 20
184.705596
 42
0.03351099999999997
 10
302.513733
 20
185.655233
 42
0.03352199999999995
 10
295.766443
 20
185.705265
 42
0.07483899999999997
  0
LWPOLYLINE
  5
5A
100
AcDbEntity
  8
0
  6
ByLayer
 62
  256
370
   -1
100
AcDbPolyline
 90
   42
 70
    1
 43
0
 10
241.242573
 20
180.433589
 42
0.08069700000000006
 10
233.210655
 20
174.658827
 42
0.04753999999999999
 10
225.655161
 20
165.53031
 42
0.04559399999999997
 10
219.589789
 20
154.565163
 42
0.05343800000000008
 10
215.995808
 20
143.242587
 42
0.05347000000000007
 10
215.105504
 20
133.773326
 42
0.06592799999999996
 10
216.383775
 20
125.004708
 42
0.07667599999999991
 10
219.593104
 20
117.997225
 42
0.1280870000000002
 10
224.381829
 20
113.681587
 42
0.1086860000000001
 10
231.753867
 20
111.703297
 42
0.06614900000000014
 10
240.77811
 20
112.485424
 42
0.06299700000000008
 10
249.781451
 20
115.714755
 42
0.07516699999999994
 10
257.112255
 20
120.951249
 42
0.04136300000000019
 10
260.248581
 20
124.543093
 42
0.05741400000000006
 10
262.371345
 20
128.246988
 42
0.057946
 10
263.583433
 20
132.309471
 42
0.04317299999999994
 10
263.994423
 20
136.97318
 10
264
 20
140.446361
 10
257.25
 20
133.827456
 42
-0.01577100000000009
 10
252.590444
 20
129.538107
 42
-0.03233200000000007
 10
248.634303
 20
126.543897
 42
-0.03872199999999992
 10
244.838324
 20
124.441342
 42
-0.03729700000000005
 10
240.716378
 20
122.918658
 42
-0.0625639999999999
 10
237.792776
 20
122.463829
 42
-0.06173300000000009
 10
234.833725
 20
122.742624
 42
-0.06906900000000007
 10
232.377326
 20
123.653694
 42
-0.1476370000000009
 10
230.961528
 20
125.071886
 42
-0.1634310000000006
 10
230.777005
 20
126.163862
 42
-0.1627730000000006
 10
231.288485
 20
127.14797
 42
-0.06205499999999992
 10
232.80371
 20
128.287505
 42
-0.008663000000000035
 10
236.247044
 20
130.184457
 42
0.05349699999999979
 10
243.4181709999999
 20
135.018236
 42
0.02134299999999993
 10
252.1614159999999
 20
143.0446209999999
 42
0.0210760000000001
 10
260.106762
 20
151.688863
 42
0.06161199999999994
 10
264.523555
 20
158.458617
 42
0.04479600000000004
 10
266.609584
 20
163.9097889999999
 42
0.05642600000000002
 10
267.487074
 20
169.238109
 42
0.06592700000000012
 10
267.113528
 20
173.829644
 42
0.1293369999999995
 10
265.464286
 20
177.075707
 42
0.09778999999999993
 10
260.661825
 20
180.715242
 42
0.07911300000000002
 10
254.463193
 20
182.603194
 42
0.07529099999999998
 10
247.693291
 20
182.518255
 42
0.07500499999999999
  0
LWPOLYLINE
  5
5B
100
AcDbEntity
  8
0
  6
ByLayer
 62
  256
370
   -1
100
AcDbPolyline
 90
   16
 70
    1
 43
0
 10
256.9999999999999
 20
166.934259
 42
-0.0807809999999997
 10
256.6348869999999
 20
164.68912
 42
-0.04987599999999992
 10
255.536577
 20
162.243475
 42
-0.03079499999999982
 10
253.453686
 20
159.087327
 42
-0.008275000000000032
 10
249.763141
 20
154.346396
 42
-0.02863100000000019
 10
245.3157649999999
 20
149.4290379999999
 42
-0.01402300000000005
 10
239.1341059999997
 20
143.6673129999998
 42
-0.005497999999999953
 10
232.7420259999999
 20
138.1596519999999
 42
-0.3894789999999952
 10
231.45204
 20
138.214627
 42
-0.3123360000000021
 10
231.084438
 20
140.235598
 42
-0.01222200000000003
 10
234.545935
 20
147.401664
 42
-0.02080799999999991
 10
238.795366
 20
154.892071
 42
-0.02983300000000003
 10
243.212469
 20
161.114765
 42
-0.04900100000000003
 10
247.60218
 20
165.597894
 42
-0.07479000000000005
 10
252.23919
 20
168.432581
 42
-0.1536720000000004
 10
255.535463
 20
168.744808
 42
-0.3538149999999955
  0
LWPOLYLINE
  5
5C
100
AcDbEntity
  8
0
  6
ByLayer
 62
  256
370
   -1
100
AcDbPolyline
 90
   58
 70
    1
 43
0
 10
190.317118
 20
178.993667
 42
0.1165589999999996
 10
189.214414
 20
178.214557
 42
0.01691400000000009
 10
187.45272
 20
176.079155
 42
0.01838800000000006
 10
185.515312
 20
173.360747
 42
0.01481500000000006
 10
183.6312999999998
 20
170.3070529999994
 42
-0.001168999999999878
 10
178.8953040000001
 20
162.1401190000001
 42
-0.09378500000000006
 10
177.931297
 20
161.029551
 42
-0.6439880000000235
 10
177.43636
 20
161.284315
 42
-0.00923000000000008
 10
177.7301370000001
 20
165.64234
 42
0.009655000000000219
 10
177.97514
 20
169.323398
 42
0.07099999999999994
 10
177.809031
 20
171.073873
 42
0.1293079999999999
 10
177.186485
 20
172.231085
 42
0.06130799999999994
 10
175.879126
 20
173.326868
 42
0.06847300000000001
 10
173.513783
 20
174.4357699999999
 42
0.006959999999999985
 10
167.5542690000001
 20
176.199475
 42
0.002657000000000014
 10
161.13736
 20
177.965056
 42
0.3336799999999997
 10
160.406958
 20
177.67253
 42
0.07928099999999998
 10
159.3190569999988
 20
175.007003000002
 42
0.000561000000000038
 10
153.7997799999976
 20
151.2365480000005
 42
0.0007689999999999803
 10
148.4385670000011
 20
127.8649070000013
 42
0.05604599999999994
 10
148
 20
123.964663
 42
0.08074099999999992
 10
148.834982
 20
118.827612
 42
0.08694900000000001
 10
151.248777
 20
114.363955
 42
0.08384699999999995
 10
155.123304
 20
110.866421
 42
0.06877499999999989
 10
160.199592
 20
108.540373
 10
164.638642
 20
107.204415
 10
168.2744129999999
 20
121.479707
 42
-0.008579000000000017
 10
170.6701559999999
 20
130.25395
 42
-0.02907899999999998
 10
172.659
 20
135.843528
 42
-0.026184
 10
175.3853580000001
 20
141.45394
 42
-0.005989000000000018
 10
180.5973780000002
 20
150.6274990000001
 42
-0.001662999999999928
 10
183.9944419999999
 20
156.3991269999998
 42
-0.002475999999999973
 10
187.0088269999999
 20
161.424953
 42
-0.00106400000000002
 10
189.615591
 20
165.702215
 42
-0.05129599999999997
 10
190.224552
 20
166.5
 42
-0.4551520000000032
 10
190.541519
 20
166.48797
 42
-0.1534919999999989
 10
190.73425
 20
165.996894
 42
-0.04195900000000006
 10
190.716254
 20
164.754179
 42
-0.01176299999999999
 10
190.479967
 20
162.824984
 42
0.08398799999999991
 10
190.630688
 20
156.032548
 42
0.1170329999999999
 10
193.115872
 20
150.508761
 42
0.1073379999999998
 10
198.02015
 20
146.368236
 42
0.06254899999999985
 10
205.25
 20
143.627374
 42
0.02910499999999993
 10
206.920575
 20
143.324703
 42
0.2471250000000017
 10
207.610458
 20
143.58714
 42
0.1701010000000008
 10
207.933892
 20
144.383534
 42
0.01305000000000001
 10
207.987183
 20
146.730948
 42
-0.02915299999999998
 10
208.0931089999999
 20
148.658816
 42
-0.009417000000000047
 10
208.4696759999999
 20
151.494723
 42
-0.009355000000000014
 10
209.00805
 20
154.63943
 42
-0.01036699999999992
 10
209.647711
 20
157.655344
 42
0.0333669999999999
 10
210.59879
 20
163.43764
 42
0.09753299999999999
 10
210.204587
 20
167.441568
 42
0.1054389999999998
 10
208.349364
 20
170.815928
 42
0.04290900000000002
 10
204.576233
 20
174.491045
 42
0.02729600000000001
 10
200.270673
 20
177.642813
 42
0.06796799999999999
 10
196.750161
 20
179.307047
 42
0.09009899999999987
 10
193.555928
 20
179.712147
 42
0.08255400000000013
  0
LWPOLYLINE
  5
5D
100
AcDbEntity
  8
0
  6
ByLayer
 62
  256
370
   -1
100
AcDbPolyline
 90
   66
 70
    1
 43
0
 10
121.5
 20
174.890321
 42
0.04128899999999999
 10
118.665012
 20
172.911393
 42
0.04241899999999993
 10
116.221412
 20
170.509814
 42
0.03728200000000004
 10
113.974485
 20
167.458677
 42
0.0216389999999999
 10
111.723873
 20
163.5
 10
108.648213
 20
157.5
 10
107.827323
 20
161.309731
 42
0.026128
 10
106.831646
 20
164.98633
 42
0.08135099999999998
 10
105.652552
 20
167.256368
 42
0.08671500000000028
 10
103.855771
 20
168.951836
 42
0.03233399999999997
 10
100.831451
 20
170.678436
 42
0.09173600000000019
 10
95.424671
 20
172.181475
 42
0.3172280000000006
 10
92.452343
 20
170.455124
 42
0.04860200000000008
 10
90.19725599999947
 20
163.9375379999994
 42
0.0009650000000000338
 10
82.04323099999965
 20
129.7370949999987
 42
0.002572000000000015
 10
74.77551700000006
 20
98.26905300000024
 42
0.01854100000000001
 10
71.91682400000002
 20
82.97252000000003
 42
0.03897200000000003
 10
71.27989699999999
 20
73.858604
 42
0.138889
 10
72.90369999999999
 20
68.29854899999999
 42
0.05791899999999997
 10
74.78191599999998
 20
65.956192
 42
0.05469100000000008
 10
77.18127099999998
 20
64.055497
 42
0.05029900000000002
 10
80.12434399999998
 20
62.59676100000001
 42
0.0369430000000001
 10
83.62084
 20
61.569351
 10
86.741681
 20
60.897826
 10
87.899992
 20
68.69891300000002
 42
-0.01247999999999993
 10
88.67494800000009
 20
73.15036399999985
 42
-0.002271000000000014
 10
90.35403800000017
 20
81.35494599999977
 42
-0.002444000000000054
 10
92.41049300000009
 20
90.94227500000002
 42
-0.002214999999999953
 10
94.62762399999997
 20
100.8285609999998
 10
100.196945
 20
125.157123
 10
106.914214
 20
136.850663
 42
-0.007029999999999985
 10
113.3140829999999
 20
147.637633
 42
-0.01245999999999997
 10
118.932816
 20
156.318283
 42
-0.007339999999999929
 10
123.723733
 20
163.11421
 42
-0.2399690000000013
 10
125.463086
 20
164
 42
-0.413964
 10
128.045325
 20
161.419962
 42
-0.03817600000000018
 10
127.29193
 20
151.455132
 42
-0.03895400000000007
 10
124.586147
 20
139.880573
 42
-0.05566199999999993
 10
120.301356
 20
130.252778
 42
-0.04798399999999992
 10
117.368282
 20
126.194535
 42
-0.02914400000000004
 10
113.200497
 20
121.981464
 42
-0.02915900000000004
 10
108.576901
 20
118.286472
 42
-0.04850499999999992
 10
104.25
 20
115.814841
 42
0.01603799999999998
 10
102.621731
 20
115.019984
 42
0.02347099999999998
 10
101.248437
 20
114.209546
 42
0.02049999999999993
 10
100.215001
 20
113.470099
 42
0.2311739999999986
 10
100
 20
113.029931
 42
0.1752809999999995
 10
100.675902
 20
111.161114
 42
0.03551099999999995
 10
103.158028
 20
108.575945
 42
0.03788499999999993
 10
106.162569
 20
106.248896
 42
0.08023100000000016
 10
108.840051
 20
105.04307
 42
0.1036439999999999
 10
113.814543
 20
104.761793
 42
0.07267700000000009
 10
119.19976
 20
106.39915
 42
0.05868499999999997
 10
124.900806
 20
109.953598
 42
0.03464699999999984
 10
130.810957
 20
115.393631
 42
0.03570899999999981
 10
135.127293
 20
120.664728
 42
0.04435999999999991
 10
138.308147
 20
126.142553
 42
0.0404109999999999
 10
140.676967
 20
132.500349
 42
0.023135
 10
142.541728
 20
140.478444
 42
0.03934899999999999
 10
143.640953
 20
150.9393259999999
 42
0.06009699999999994
 10
142.785328
 20
160.013803
 42
0.07220900000000002
 10
140.053915
 20
167.309593
 42
0.104578
 10
135.57883
 20
172.507671
 42
0.06734800000000005
 10
132.226891
 20
174.41402
 42
0.05379399999999999
 10
128.222902
 20
175.544311
 42
0.05663600000000007
 10
124.367405
 20
175.754634
 42
0.1175939999999996
  0
ENDSEC
  0
SECTION
  2
OBJECTS
  0
DICTIONARY
  5
C
330
0
100
AcDbDictionary
281
    1
  3
ACAD_GROUP
350
D
  0
DICTIONARY
  5
D
330
C
100
AcDbDictionary
281
    1
  0
ENDSEC
  0
EOF
