999
dxfrw 0.6.3
  0
SECTION
  2
HEADER
  9
$ACADVER
  1
AC1021
  9
$DWGCODEPAGE
  3
ANSI_1252
  9
$INSBASE
 10
0
 20
0
 30
0
  9
$EXTMIN
 10
-17.8125
 20
0
 30
0
  9
$EXTMAX
 10
606.1574718848327
 20
102.7433652305319
 30
0
  9
$LIMMIN
 10
0
 20
0
  9
$LIMMAX
 10
420
 20
297
  9
$ORTHOMODE
 70
    0
  9
$REGENMODE
 70
    1
  9
$FILLMODE
 70
    1
  9
$QTEXTMODE
 70
    0
  9
$MIRRTEXT
 70
    0
  9
$LTSCALE
 40
1
  9
$ATTMODE
 70
    0
  9
$TEXTSIZE
 40
2.5
  9
$TRACEWID
 40
15.68
  9
$TEXTSTYLE
  7
STANDARD
  9
$CLAYER
  8
0
  9
$CELTYPE
  6
BYLAYER
  9
$CECOLOR
 62
  256
  9
$CELTSCALE
 40
1
  9
$DISPSILH
 70
    0
  9
$DIMSCALE
 40
2.5
  9
$DIMASZ
 40
2.5
  9
$DIMEXO
 40
0.625
  9
$DIMDLI
 40
3.75
  9
$DIMRND
 40
0
  9
$DIMDLE
 40
0
  9
$DIMEXE
 40
1.25
  9
$DIMTP
 40
0
  9
$DIMTM
 40
0
  9
$DIMTXT
 40
2.5
  9
$DIMCEN
 40
2.5
  9
$DIMTSZ
 40
0
  9
$DIMTOL
 70
    0
  9
$DIMLIM
 70
    0
  9
$DIMTIH
 70
    0
  9
$DIMTOH
 70
    0
  9
$DIMSE1
 70
    0
  9
$DIMSE2
 70
    0
  9
$DIMTAD
 70
    1
  9
$DIMZIN
 70
    8
  9
$DIMBLK
  1

  9
$DIMASO
 70
    1
  9
$DIMSHO
 70
    1
  9
$DIMPOST
  1

  9
$DIMAPOST
  1

  9
$DIMALT
 70
    0
  9
$DIMALTD
 70
    3
  9
$DIMALTF
 40
0.03937
  9
$DIMLFAC
 40
1
  9
$DIMTOFL
 70
    1
  9
$DIMTVP
 40
0
  9
$DIMTIX
 70
    0
  9
$DIMSOXD
 70
    0
  9
$DIMSAH
 70
    0
  9
$DIMBLK1
  1

  9
$DIMBLK2
  1

  9
$DIMSTYLE
  2
Standard
  9
$DIMCLRD
 70
    0
  9
$DIMCLRE
 70
    0
  9
$DIMCLRT
 70
    0
  9
$DIMTFAC
 40
1
  9
$DIMGAP
 40
0.625
  9
$DIMJUST
 70
    0
  9
$DIMSD1
 70
    0
  9
$DIMSD2
 70
    0
  9
$DIMTOLJ
 70
    0
  9
$DIMTZIN
 70
    8
  9
$DIMALTZ
 70
    0
  9
$DIMALTTZ
 70
    0
  9
$DIMUPT
 70
    0
  9
$DIMDEC
 70
    2
  9
$DIMTDEC
 70
    2
  9
$DIMALTU
 70
    2
  9
$DIMALTTD
 70
    3
  9
$DIMTXSTY
  7
STANDARD
  9
$DIMAUNIT
 70
    0
  9
$DIMADEC
 70
    0
  9
$DIMALTRND
 40
0
  9
$DIMAZIN
 70
    0
  9
$DIMDSEP
 70
   44
  9
$DIMATFIT
 70
    3
  9
$DIMFRAC
 70
    0
  9
$DIMLDRBLK
  1
STANDARD
  9
$DIMLUNIT
 70
    2
  9
$DIMLWD
 70
   -2
  9
$DIMLWE
 70
   -2
  9
$DIMTMOVE
 70
    0
  9
$DIMFXL
 40
1
  9
$DIMFXLON
 70
    0
  9
$DIMJOGANG
 40
0.7854
  9
$DIMTFILL
 70
    0
  9
$DIMTFILLCLR
 70
    0
  9
$DIMARCSYM
 70
    0
  9
$DIMLTYPE
  6

  9
$DIMLTEX1
  6

  9
$DIMLTEX2
  6

  9
$LUNITS
 70
    2
  9
$LUPREC
 70
    4
  9
$SKETCHINC
 40
1
  9
$FILLETRAD
 40
0
  9
$AUNITS
 70
    0
  9
$AUPREC
 70
    2
  9
$MENU
  1
.
  9
$ELEVATION
 40
0
  9
$PELEVATION
 40
0
  9
$THICKNESS
 40
0
  9
$LIMCHECK
 70
    0
  9
$CHAMFERA
 40
0
  9
$CHAMFERB
 40
0
  9
$CHAMFERC
 40
0
  9
$CHAMFERD
 40
0
  9
$SKPOLY
 70
    0
  9
$USRTIMER
 70
    1
  9
$ANGBASE
 50
0
  9
$ANGDIR
 70
    0
  9
$PDMODE
 70
   34
  9
$PDSIZE
 40
0
  9
$PLINEWID
 40
0
  9
$SPLFRAME
 70
    0
  9
$SPLINETYPE
 70
    2
  9
$SPLINESEGS
 70
    8
  9
$HANDSEED
  5
20000
  9
$SURFTAB1
 70
    6
  9
$SURFTAB2
 70
    6
  9
$SURFTYPE
 70
    6
  9
$SURFU
 70
    6
  9
$SURFV
 70
    6
  9
$UCSBASE
  2

  9
$UCSNAME
  2

  9
$UCSORG
 10
0
 20
0
 30
0
  9
$UCSXDIR
 10
1
 20
0
 30
0
  9
$UCSYDIR
 10
0
 20
1
 30
0
  9
$UCSORTHOREF
  2

  9
$UCSORTHOVIEW
 70
    0
  9
$UCSORGTOP
 10
0
 20
0
 30
0
  9
$UCSORGBOTTOM
 10
0
 20
0
 30
0
  9
$UCSORGLEFT
 10
0
 20
0
 30
0
  9
$UCSORGRIGHT
 10
0
 20
0
 30
0
  9
$UCSORGFRONT
 10
0
 20
0
 30
0
  9
$UCSORGBACK
 10
0
 20
0
 30
0
  9
$PUCSBASE
  2

  9
$PUCSNAME
  2

  9
$PUCSORG
 10
0
 20
0
 30
0
  9
$PUCSXDIR
 10
1
 20
0
 30
0
  9
$PUCSYDIR
 10
0
 20
1
 30
0
  9
$PUCSORTHOREF
  2

  9
$PUCSORTHOVIEW
 70
    0
  9
$PUCSORGTOP
 10
0
 20
0
 30
0
  9
$PUCSORGBOTTOM
 10
0
 20
0
 30
0
  9
$PUCSORGLEFT
 10
0
 20
0
 30
0
  9
$PUCSORGRIGHT
 10
0
 20
0
 30
0
  9
$PUCSORGFRONT
 10
0
 20
0
 30
0
  9
$PUCSORGBACK
 10
0
 20
0
 30
0
  9
$USERI1
 70
    0
  9
$USERI2
 70
    0
  9
$USERI3
 70
    0
  9
$USERI4
 70
    0
  9
$USERI5
 70
    0
  9
$USERR1
 40
0
  9
$USERR2
 40
0
  9
$USERR3
 40
0
  9
$USERR4
 40
0
  9
$USERR5
 40
0
  9
$WORLDVIEW
 70
    1
  9
$SHADEDGE
 70
    3
  9
$SHADEDIF
 70
   70
  9
$TILEMODE
 70
    1
  9
$MAXACTVP
 70
   64
  9
$PINSBASE
 10
0
 20
0
 30
0
  9
$PLIMCHECK
 70
    0
  9
$PEXTMIN
 10
0
 20
0
 30
0
  9
$PEXTMAX
 10
0
 20
0
 30
0
  9
$GRIDMODE
 70
    1
  9
$SNAPSTYLE
 70
    0
  9
$PLIMMIN
 10
0
 20
0
  9
$PLIMMAX
 10
12
 20
9
  9
$UNITMODE
 70
    0
  9
$VISRETAIN
 70
    1
  9
$PLINEGEN
 70
    0
  9
$PSLTSCALE
 70
    1
  9
$TREEDEPTH
 70
 3020
  9
$CMLSTYLE
  2
Standard
  9
$CMLJUST
 70
    0
  9
$CMLSCALE
 40
20
  9
$PROXYGRAPHICS
 70
    1
  9
$MEASUREMENT
 70
    1
  9
$CELWEIGHT
370
   -1
  9
$ENDCAPS
280
    0
  9
$JOINSTYLE
280
    0
  9
$LWDISPLAY
290
    0
  9
$INSUNITS
 70
    0
  9
$HYPERLINKBASE
  1

  9
$STYLESHEET
  1

  9
$XEDIT
290
    1
  9
$CEPSNTYPE
380
    0
  9
$PSTYLEMODE
290
    1
  9
$EXTNAMES
290
    1
  9
$PSVPSCALE
 40
1
  9
$OLESTARTUP
290
    0
  9
$SORTENTS
280
  127
  9
$INDEXCTL
280
    0
  9
$HIDETEXT
280
    1
  9
$XCLIPFRAME
290
    0
  9
$HALOGAP
280
    0
  9
$OBSCOLOR
 70
  257
  9
$OBSLTYPE
280
    0
  9
$INTERSECTIONDISPLAY
280
    0
  9
$INTERSECTIONCOLOR
 70
  257
  9
$DIMASSOC
280
    1
  9
$PROJECTNAME
  1

  9
$CAMERADISPLAY
290
    0
  9
$LENSLENGTH
 40
50
  9
$CAMERAHEIGHT
 40
0
  9
$STEPSPERSEC
 40
2
  9
$STEPSIZE
 40
50
  9
$3DDWFPREC
 40
2
  9
$PSOLWIDTH
 40
5
  9
$PSOLHEIGHT
 40
80
  9
$LOFTANG1
 40
1.570796326794897
  9
$LOFTANG2
 40
1.570796326794897
  9
$LOFTMAG1
 40
0
  9
$LOFTMAG2
 40
0
  9
$LOFTPARAM
 70
    7
  9
$LOFTNORMALS
280
    1
  9
$LATITUDE
 40
1
  9
$LONGITUDE
 40
1
  9
$NORTHDIRECTION
 40
0
  9
$TIMEZONE
 70
-8000
  9
$LIGHTGLYPHDISPLAY
280
    1
  9
$TILEMODELIGHTSYNCH
280
    1
  9
$SOLIDHIST
280
    1
  9
$SHOWHIST
280
    1
  9
$DWFFRAME
280
    2
  9
$DGNFRAME
280
    0
  9
$REALWORLDSCALE
290
    1
  9
$INTERFERECOLOR
 62
    1
  9
$CSHADOW
280
    0
  9
$SHADOWPLANELOCATION
 40
0
  0
ENDSEC
  0
SECTION
  2
CLASSES
  0
ENDSEC
  0
SECTION
  2
TABLES
  0
TABLE
  2
VPORT
  5
8
330
0
100
AcDbSymbolTable
 70
    1
  0
VPORT
  5
31
330
2
100
AcDbSymbolTableRecord
100
AcDbViewportTableRecord
  2
*ACTIVE
 70
    0
 10
0
 20
0
 11
1
 21
1
 12
35.51038612919195
 22
20.8346368567707
 13
0
 23
0
 14
10
 24
10
 15
10
 25
10
 16
0
 26
0
 36
1
 17
0
 27
0
 37
0
 40
50.81962098171771
 41
2.03601108033241
 42
50
 43
0
 44
0
 50
0
 51
0
 71
    0
 72
  100
 73
    1
 74
    3
 75
    0
 76
    1
 77
    0
 78
    0
281
    0
 65
    1
110
0
120
0
130
0
111
1
121
0
131
0
112
0
122
1
132
0
 79
    0
146
0
348
10020
 60
    7
 61
    5
292
1
282
    1
141
0
142
0
 63
  250
421
3358443
  0
ENDTAB
  0
TABLE
  2
LTYPE
  5
5
330
0
100
AcDbSymbolTable
 70
    4
  0
LTYPE
  5
14
330
5
100
AcDbSymbolTableRecord
100
AcDbLinetypeTableRecord
  2
ByBlock
 70
    0
  3

 72
   65
 73
    0
 40
0
  0
LTYPE
  5
15
330
5
100
AcDbSymbolTableRecord
100
AcDbLinetypeTableRecord
  2
ByLayer
 70
    0
  3

 72
   65
 73
    0
 40
0
  0
LTYPE
  5
16
330
5
100
AcDbSymbolTableRecord
100
AcDbLinetypeTableRecord
  2
Continuous
 70
    0
  3
Solid line
 72
   65
 73
    0
 40
0
  0
LTYPE
  5
32
330
5
100
AcDbSymbolTableRecord
100
AcDbLinetypeTableRecord
  2
DOT
 70
    0
  3
Dot . . . . . . . . . . . . . . . . . . . . . .
 72
   65
 73
    2
 40
6.35
 49
0
 74
    0
 49
-6.35
 74
    0
  0
LTYPE
  5
33
330
5
100
AcDbSymbolTableRecord
100
AcDbLinetypeTableRecord
  2
DOTTINY
 70
    0
  3
Dot (.15x) .....................................
 72
   65
 73
    2
 40
0.9525
 49
0
 74
    0
 49
-0.9525
 74
    0
  0
LTYPE
  5
34
330
5
100
AcDbSymbolTableRecord
100
AcDbLinetypeTableRecord
  2
DOT2
 70
    0
  3
Dot (.5x) .....................................
 72
   65
 73
    2
 40
3.175
 49
0
 74
    0
 49
-3.175
 74
    0
  0
LTYPE
  5
35
330
5
100
AcDbSymbolTableRecord
100
AcDbLinetypeTableRecord
  2
DOTX2
 70
    0
  3
Dot (2x) .  .  .  .  .  .  .  .  .  .  .  .  .
 72
   65
 73
    2
 40
12.7
 49
0
 74
    0
 49
-12.7
 74
    0
  0
LTYPE
  5
36
330
5
100
AcDbSymbolTableRecord
100
AcDbLinetypeTableRecord
  2
DASHED
 70
    0
  3
Dashed _ _ _ _ _ _ _ _ _ _ _ _ _ _ _ _ _
 72
   65
 73
    2
 40
19.05
 49
12.7
 74
    0
 49
-6.35
 74
    0
  0
LTYPE
  5
37
330
5
100
AcDbSymbolTableRecord
100
AcDbLinetypeTableRecord
  2
DASHEDTINY
 70
    0
  3
Dashed (.15x) _ _ _ _ _ _ _ _ _ _ _ _ _ _ _ _ _
 72
   65
 73
    2
 40
2.8575
 49
1.905
 74
    0
 49
-0.9525
 74
    0
  0
LTYPE
  5
38
330
5
100
AcDbSymbolTableRecord
100
AcDbLinetypeTableRecord
  2
DASHED2
 70
    0
  3
Dashed (.5x) _ _ _ _ _ _ _ _ _ _ _ _ _ _ _ _ _
 72
   65
 73
    2
 40
9.524999999999999
 49
6.35
 74
    0
 49
-3.175
 74
    0
  0
LTYPE
  5
39
330
5
100
AcDbSymbolTableRecord
100
AcDbLinetypeTableRecord
  2
DASHEDX2
 70
    0
  3
Dashed (2x) ____  ____  ____  ____  ____  ___
 72
   65
 73
    2
 40
38.09999999999999
 49
25.4
 74
    0
 49
-12.7
 74
    0
  0
LTYPE
  5
3A
330
5
100
AcDbSymbolTableRecord
100
AcDbLinetypeTableRecord
  2
DASHDOT
 70
    0
  3
Dash dot __ . __ . __ . __ . __ . __ . __ . __
 72
   65
 73
    4
 40
25.4
 49
12.7
 74
    0
 49
-6.35
 74
    0
 49
0
 74
    0
 49
-6.35
 74
    0
  0
LTYPE
  5
3B
330
5
100
AcDbSymbolTableRecord
100
AcDbLinetypeTableRecord
  2
DASHDOTTINY
 70
    0
  3
Dash dot (.15x) _._._._._._._._._._._._._._._.
 72
   65
 73
    4
 40
3.81
 49
1.905
 74
    0
 49
-0.9525
 74
    0
 49
0
 74
    0
 49
-0.9525
 74
    0
  0
LTYPE
  5
3C
330
5
100
AcDbSymbolTableRecord
100
AcDbLinetypeTableRecord
  2
DASHDOT2
 70
    0
  3
Dash dot (.5x) _._._._._._._._._._._._._._._.
 72
   65
 73
    4
 40
12.7
 49
6.35
 74
    0
 49
-3.175
 74
    0
 49
0
 74
    0
 49
-3.175
 74
    0
  0
LTYPE
  5
3D
330
5
100
AcDbSymbolTableRecord
100
AcDbLinetypeTableRecord
  2
DASHDOTX2
 70
    0
  3
Dash dot (2x) ____  .  ____  .  ____  .  ___
 72
   65
 73
    4
 40
50.8
 49
25.4
 74
    0
 49
-12.7
 74
    0
 49
0
 74
    0
 49
-12.7
 74
    0
  0
LTYPE
  5
3E
330
5
100
AcDbSymbolTableRecord
100
AcDbLinetypeTableRecord
  2
DIVIDE
 70
    0
  3
Divide ____ . . ____ . . ____ . . ____ . . ____
 72
   65
 73
    6
 40
31.75
 49
12.7
 74
    0
 49
-6.35
 74
    0
 49
0
 74
    0
 49
-6.35
 74
    0
 49
0
 74
    0
 49
-6.35
 74
    0
  0
LTYPE
  5
3F
330
5
100
AcDbSymbolTableRecord
100
AcDbLinetypeTableRecord
  2
DIVIDETINY
 70
    0
  3
Divide (.15x) __..__..__..__..__..__..__..__.._
 72
   65
 73
    6
 40
4.7625
 49
1.905
 74
    0
 49
-0.9525
 74
    0
 49
0
 74
    0
 49
-0.9525
 74
    0
 49
0
 74
    0
 49
-0.9525
 74
    0
  0
LTYPE
  5
40
330
5
100
AcDbSymbolTableRecord
100
AcDbLinetypeTableRecord
  2
DIVIDE2
 70
    0
  3
Divide (.5x) __..__..__..__..__..__..__..__.._
 72
   65
 73
    6
 40
15.875
 49
6.35
 74
    0
 49
-3.175
 74
    0
 49
0
 74
    0
 49
-3.175
 74
    0
 49
0
 74
    0
 49
-3.175
 74
    0
  0
LTYPE
  5
41
330
5
100
AcDbSymbolTableRecord
100
AcDbLinetypeTableRecord
  2
DIVIDEX2
 70
    0
  3
Divide (2x) ________  .  .  ________  .  .  _
 72
   65
 73
    6
 40
63.5
 49
25.4
 74
    0
 49
-12.7
 74
    0
 49
0
 74
    0
 49
-12.7
 74
    0
 49
0
 74
    0
 49
-12.7
 74
    0
  0
LTYPE
  5
42
330
5
100
AcDbSymbolTableRecord
100
AcDbLinetypeTableRecord
  2
BORDER
 70
    0
  3
Border __ __ . __ __ . __ __ . __ __ . __ __ .
 72
   65
 73
    6
 40
44.45
 49
12.7
 74
    0
 49
-6.35
 74
    0
 49
12.7
 74
    0
 49
-6.35
 74
    0
 49
0
 74
    0
 49
-6.35
 74
    0
  0
LTYPE
  5
43
330
5
100
AcDbSymbolTableRecord
100
AcDbLinetypeTableRecord
  2
BORDERTINY
 70
    0
  3
Border (.15x) __.__.__.__.__.__.__.__.__.__.__.
 72
   65
 73
    6
 40
6.6675
 49
1.905
 74
    0
 49
-0.9525
 74
    0
 49
1.905
 74
    0
 49
-0.9525
 74
    0
 49
0
 74
    0
 49
-0.9525
 74
    0
  0
LTYPE
  5
44
330
5
100
AcDbSymbolTableRecord
100
AcDbLinetypeTableRecord
  2
BORDER2
 70
    0
  3
Border (.5x) __.__.__.__.__.__.__.__.__.__.__.
 72
   65
 73
    6
 40
22.225
 49
6.35
 74
    0
 49
-3.175
 74
    0
 49
6.35
 74
    0
 49
-3.175
 74
    0
 49
0
 74
    0
 49
-3.175
 74
    0
  0
LTYPE
  5
45
330
5
100
AcDbSymbolTableRecord
100
AcDbLinetypeTableRecord
  2
BORDERX2
 70
    0
  3
Border (2x) ____  ____  .  ____  ____  .  ___
 72
   65
 73
    6
 40
88.89999999999999
 49
25.4
 74
    0
 49
-12.7
 74
    0
 49
25.4
 74
    0
 49
-12.7
 74
    0
 49
0
 74
    0
 49
-12.7
 74
    0
  0
LTYPE
  5
46
330
5
100
AcDbSymbolTableRecord
100
AcDbLinetypeTableRecord
  2
CENTER
 70
    0
  3
Center ____ _ ____ _ ____ _ ____ _ ____ _ ____
 72
   65
 73
    4
 40
50.8
 49
31.75
 74
    0
 49
-6.35
 74
    0
 49
6.35
 74
    0
 49
-6.35
 74
    0
  0
LTYPE
  5
47
330
5
100
AcDbSymbolTableRecord
100
AcDbLinetypeTableRecord
  2
CENTERTINY
 70
    0
  3
Center (.15x) ___ _ ___ _ ___ _ ___ _ ___ _ ___
 72
   65
 73
    4
 40
7.62
 49
4.7625
 74
    0
 49
-0.9525
 74
    0
 49
0.9525
 74
    0
 49
-0.9525
 74
    0
  0
LTYPE
  5
48
330
5
100
AcDbSymbolTableRecord
100
AcDbLinetypeTableRecord
  2
CENTER2
 70
    0
  3
Center (.5x) ___ _ ___ _ ___ _ ___ _ ___ _ ___
 72
   65
 73
    4
 40
28.575
 49
19.05
 74
    0
 49
-3.175
 74
    0
 49
3.175
 74
    0
 49
-3.175
 74
    0
  0
LTYPE
  5
49
330
5
100
AcDbSymbolTableRecord
100
AcDbLinetypeTableRecord
  2
CENTERX2
 70
    0
  3
Center (2x) ________  __  ________  __  _____
 72
   65
 73
    4
 40
101.6
 49
63.5
 74
    0
 49
-12.7
 74
    0
 49
12.7
 74
    0
 49
-12.7
 74
    0
  0
ENDTAB
  0
TABLE
  2
LAYER
  5
2
330
0
100
AcDbSymbolTable
 70
    1
  0
LAYER
  5
10
330
2
100
AcDbSymbolTableRecord
100
AcDbLayerTableRecord
  2
0
 70
    0
 62
    7
  6
CONTINUOUS
370
    0
390
F
  0
LAYER
  5
4A
330
2
100
AcDbSymbolTableRecord
100
AcDbLayerTableRecord
  2
Cot
 70
    0
 62
    7
  6
CONTINUOUS
370
    0
390
F
  0
LAYER
  5
4B
330
2
100
AcDbSymbolTableRecord
100
AcDbLayerTableRecord
  2
Etiquette
 70
    0
 62
    7
  6
CONTINUOUS
370
    0
390
F
  0
ENDTAB
  0
TABLE
  2
STYLE
  5
3
330
0
100
AcDbSymbolTable
 70
    3
  0
STYLE
  5
4C
330
2
100
AcDbSymbolTableRecord
100
AcDbTextStyleTableRecord
  2
Standard
 70
    0
 40
0
 41
1
 50
0
 71
    0
 42
1
  3
txt
  4

  0
ENDTAB
  0
TABLE
  2
VIEW
  5
6
330
0
100
AcDbSymbolTable
 70
    0
  0
ENDTAB
  0
TABLE
  2
UCS
  5
7
330
0
100
AcDbSymbolTable
 70
    0
  0
ENDTAB
  0
TABLE
  2
APPID
  5
9
330
0
100
AcDbSymbolTable
 70
    1
  0
APPID
  5
12
330
9
100
AcDbSymbolTableRecord
100
AcDbRegAppTableRecord
  2
ACAD
 70
    0
  0
APPID
  5
4D
330
9
100
AcDbSymbolTableRecord
100
AcDbRegAppTableRecord
  2
LibreCad
 70
    0
  0
ENDTAB
  0
TABLE
  2
DIMSTYLE
  5
A
330
0
100
AcDbSymbolTable
 70
    1
100
AcDbDimStyleTable
 71
    1
  0
DIMSTYLE
105
4E
330
A
100
AcDbSymbolTableRecord
100
AcDbDimStyleTableRecord
  2
Standard
 70
    0
 40
2.5
 41
2.5
 42
0.625
 43
0.38
 44
1.25
 45
0
 46
0
 47
0
 48
0
 49
1
140
2.5
141
0.09
142
0
143
25.4
144
1
145
0
146
1
147
0.625
148
0
 71
    0
 72
    0
 73
    0
 74
    1
 75
    0
 76
    0
 77
    0
 78
    8
 79
    0
170
    0
171
    2
172
    0
173
    0
174
    0
175
    0
176
    0
177
    0
178
    0
179
    0
271
    2
272
    4
273
    2
274
    2
275
    0
276
    0
277
    2
278
   44
279
    0
280
    0
281
    0
282
    0
283
    1
284
    0
285
    0
286
    0
288
    0
289
    3
340
STANDARD
341

371
   -2
372
   -2
  0
ENDTAB
  0
TABLE
  2
BLOCK_RECORD
  5
1
330
0
100
AcDbSymbolTable
 70
    2
  0
BLOCK_RECORD
  5
1F
330
1
100
AcDbSymbolTableRecord
100
AcDbBlockTableRecord
  2
*Model_Space
 70
    0
280
    1
281
    0
  0
BLOCK_RECORD
  5
1E
330
1
100
AcDbSymbolTableRecord
100
AcDbBlockTableRecord
  2
*Paper_Space
 70
    0
280
    1
281
    0
  0
BLOCK_RECORD
  5
4F
330
1
100
AcDbSymbolTableRecord
100
AcDbBlockTableRecord
  2
*D2
 70
    0
280
    1
281
    0
  0
BLOCK_RECORD
  5
52
330
1
100
AcDbSymbolTableRecord
100
AcDbBlockTableRecord
  2
*D1
 70
    0
280
    1
281
    0
  0
BLOCK_RECORD
  5
55
330
1
100
AcDbSymbolTableRecord
100
AcDbBlockTableRecord
  2
couteau
 70
    0
280
    1
281
    0
  0
BLOCK_RECORD
  5
58
330
1
100
AcDbSymbolTableRecord
100
AcDbBlockTableRecord
  2
couteau-0
 70
    0
280
    1
281
    0
  0
BLOCK_RECORD
  5
5B
330
1
100
AcDbSymbolTableRecord
100
AcDbBlockTableRecord
  2
couteau-1
 70
    0
280
    1
281
    0
  0
BLOCK_RECORD
  5
5E
330
1
100
AcDbSymbolTableRecord
100
AcDbBlockTableRecord
  2
couteau-2
 70
    0
280
    1
281
    0
  0
BLOCK_RECORD
  5
61
330
1
100
AcDbSymbolTableRecord
100
AcDbBlockTableRecord
  2
couteau-3
 70
    0
280
    1
281
    0
  0
BLOCK_RECORD
  5
64
330
1
100
AcDbSymbolTableRecord
100
AcDbBlockTableRecord
  2
couteau-4
 70
    0
280
    1
281
    0
  0
ENDTAB
  0
ENDSEC
  0
SECTION
  2
BLOCKS
  0
BLOCK
  5
20
330
1F
100
AcDbEntity
  8
0
100
AcDbBlockBegin
  2
*Model_Space
 70
    0
 10
0
 20
0
 30
0
  3
*Model_Space
  1

  0
ENDBLK
  5
21
330
1F
100
AcDbEntity
  8
0
100
AcDbBlockEnd
  0
BLOCK
  5
1C
330
1B
100
AcDbEntity
  8
0
100
AcDbBlockBegin
  2
*Paper_Space
 70
    0
 10
0
 20
0
 30
0
  3
*Paper_Space
  1

  0
ENDBLK
  5
1D
330
1F
100
AcDbEntity
  8
0
100
AcDbBlockEnd
  0
BLOCK
  5
50
330
4F
100
AcDbEntity
  8
0
100
AcDbBlockBegin
  2
*D2
 70
    1
 10
0
 20
0
  3
*D2
  1

  0
LINE
  5
67
100
AcDbEntity
  8
Cot
  6
ByBlock
 62
    0
370
   -2
100
AcDbLine
 10
-1.5625
 20
23
 11
-13.125
 21
23
  0
LINE
  5
68
100
AcDbEntity
  8
Cot
  6
ByBlock
 62
    0
370
   -2
100
AcDbLine
 10
-1.5625
 20
1.913447427847464e-016
 11
-13.125
 21
1.60729583939187e-015
  0
LINE
  5
69
100
AcDbEntity
  8
Cot
  6
ByBlock
 62
    0
370
   -2
100
AcDbLine
 10
-10
 20
23
 11
-10
 21
1.224606353822377e-015
  0
SOLID
  5
6A
100
AcDbEntity
  8
Cot
  6
ByBlock
 62
    0
370
   -2
100
AcDbTrace
 10
-10
 20
23
 30
0
 11
-8.959288355567901
 21
16.75
 31
0
 12
-11.0407116444321
 22
16.75
 32
0
 13
-11.0407116444321
 23
16.75
 33
0
  0
SOLID
  5
6B
100
AcDbEntity
  8
Cot
  6
ByBlock
 62
    0
370
   -2
100
AcDbTrace
 10
-10
 20
1.224606353822377e-015
 30
0
 11
-11.0407116444321
 21
6.250000000000002
 31
0
 12
-8.959288355567899
 22
6.250000000000001
 32
0
 13
-8.959288355567899
 23
6.250000000000001
 33
0
  0
MTEXT
  5
6C
100
AcDbEntity
  8
Cot
  6
CONTINUOUS
 62
    0
370
   -2
100
AcDbMText
 10
-14.6875
 20
11.5
 30
0
 40
6.25
 41
7.638888888889277
 71
    5
 72
    1
  1
23
  7
STANDARD
210
0
220
0
230
1
 50
90
 73
    2
 44
1
  0
ENDBLK
  5
51
330
4F
100
AcDbEntity
  8
0
100
AcDbBlockEnd
  0
BLOCK
  5
53
330
52
100
AcDbEntity
  8
0
100
AcDbBlockBegin
  2
*D1
 70
    1
 10
0
 20
0
  3
*D1
  1

  0
LINE
  5
6D
100
AcDbEntity
  8
Cot
  6
ByBlock
 62
    0
370
   -2
100
AcDbLine
 10
9.567237139237322e-017
 20
24.5625
 11
6.199569666225785e-016
 21
33.125
  0
LINE
  5
6E
100
AcDbEntity
  8
Cot
  6
ByBlock
 62
    0
370
   -2
100
AcDbLine
 10
40
 20
24.5625
 11
40
 21
33.125
  0
LINE
  5
6F
100
AcDbEntity
  8
Cot
  6
ByBlock
 62
    0
370
   -2
100
AcDbLine
 10
4.28612223837832e-016
 20
30
 11
40
 21
30
  0
SOLID
  5
70
100
AcDbEntity
  8
Cot
  6
ByBlock
 62
    0
370
   -2
100
AcDbTrace
 10
4.28612223837832e-016
 20
30
 30
0
 11
6.250000000000001
 21
31.0407116444321
 31
0
 12
6.25
 22
28.9592883555679
 32
0
 13
6.25
 23
28.9592883555679
 33
0
  0
SOLID
  5
71
100
AcDbEntity
  8
Cot
  6
ByBlock
 62
    0
370
   -2
100
AcDbTrace
 10
40
 20
30
 30
0
 11
33.75
 21
28.9592883555679
 31
0
 12
33.75
 22
31.0407116444321
 32
0
 13
33.75
 23
31.0407116444321
 33
0
  0
MTEXT
  5
72
100
AcDbEntity
  8
Cot
  6
CONTINUOUS
 62
    0
370
   -2
100
AcDbMText
 10
20
 20
34.6875
 30
0
 40
6.25
 41
8.333333333333332
 71
    5
 72
    1
  1
40
  7
STANDARD
210
0
220
0
230
1
 50
0
 73
    2
 44
1
  0
ENDBLK
  5
54
330
52
100
AcDbEntity
  8
0
100
AcDbBlockEnd
  0
BLOCK
  5
56
330
55
100
AcDbEntity
  8
0
100
AcDbBlockBegin
  2
couteau
 70
    0
 10
0
 20
0
  3
couteau
  1

  0
LWPOLYLINE
  5
73
100
AcDbEntity
  8
0
  6
ByLayer
 62
  256
370
   -1
100
AcDbPolyline
 90
   70
 70
    1
 43
0
 10
493
 20
100.379606
 10
402.9205245661408
 20
98.03776458856993
 42
0.2017703853686475
 10
402.2137453417567
 20
97.71858096130796
 10
399.0000000000005
 20
94.25788499999987
 42
0.0005129999999999864
 10
397.1109149999984
 20
92.21944699999767
 42
0.0001279999999999602
 10
394.0312499999991
 20
88.88773599999877
 42
0.0001310000000000664
 10
390.5109369999982
 20
85.07534399999986
 42
0.000132000000000068
 10
387
 20
81.26908800000092
 10
378.8369264172753
 20
72.41996152394455
 42
-0.205486539643802
 10
377.8964074364446
 20
72.04924601325231
 10
244.6450429999916
 20
69.99602400003641
 42
0.0003349999999999561
 10
145.5991430000042
 20
68.41033800003072
 42
0.009922000000000004
 10
120.488091
 20
67.49281399999983
 42
0.03962
 10
108.506296
 20
65.858485
 42
0.2233000000000002
 10
103.516927
 20
62.032733
 42
0.08877100000000003
 10
102.207423
 20
57.802026
 42
0.1167069999999997
 10
102.646741
 20
53.79759800000001
 42
0.1092040000000001
 10
104.88327
 20
50.22378200000001
 42
0.07062600000000019
 10
108.2918027835508
 20
46.48728230273102
 10
112.744905
 20
45.015402
 10
247.622452
 20
53.471326
 10
382.1106407487612
 20
61.90283976800814
 42
0.1881561194237985
 10
382.7699662133463
 20
62.20887870876851
 10
394.5
 20
74.44564800000001
 10
406.2098847070081
 20
86.66139679887971
 42
-0.2011397294559295
 10
406.9192076241642
 20
86.96931612053436
 10
487.4588239999985
 20
87.98202199998195
 42
-7.700000000001534e-005
 10
553.9664940000117
 20
88.808097000001
 42
-0.003186999999999986
 10
568.2981470000001
 20
88.89255299999991
 42
-0.01401399999999998
 10
574.6003920000001
 20
88.71285000000006
 42
-0.7434919999999874
 10
574.785934
 20
87.940011
 42
-0.03566299999999993
 10
565.006950999999
 20
83.13789199999974
 42
-0.0054769999999999
 10
544.834883999999
 20
75.21569399999964
 42
-0.006593999999999976
 10
523.5974919999994
 20
67.46147399999978
 42
-0.0141850000000001
 10
506.9999999999998
 20
62.1718249999999
 42
-0.01617100000000015
 10
488.4172199999999
 20
57.47005699999988
 42
-0.01129100000000006
 10
467.1975629999995
 20
53.3253209999998
 42
-0.01134100000000007
 10
445.9982029999995
 20
50.172616
 42
-0.01737100000000009
 10
427.4999999999997
 20
48.49924299999998
 42
-0.0184529999999999
 10
415.081059
 20
48.268529
 42
-0.2293159999999995
 10
410.989805
 20
50.34244100000004
 42
-0.2613339999999993
 10
410.3871800000001
 20
54.63232399999995
 42
-0.02336300000000002
 10
414.974298
 20
64.94878199999978
 42
0.007823999999999888
 10
418.100066
 20
71.42858299999972
 42
0.05779299999999984
 10
419.172245
 20
74.681935
 42
0.2087400000000021
 10
418.831546
 20
76.290843
 42
0.2422149999999965
 10
417.453528
 20
77
 42
0.2627080000000004
 10
415.0023630000001
 20
75.61664600000003
 42
0.008935000000000009
 10
409.250573
 20
65.69363800000006
 42
0.01308600000000005
 10
404.074152
 20
55.78156500000003
 42
0.1194280000000003
 10
403.0318029999999
 20
51.062171
 42
0.2067310000000024
 10
404.765791
 20
47.26199799999993
 42
0.09493100000000025
 10
409.511932
 20
44.380053
 42
0.06144199999999999
 10
417.118563
 20
42.56940900000005
 42
0.02774599999999982
 10
427.371736
 20
41.99999999999997
 42
0.01959799999999983
 10
444.6588149999993
 20
42.67784300000005
 42
0.008358000000000074
 10
467.7080029999994
 20
44.87640399999987
 42
0.008402999999999954
 10
490.9421569999995
 20
47.88133899999997
 42
0.01723900000000004
 10
508.9999999999995
 20
51.16541699999993
 42
0.01156499999999983
 10
528.4643149999995
 20
55.87714199999982
 42
0.02048399999999997
 10
544.230916
 20
60.78184400000004
 42
0.0203419999999999
 10
559.6174179999998
 20
66.98515999999984
 42
0.01121899999999994
 10
577.9141599999994
 20
75.74121199999956
 42
0.00810300000000001
 10
595.5664009999998
 20
85.04341899999964
 42
0.05736800000000008
 10
603.4627359999999
 20
90.63084000000002
 42
0.1654310000000001
 10
606.051369
 20
95.23180599999998
 42
0.203587
 10
604.9995109999999
 20
100.000686
 42
0.2015199999999986
 10
601.548684
 20
102.136913
 42
0.03832200000000001
 10
594.0233490000001
 20
102.7401449999999
 42
0.007207999999999998
 10
577.7973680000009
 20
102.5611159999971
 42
0.0001360000000000144
  0
ENDBLK
  5
57
330
55
100
AcDbEntity
  8
0
100
AcDbBlockEnd
  0
BLOCK
  5
59
330
58
100
AcDbEntity
  8
0
100
AcDbBlockBegin
  2
couteau-0
 70
    0
 10
0
 20
0
  3
couteau-0
  1

  0
LWPOLYLINE
  5
74
100
AcDbEntity
  8
0
  6
ByLayer
 62
  256
370
   -1
100
AcDbPolyline
 90
   70
 70
    1
 43
0
 10
493
 20
100.379606
 10
402.9205245661408
 20
98.03776458856993
 42
0.2017703853686475
 10
402.2137453417567
 20
97.71858096130796
 10
399.0000000000005
 20
94.25788499999987
 42
0.0005129999999999864
 10
397.1109149999984
 20
92.21944699999767
 42
0.0001279999999999602
 10
394.0312499999991
 20
88.88773599999877
 42
0.0001310000000000664
 10
390.5109369999982
 20
85.07534399999986
 42
0.000132000000000068
 10
387
 20
81.26908800000092
 10
378.8369264172753
 20
72.41996152394455
 42
-0.205486539643802
 10
377.8964074364446
 20
72.04924601325231
 10
244.6450429999916
 20
69.99602400003641
 42
0.0003349999999999561
 10
145.5991430000042
 20
68.41033800003072
 42
0.009922000000000004
 10
120.488091
 20
67.49281399999983
 42
0.03962
 10
108.506296
 20
65.858485
 42
0.2233000000000002
 10
103.516927
 20
62.032733
 42
0.08877100000000003
 10
102.207423
 20
57.802026
 42
0.1167069999999997
 10
102.646741
 20
53.79759800000001
 42
0.1092040000000001
 10
104.88327
 20
50.22378200000001
 42
0.07062600000000019
 10
108.2918027835508
 20
46.48728230273102
 10
112.744905
 20
45.015402
 10
247.622452
 20
53.471326
 10
382.1106407487612
 20
61.90283976800814
 42
0.1881561194237985
 10
382.7699662133463
 20
62.20887870876851
 10
394.5
 20
74.44564800000001
 10
406.2098847070081
 20
86.66139679887971
 42
-0.2011397294559295
 10
406.9192076241642
 20
86.96931612053436
 10
487.4588239999985
 20
87.98202199998195
 42
-7.700000000001534e-005
 10
553.9664940000117
 20
88.808097000001
 42
-0.003186999999999986
 10
568.2981470000001
 20
88.89255299999991
 42
-0.01401399999999998
 10
574.6003920000001
 20
88.71285000000006
 42
-0.7434919999999874
 10
574.785934
 20
87.940011
 42
-0.03566299999999993
 10
565.006950999999
 20
83.13789199999974
 42
-0.0054769999999999
 10
544.834883999999
 20
75.21569399999964
 42
-0.006593999999999976
 10
523.5974919999994
 20
67.46147399999978
 42
-0.0141850000000001
 10
506.9999999999998
 20
62.1718249999999
 42
-0.01617100000000015
 10
488.4172199999999
 20
57.47005699999988
 42
-0.01129100000000006
 10
467.1975629999995
 20
53.3253209999998
 42
-0.01134100000000007
 10
445.9982029999995
 20
50.172616
 42
-0.01737100000000009
 10
427.4999999999997
 20
48.49924299999998
 42
-0.0184529999999999
 10
415.081059
 20
48.268529
 42
-0.2293159999999995
 10
410.989805
 20
50.34244100000004
 42
-0.2613339999999993
 10
410.3871800000001
 20
54.63232399999995
 42
-0.02336300000000002
 10
414.974298
 20
64.94878199999978
 42
0.007823999999999888
 10
418.100066
 20
71.42858299999972
 42
0.05779299999999984
 10
419.172245
 20
74.681935
 42
0.2087400000000021
 10
418.831546
 20
76.290843
 42
0.2422149999999965
 10
417.453528
 20
77
 42
0.2627080000000004
 10
415.0023630000001
 20
75.61664600000003
 42
0.008935000000000009
 10
409.250573
 20
65.69363800000006
 42
0.01308600000000005
 10
404.074152
 20
55.78156500000003
 42
0.1194280000000003
 10
403.0318029999999
 20
51.062171
 42
0.2067310000000024
 10
404.765791
 20
47.26199799999993
 42
0.09493100000000025
 10
409.511932
 20
44.380053
 42
0.06144199999999999
 10
417.118563
 20
42.56940900000005
 42
0.02774599999999982
 10
427.371736
 20
41.99999999999997
 42
0.01959799999999983
 10
444.6588149999993
 20
42.67784300000005
 42
0.008358000000000074
 10
467.7080029999994
 20
44.87640399999987
 42
0.008402999999999954
 10
490.9421569999995
 20
47.88133899999997
 42
0.01723900000000004
 10
508.9999999999995
 20
51.16541699999993
 42
0.01156499999999983
 10
528.4643149999995
 20
55.87714199999982
 42
0.02048399999999997
 10
544.230916
 20
60.78184400000004
 42
0.0203419999999999
 10
559.6174179999998
 20
66.98515999999984
 42
0.01121899999999994
 10
577.9141599999994
 20
75.74121199999956
 42
0.00810300000000001
 10
595.5664009999998
 20
85.04341899999964
 42
0.05736800000000008
 10
603.4627359999999
 20
90.63084000000002
 42
0.1654310000000001
 10
606.051369
 20
95.23180599999998
 42
0.203587
 10
604.9995109999999
 20
100.000686
 42
0.2015199999999986
 10
601.548684
 20
102.136913
 42
0.03832200000000001
 10
594.0233490000001
 20
102.7401449999999
 42
0.007207999999999998
 10
577.7973680000009
 20
102.5611159999971
 42
0.0001360000000000144
  0
ENDBLK
  5
5A
330
58
100
AcDbEntity
  8
0
100
AcDbBlockEnd
  0
BLOCK
  5
5C
330
5B
100
AcDbEntity
  8
0
100
AcDbBlockBegin
  2
couteau-1
 70
    0
 10
0
 20
0
  3
couteau-1
  1

  0
LWPOLYLINE
  5
75
100
AcDbEntity
  8
0
  6
ByLayer
 62
  256
370
   -1
100
AcDbPolyline
 90
   70
 70
    1
 43
0
 10
493
 20
100.379606
 10
402.9205245661408
 20
98.03776458856993
 42
0.2017703853686475
 10
402.2137453417567
 20
97.71858096130796
 10
399.0000000000005
 20
94.25788499999987
 42
0.0005129999999999864
 10
397.1109149999984
 20
92.21944699999767
 42
0.0001279999999999602
 10
394.0312499999991
 20
88.88773599999877
 42
0.0001310000000000664
 10
390.5109369999982
 20
85.07534399999986
 42
0.000132000000000068
 10
387
 20
81.26908800000092
 10
378.8369264172753
 20
72.41996152394455
 42
-0.205486539643802
 10
377.8964074364446
 20
72.04924601325231
 10
244.6450429999916
 20
69.99602400003641
 42
0.0003349999999999561
 10
145.5991430000042
 20
68.41033800003072
 42
0.009922000000000004
 10
120.488091
 20
67.49281399999983
 42
0.03962
 10
108.506296
 20
65.858485
 42
0.2233000000000002
 10
103.516927
 20
62.032733
 42
0.08877100000000003
 10
102.207423
 20
57.802026
 42
0.1167069999999997
 10
102.646741
 20
53.79759800000001
 42
0.1092040000000001
 10
104.88327
 20
50.22378200000001
 42
0.07062600000000019
 10
108.2918027835508
 20
46.48728230273102
 10
112.744905
 20
45.015402
 10
247.622452
 20
53.471326
 10
382.1106407487612
 20
61.90283976800814
 42
0.1881561194237985
 10
382.7699662133463
 20
62.20887870876851
 10
394.5
 20
74.44564800000001
 10
406.2098847070081
 20
86.66139679887971
 42
-0.2011397294559295
 10
406.9192076241642
 20
86.96931612053436
 10
487.4588239999985
 20
87.98202199998195
 42
-7.700000000001534e-005
 10
553.9664940000117
 20
88.808097000001
 42
-0.003186999999999986
 10
568.2981470000001
 20
88.89255299999991
 42
-0.01401399999999998
 10
574.6003920000001
 20
88.71285000000006
 42
-0.7434919999999874
 10
574.785934
 20
87.940011
 42
-0.03566299999999993
 10
565.006950999999
 20
83.13789199999974
 42
-0.0054769999999999
 10
544.834883999999
 20
75.21569399999964
 42
-0.006593999999999976
 10
523.5974919999994
 20
67.46147399999978
 42
-0.0141850000000001
 10
506.9999999999998
 20
62.1718249999999
 42
-0.01617100000000015
 10
488.4172199999999
 20
57.47005699999988
 42
-0.01129100000000006
 10
467.1975629999995
 20
53.3253209999998
 42
-0.01134100000000007
 10
445.9982029999995
 20
50.172616
 42
-0.01737100000000009
 10
427.4999999999997
 20
48.49924299999998
 42
-0.0184529999999999
 10
415.081059
 20
48.268529
 42
-0.2293159999999995
 10
410.989805
 20
50.34244100000004
 42
-0.2613339999999993
 10
410.3871800000001
 20
54.63232399999995
 42
-0.02336300000000002
 10
414.974298
 20
64.94878199999978
 42
0.007823999999999888
 10
418.100066
 20
71.42858299999972
 42
0.05779299999999984
 10
419.172245
 20
74.681935
 42
0.2087400000000021
 10
418.831546
 20
76.290843
 42
0.2422149999999965
 10
417.453528
 20
77
 42
0.2627080000000004
 10
415.0023630000001
 20
75.61664600000003
 42
0.008935000000000009
 10
409.250573
 20
65.69363800000006
 42
0.01308600000000005
 10
404.074152
 20
55.78156500000003
 42
0.1194280000000003
 10
403.0318029999999
 20
51.062171
 42
0.2067310000000024
 10
404.765791
 20
47.26199799999993
 42
0.09493100000000025
 10
409.511932
 20
44.380053
 42
0.06144199999999999
 10
417.118563
 20
42.56940900000005
 42
0.02774599999999982
 10
427.371736
 20
41.99999999999997
 42
0.01959799999999983
 10
444.6588149999993
 20
42.67784300000005
 42
0.008358000000000074
 10
467.7080029999994
 20
44.87640399999987
 42
0.008402999999999954
 10
490.9421569999995
 20
47.88133899999997
 42
0.01723900000000004
 10
508.9999999999995
 20
51.16541699999993
 42
0.01156499999999983
 10
528.4643149999995
 20
55.87714199999982
 42
0.02048399999999997
 10
544.230916
 20
60.78184400000004
 42
0.0203419999999999
 10
559.6174179999998
 20
66.98515999999984
 42
0.01121899999999994
 10
577.9141599999994
 20
75.74121199999956
 42
0.00810300000000001
 10
595.5664009999998
 20
85.04341899999964
 42
0.05736800000000008
 10
603.4627359999999
 20
90.63084000000002
 42
0.1654310000000001
 10
606.051369
 20
95.23180599999998
 42
0.203587
 10
604.9995109999999
 20
100.000686
 42
0.2015199999999986
 10
601.548684
 20
102.136913
 42
0.03832200000000001
 10
594.0233490000001
 20
102.7401449999999
 42
0.007207999999999998
 10
577.7973680000009
 20
102.5611159999971
 42
0.0001360000000000144
  0
ENDBLK
  5
5D
330
5B
100
AcDbEntity
  8
0
100
AcDbBlockEnd
  0
BLOCK
  5
5F
330
5E
100
AcDbEntity
  8
0
100
AcDbBlockBegin
  2
couteau-2
 70
    0
 10
0
 20
0
  3
couteau-2
  1

  0
LWPOLYLINE
  5
76
100
AcDbEntity
  8
0
  6
ByLayer
 62
  256
370
   -1
100
AcDbPolyline
 90
   70
 70
    1
 43
0
 10
493
 20
100.379606
 10
402.9205245661408
 20
98.03776458856993
 42
0.2017703853686475
 10
402.2137453417567
 20
97.71858096130796
 10
399.0000000000005
 20
94.25788499999987
 42
0.0005129999999999864
 10
397.1109149999984
 20
92.21944699999767
 42
0.0001279999999999602
 10
394.0312499999991
 20
88.88773599999877
 42
0.0001310000000000664
 10
390.5109369999982
 20
85.07534399999986
 42
0.000132000000000068
 10
387
 20
81.26908800000092
 10
378.8369264172753
 20
72.41996152394455
 42
-0.205486539643802
 10
377.8964074364446
 20
72.04924601325231
 10
244.6450429999916
 20
69.99602400003641
 42
0.0003349999999999561
 10
145.5991430000042
 20
68.41033800003072
 42
0.009922000000000004
 10
120.488091
 20
67.49281399999983
 42
0.03962
 10
108.506296
 20
65.858485
 42
0.2233000000000002
 10
103.516927
 20
62.032733
 42
0.08877100000000003
 10
102.207423
 20
57.802026
 42
0.1167069999999997
 10
102.646741
 20
53.79759800000001
 42
0.1092040000000001
 10
104.88327
 20
50.22378200000001
 42
0.07062600000000019
 10
108.2918027835508
 20
46.48728230273102
 10
112.744905
 20
45.015402
 10
247.622452
 20
53.471326
 10
382.1106407487612
 20
61.90283976800814
 42
0.1881561194237985
 10
382.7699662133463
 20
62.20887870876851
 10
394.5
 20
74.44564800000001
 10
406.2098847070081
 20
86.66139679887971
 42
-0.2011397294559295
 10
406.9192076241642
 20
86.96931612053436
 10
487.4588239999985
 20
87.98202199998195
 42
-7.700000000001534e-005
 10
553.9664940000117
 20
88.808097000001
 42
-0.003186999999999986
 10
568.2981470000001
 20
88.89255299999991
 42
-0.01401399999999998
 10
574.6003920000001
 20
88.71285000000006
 42
-0.7434919999999874
 10
574.785934
 20
87.940011
 42
-0.03566299999999993
 10
565.006950999999
 20
83.13789199999974
 42
-0.0054769999999999
 10
544.834883999999
 20
75.21569399999964
 42
-0.006593999999999976
 10
523.5974919999994
 20
67.46147399999978
 42
-0.0141850000000001
 10
506.9999999999998
 20
62.1718249999999
 42
-0.01617100000000015
 10
488.4172199999999
 20
57.47005699999988
 42
-0.01129100000000006
 10
467.1975629999995
 20
53.3253209999998
 42
-0.01134100000000007
 10
445.9982029999995
 20
50.172616
 42
-0.01737100000000009
 10
427.4999999999997
 20
48.49924299999998
 42
-0.0184529999999999
 10
415.081059
 20
48.268529
 42
-0.2293159999999995
 10
410.989805
 20
50.34244100000004
 42
-0.2613339999999993
 10
410.3871800000001
 20
54.63232399999995
 42
-0.02336300000000002
 10
414.974298
 20
64.94878199999978
 42
0.007823999999999888
 10
418.100066
 20
71.42858299999972
 42
0.05779299999999984
 10
419.172245
 20
74.681935
 42
0.2087400000000021
 10
418.831546
 20
76.290843
 42
0.2422149999999965
 10
417.453528
 20
77
 42
0.2627080000000004
 10
415.0023630000001
 20
75.61664600000003
 42
0.008935000000000009
 10
409.250573
 20
65.69363800000006
 42
0.01308600000000005
 10
404.074152
 20
55.78156500000003
 42
0.1194280000000003
 10
403.0318029999999
 20
51.062171
 42
0.2067310000000024
 10
404.765791
 20
47.26199799999993
 42
0.09493100000000025
 10
409.511932
 20
44.380053
 42
0.06144199999999999
 10
417.118563
 20
42.56940900000005
 42
0.02774599999999982
 10
427.371736
 20
41.99999999999997
 42
0.01959799999999983
 10
444.6588149999993
 20
42.67784300000005
 42
0.008358000000000074
 10
467.7080029999994
 20
44.87640399999987
 42
0.008402999999999954
 10
490.9421569999995
 20
47.88133899999997
 42
0.01723900000000004
 10
508.9999999999995
 20
51.16541699999993
 42
0.01156499999999983
 10
528.4643149999995
 20
55.87714199999982
 42
0.02048399999999997
 10
544.230916
 20
60.78184400000004
 42
0.0203419999999999
 10
559.6174179999998
 20
66.98515999999984
 42
0.01121899999999994
 10
577.9141599999994
 20
75.74121199999956
 42
0.00810300000000001
 10
595.5664009999998
 20
85.04341899999964
 42
0.05736800000000008
 10
603.4627359999999
 20
90.63084000000002
 42
0.1654310000000001
 10
606.051369
 20
95.23180599999998
 42
0.203587
 10
604.9995109999999
 20
100.000686
 42
0.2015199999999986
 10
601.548684
 20
102.136913
 42
0.03832200000000001
 10
594.0233490000001
 20
102.7401449999999
 42
0.007207999999999998
 10
577.7973680000009
 20
102.5611159999971
 42
0.0001360000000000144
  0
ENDBLK
  5
60
330
5E
100
AcDbEntity
  8
0
100
AcDbBlockEnd
  0
BLOCK
  5
62
330
61
100
AcDbEntity
  8
0
100
AcDbBlockBegin
  2
couteau-3
 70
    0
 10
0
 20
0
  3
couteau-3
  1

  0
LWPOLYLINE
  5
77
100
AcDbEntity
  8
0
  6
ByLayer
 62
  256
370
   -1
100
AcDbPolyline
 90
   70
 70
    1
 43
0
 10
493
 20
100.379606
 10
402.9205245661408
 20
98.03776458856993
 42
0.2017703853686475
 10
402.2137453417567
 20
97.71858096130796
 10
399.0000000000005
 20
94.25788499999987
 42
0.0005129999999999864
 10
397.1109149999984
 20
92.21944699999767
 42
0.0001279999999999602
 10
394.0312499999991
 20
88.88773599999877
 42
0.0001310000000000664
 10
390.5109369999982
 20
85.07534399999986
 42
0.000132000000000068
 10
387
 20
81.26908800000092
 10
378.8369264172753
 20
72.41996152394455
 42
-0.205486539643802
 10
377.8964074364446
 20
72.04924601325231
 10
244.6450429999916
 20
69.99602400003641
 42
0.0003349999999999561
 10
145.5991430000042
 20
68.41033800003072
 42
0.009922000000000004
 10
120.488091
 20
67.49281399999983
 42
0.03962
 10
108.506296
 20
65.858485
 42
0.2233000000000002
 10
103.516927
 20
62.032733
 42
0.08877100000000003
 10
102.207423
 20
57.802026
 42
0.1167069999999997
 10
102.646741
 20
53.79759800000001
 42
0.1092040000000001
 10
104.88327
 20
50.22378200000001
 42
0.07062600000000019
 10
108.2918027835508
 20
46.48728230273102
 10
112.744905
 20
45.015402
 10
247.622452
 20
53.471326
 10
382.1106407487612
 20
61.90283976800814
 42
0.1881561194237985
 10
382.7699662133463
 20
62.20887870876851
 10
394.5
 20
74.44564800000001
 10
406.2098847070081
 20
86.66139679887971
 42
-0.2011397294559295
 10
406.9192076241642
 20
86.96931612053436
 10
487.4588239999985
 20
87.98202199998195
 42
-7.700000000001534e-005
 10
553.9664940000117
 20
88.808097000001
 42
-0.003186999999999986
 10
568.2981470000001
 20
88.89255299999991
 42
-0.01401399999999998
 10
574.6003920000001
 20
88.71285000000006
 42
-0.7434919999999874
 10
574.785934
 20
87.940011
 42
-0.03566299999999993
 10
565.006950999999
 20
83.13789199999974
 42
-0.0054769999999999
 10
544.834883999999
 20
75.21569399999964
 42
-0.006593999999999976
 10
523.5974919999994
 20
67.46147399999978
 42
-0.0141850000000001
 10
506.9999999999998
 20
62.1718249999999
 42
-0.01617100000000015
 10
488.4172199999999
 20
57.47005699999988
 42
-0.01129100000000006
 10
467.1975629999995
 20
53.3253209999998
 42
-0.01134100000000007
 10
445.9982029999995
 20
50.172616
 42
-0.01737100000000009
 10
427.4999999999997
 20
48.49924299999998
 42
-0.0184529999999999
 10
415.081059
 20
48.268529
 42
-0.2293159999999995
 10
410.989805
 20
50.34244100000004
 42
-0.2613339999999993
 10
410.3871800000001
 20
54.63232399999995
 42
-0.02336300000000002
 10
414.974298
 20
64.94878199999978
 42
0.007823999999999888
 10
418.100066
 20
71.42858299999972
 42
0.05779299999999984
 10
419.172245
 20
74.681935
 42
0.2087400000000021
 10
418.831546
 20
76.290843
 42
0.2422149999999965
 10
417.453528
 20
77
 42
0.2627080000000004
 10
415.0023630000001
 20
75.61664600000003
 42
0.008935000000000009
 10
409.250573
 20
65.69363800000006
 42
0.01308600000000005
 10
404.074152
 20
55.78156500000003
 42
0.1194280000000003
 10
403.0318029999999
 20
51.062171
 42
0.2067310000000024
 10
404.765791
 20
47.26199799999993
 42
0.09493100000000025
 10
409.511932
 20
44.380053
 42
0.06144199999999999
 10
417.118563
 20
42.56940900000005
 42
0.02774599999999982
 10
427.371736
 20
41.99999999999997
 42
0.01959799999999983
 10
444.6588149999993
 20
42.67784300000005
 42
0.008358000000000074
 10
467.7080029999994
 20
44.87640399999987
 42
0.008402999999999954
 10
490.9421569999995
 20
47.88133899999997
 42
0.01723900000000004
 10
508.9999999999995
 20
51.16541699999993
 42
0.01156499999999983
 10
528.4643149999995
 20
55.87714199999982
 42
0.02048399999999997
 10
544.230916
 20
60.78184400000004
 42
0.0203419999999999
 10
559.6174179999998
 20
66.98515999999984
 42
0.01121899999999994
 10
577.9141599999994
 20
75.74121199999956
 42
0.00810300000000001
 10
595.5664009999998
 20
85.04341899999964
 42
0.05736800000000008
 10
603.4627359999999
 20
90.63084000000002
 42
0.1654310000000001
 10
606.051369
 20
95.23180599999998
 42
0.203587
 10
604.9995109999999
 20
100.000686
 42
0.2015199999999986
 10
601.548684
 20
102.136913
 42
0.03832200000000001
 10
594.0233490000001
 20
102.7401449999999
 42
0.007207999999999998
 10
577.7973680000009
 20
102.5611159999971
 42
0.0001360000000000144
  0
ENDBLK
  5
63
330
61
100
AcDbEntity
  8
0
100
AcDbBlockEnd
  0
BLOCK
  5
65
330
64
100
AcDbEntity
  8
0
100
AcDbBlockBegin
  2
couteau-4
 70
    0
 10
0
 20
0
  3
couteau-4
  1

  0
LWPOLYLINE
  5
78
100
AcDbEntity
  8
0
  6
ByLayer
 62
  256
370
   -1
100
AcDbPolyline
 90
   70
 70
    1
 43
0
 10
493
 20
100.379606
 10
402.9205245661408
 20
98.03776458856993
 42
0.2017703853686475
 10
402.2137453417567
 20
97.71858096130796
 10
399.0000000000005
 20
94.25788499999987
 42
0.0005129999999999864
 10
397.1109149999984
 20
92.21944699999767
 42
0.0001279999999999602
 10
394.0312499999991
 20
88.88773599999877
 42
0.0001310000000000664
 10
390.5109369999982
 20
85.07534399999986
 42
0.000132000000000068
 10
387
 20
81.26908800000092
 10
378.8369264172753
 20
72.41996152394455
 42
-0.205486539643802
 10
377.8964074364446
 20
72.04924601325231
 10
244.6450429999916
 20
69.99602400003641
 42
0.0003349999999999561
 10
145.5991430000042
 20
68.41033800003072
 42
0.009922000000000004
 10
120.488091
 20
67.49281399999983
 42
0.03962
 10
108.506296
 20
65.858485
 42
0.2233000000000002
 10
103.516927
 20
62.032733
 42
0.08877100000000003
 10
102.207423
 20
57.802026
 42
0.1167069999999997
 10
102.646741
 20
53.79759800000001
 42
0.1092040000000001
 10
104.88327
 20
50.22378200000001
 42
0.07062600000000019
 10
108.2918027835508
 20
46.48728230273102
 10
112.744905
 20
45.015402
 10
247.622452
 20
53.471326
 10
382.1106407487612
 20
61.90283976800814
 42
0.1881561194237985
 10
382.7699662133463
 20
62.20887870876851
 10
394.5
 20
74.44564800000001
 10
406.2098847070081
 20
86.66139679887971
 42
-0.2011397294559295
 10
406.9192076241642
 20
86.96931612053436
 10
487.4588239999985
 20
87.98202199998195
 42
-7.700000000001534e-005
 10
553.9664940000117
 20
88.808097000001
 42
-0.003186999999999986
 10
568.2981470000001
 20
88.89255299999991
 42
-0.01401399999999998
 10
574.6003920000001
 20
88.71285000000006
 42
-0.7434919999999874
 10
574.785934
 20
87.940011
 42
-0.03566299999999993
 10
565.006950999999
 20
83.13789199999974
 42
-0.0054769999999999
 10
544.834883999999
 20
75.21569399999964
 42
-0.006593999999999976
 10
523.5974919999994
 20
67.46147399999978
 42
-0.0141850000000001
 10
506.9999999999998
 20
62.1718249999999
 42
-0.01617100000000015
 10
488.4172199999999
 20
57.47005699999988
 42
-0.01129100000000006
 10
467.1975629999995
 20
53.3253209999998
 42
-0.01134100000000007
 10
445.9982029999995
 20
50.172616
 42
-0.01737100000000009
 10
427.4999999999997
 20
48.49924299999998
 42
-0.0184529999999999
 10
415.081059
 20
48.268529
 42
-0.2293159999999995
 10
410.989805
 20
50.34244100000004
 42
-0.2613339999999993
 10
410.3871800000001
 20
54.63232399999995
 42
-0.02336300000000002
 10
414.974298
 20
64.94878199999978
 42
0.007823999999999888
 10
418.100066
 20
71.42858299999972
 42
0.05779299999999984
 10
419.172245
 20
74.681935
 42
0.2087400000000021
 10
418.831546
 20
76.290843
 42
0.2422149999999965
 10
417.453528
 20
77
 42
0.2627080000000004
 10
415.0023630000001
 20
75.61664600000003
 42
0.008935000000000009
 10
409.250573
 20
65.69363800000006
 42
0.01308600000000005
 10
404.074152
 20
55.78156500000003
 42
0.1194280000000003
 10
403.0318029999999
 20
51.062171
 42
0.2067310000000024
 10
404.765791
 20
47.26199799999993
 42
0.09493100000000025
 10
409.511932
 20
44.380053
 42
0.06144199999999999
 10
417.118563
 20
42.56940900000005
 42
0.02774599999999982
 10
427.371736
 20
41.99999999999997
 42
0.01959799999999983
 10
444.6588149999993
 20
42.67784300000005
 42
0.008358000000000074
 10
467.7080029999994
 20
44.87640399999987
 42
0.008402999999999954
 10
490.9421569999995
 20
47.88133899999997
 42
0.01723900000000004
 10
508.9999999999995
 20
51.16541699999993
 42
0.01156499999999983
 10
528.4643149999995
 20
55.87714199999982
 42
0.02048399999999997
 10
544.230916
 20
60.78184400000004
 42
0.0203419999999999
 10
559.6174179999998
 20
66.98515999999984
 42
0.01121899999999994
 10
577.9141599999994
 20
75.74121199999956
 42
0.00810300000000001
 10
595.5664009999998
 20
85.04341899999964
 42
0.05736800000000008
 10
603.4627359999999
 20
90.63084000000002
 42
0.1654310000000001
 10
606.051369
 20
95.23180599999998
 42
0.203587
 10
604.9995109999999
 20
100.000686
 42
0.2015199999999986
 10
601.548684
 20
102.136913
 42
0.03832200000000001
 10
594.0233490000001
 20
102.7401449999999
 42
0.007207999999999998
 10
577.7973680000009
 20
102.5611159999971
 42
0.0001360000000000144
  0
ENDBLK
  5
66
330
64
100
AcDbEntity
  8
0
100
AcDbBlockEnd
  0
ENDSEC
  0
SECTION
  2
ENTITIES
  0
LWPOLYLINE
  5
79
100
AcDbEntity
  8
0
  6
ByLayer
 62
  256
370
   -1
100
AcDbPolyline
 90
   68
 70
    1
 43
0
 10
23.63562282
 20
20.45984418
 42
0.05479799999999996
 10
22.75735818
 20
20.27895035999999
 42
0.05754600000000001
 10
21.95472618
 20
19.91319570000001
 42
0.06099400000000001
 10
21.29819124
 20
19.39903152
 42
0.07905300000000007
 10
20.8502991
 20
18.78059022
 42
0.05775399999999997
 10
20.71616148
 20
18.4172343
 42
0.03578200000000007
 10
20.64057299999999
 20
17.96808528
 42
0.02739899999999989
 10
20.61748308
 20
17.39703240000001
 42
0.01246500000000004
 10
20.64685853999999
 20
16.65000000000001
 42
0.007541000000000034
 10
20.71906583999998
 20
15.74150556000001
 42
0.01799599999999997
 10
20.80704474
 20
15.07056186000001
 42
0.02408200000000002
 10
20.91767172
 20
14.56281858
 42
0.04828300000000007
 10
21.06181326
 20
14.17891086000001
 42
0.09840899999999972
 10
21.56054034
 20
13.52538090000001
 42
0.07326699999999972
 10
22.32308874
 20
13.02960480000001
 42
0.06614100000000003
 10
23.27574306
 20
12.73687362000001
 42
0.05575400000000011
 10
24.32999999999999
 20
12.67921266
 42
0.03546299999999987
 10
25.03285656
 20
12.76942212
 42
0.04368299999999985
 10
25.66678068
 20
12.95573502
 42
0.04608899999999972
 10
26.22997469999999
 20
13.23848142
 42
0.04832000000000015
 10
26.72226312
 20
13.61580552
 42
0.03200999999999993
 10
27.05138195999999
 20
13.96467606
 42
0.07004099999999996
 10
27.24373937999999
 20
14.27672094
 42
0.09785900000000003
 10
27.30567149999999
 20
14.55700104
 42
0.1291539999999989
 10
27.24512856
 20
14.81041716
 42
0.1080979999999998
 10
27.14267412
 20
14.93040054
 42
0.08988999999999937
 10
26.9927202
 20
15.00645504
 42
0.06802599999999996
 10
26.78874246
 20
15.03816792
 42
0.03277499999999995
 10
26.52398274
 20
15.02568
 42
0.02543500000000003
 10
26.27142222
 20
14.98401012
 42
0.09001899999999997
 10
26.12030448
 20
14.92119732
 42
0.06547800000000019
 10
25.9770291
 20
14.79947304
 42
0.009370000000000031
 10
25.72346123999999
 20
14.50862933999999
 42
-0.0458650000000001
 10
25.42382568
 20
14.21171489999999
 42
-0.06098000000000002
 10
25.1006946
 20
14.00579802
 42
-0.05844399999999998
 10
24.72654809999999
 20
13.87814508
 42
-0.03789999999999988
 10
24.27311279999999
 20
13.81596516000001
 42
-0.01344199999999976
 10
24.0079179
 20
13.80704226
 42
-0.03091799999999995
 10
23.80863942
 20
13.81802682
 42
-0.03364199999999983
 10
23.62267446
 20
13.85266308
 42
-0.01894300000000003
 10
23.40252168
 20
13.9181877
 42
-0.07604600000000004
 10
22.80281418
 20
14.22961266
 42
-0.1210760000000001
 10
22.43274588
 20
14.6698173
 42
-0.07875400000000012
 10
22.21522338
 20
15.37079196000001
 42
-0.01872399999999996
 10
22.08517398
 20
16.59000000000001
 42
-0.01269800000000001
 10
22.05403379999999
 20
17.30662188
 42
-0.03272600000000003
 10
22.07856876
 20
17.82387978
 42
-0.04589900000000001
 10
22.15851168
 20
18.20921562
 42
-0.07924699999999994
 10
22.30189841999999
 20
18.50270106
 42
-0.06571799999999996
 10
22.63877874
 20
18.86879286
 42
-0.06586099999999998
 10
23.05888404
 20
19.13461218
 42
-0.06198699999999997
 10
23.55672024
 20
19.29342473999999
 42
-0.04832499999999999
 10
24.12286182
 20
19.34360819999999
 42
-0.0449729999999999
 10
24.53675502
 20
19.30289532
 42
-0.05508200000000005
 10
24.90808776
 20
19.18884624
 42
-0.05474599999999998
 10
25.24734414
 20
18.99575958
 42
-0.04362100000000001
 10
25.56580337999999
 20
18.71981646
 42
0.01229200000000001
 10
25.75569036
 20
18.53324316
 42
0.08090999999999957
 10
25.86603936
 20
18.45927102
 42
0.09032400000000107
 10
25.98914322
 20
18.42797904
 42
0.01719199999999996
 10
26.22113142
 20
18.42
 42
0.102566
 10
26.78035925999999
 20
18.53593476
 42
0.2794199999999985
 10
27.00494766
 20
18.85251396
 42
0.1920780000000003
 10
26.85917118
 20
19.31162106
 42
0.05804500000000001
 10
26.32289724
 20
19.82939574
 42
0.05524299999999997
 10
25.76824284
 20
20.1630147
 42
0.05021799999999998
 10
25.13610372
 20
20.38009518
 42
0.04625500000000003
 10
24.42513954
 20
20.47883153999999
 42
0.034812
  0
LWPOLYLINE
  5
7A
100
AcDbEntity
  8
0
  6
ByLayer
 62
  256
370
   -1
100
AcDbPolyline
 90
   88
 70
    1
 43
0
 10
15.67251762
 20
19.83239406
 42
0.02690799999999998
 10
15.28843932
 20
19.72299888
 42
0.033492
 10
14.94635886
 20
19.57907885999999
 42
0.03467299999999988
 10
14.63642508000001
 20
19.39559766
 42
0.03278199999999999
 10
14.34862374
 20
19.1678778
 42
0.04983699999999995
 10
13.860066
 20
18.62881308
 42
0.1610130000000002
 10
13.71114624
 20
18.17550708
 42
0.2754769999999994
 10
13.89039546
 20
17.87612988
 42
0.1240520000000003
 10
14.35126242
 20
17.76
 42
0.0350330000000001
 10
14.60117508
 20
17.77753182
 42
0.1126710000000011
 10
14.75599656
 20
17.83659833999999
 42
0.06902199999999985
 10
14.90874197999998
 20
17.97238469999999
 42
0.007844000000000044
 10
15.20373839999999
 20
18.32937803999999
 42
-0.05370800000000006
 10
15.42257418
 20
18.54960918
 42
-0.06904500000000019
 10
15.66667266
 20
18.69705708
 42
-0.0634399999999999
 10
15.9580395
 20
18.7804662
 42
-0.03727
 10
16.32
 20
18.80860932
 42
-0.06243199999999998
 10
16.84530234
 20
18.74440943999999
 42
-0.09669599999999992
 10
17.2576197
 20
18.55074774
 42
-0.1082490000000001
 10
17.53587798
 20
18.2355516
 42
-0.09517900000000011
 10
17.6732244
 20
17.818008
 42
-0.1168570000000002
 10
17.6301591
 20
17.40801714
 42
-0.1104080000000001
 10
17.40779088
 20
17.0511504
 42
-0.09120199999999994
 10
17.0124339
 20
16.77380958
 42
-0.0562490000000001
 10
16.47113112
 20
16.5959598
 42
0.03285400000000004
 10
16.15488636
 20
16.5081804
 42
0.09825199999999981
 10
15.96238614
 20
16.39479252
 42
0.1473739999999982
 10
15.8714688
 20
16.2464919
 42
0.1141729999999996
 10
15.86576418
 20
16.05617898
 42
0.06230700000000001
 10
15.92917116
 20
15.86601972
 42
0.1258479999999975
 10
16.02982758
 20
15.74570778000001
 42
0.1124690000000002
 10
16.18430826
 20
15.680442
 42
0.04396399999999982
 10
16.41634596
 20
15.66000000000001
 42
-0.05403000000000003
 10
17.04886476
 20
15.59145
 42
-0.09128299999999998
 10
17.53895556
 20
15.38541354000001
 42
-0.1082390000000002
 10
17.86853832
 20
15.04898742
 42
-0.1030210000000001
 10
18.03469092
 20
14.5996326
 42
-0.1253549999999998
 10
17.97871386
 20
14.0448504
 42
-0.117801
 10
17.6642697
 20
13.56957468
 42
-0.1053209999999999
 10
17.13440616
 20
13.25057598
 42
-0.08368900000000012
 10
16.47410994
 20
13.14058614
 42
-0.05981599999999998
 10
16.18467449999999
 20
13.17590232
 42
-0.04592499999999988
 10
15.88338702
 20
13.2800079
 42
-0.04505899999999989
 10
15.5998947
 20
13.44027402
 42
-0.05148100000000001
 10
15.36322998
 20
13.6426524
 42
0.02407499999999999
 10
15.2290317
 20
13.77076254
 42
0.09259400000000051
 10
15.1298976
 20
13.82876568
 42
0.07503000000000011
 10
15.00618504
 20
13.85319354
 42
0.01250600000000002
 10
14.76322998
 20
13.85809182
 42
0.02561900000000001
 10
14.48416146
 20
13.84242564
 42
0.08571699999999999
 10
14.30856534
 20
13.79225124
 42
0.1175430000000004
 10
14.19100764
 20
13.6965336
 42
0.07265499999999986
 10
14.1038439
 20
13.5401103
 42
0.08963700000000017
 10
14.0754579
 20
13.38802716
 42
0.09905299999999982
 10
14.10394482
 20
13.24127646
 42
0.0684869999999999
 10
14.1991449
 20
13.077279
 42
0.02266699999999993
 10
14.3805633
 20
12.86537382
 42
0.07570400000000008
 10
14.91163854
 20
12.44780922
 42
0.06426000000000033
 10
15.57305544
 20
12.1783665
 42
0.06046700000000017
 10
16.32027834
 20
12.07480739999999
 42
0.05349800000000036
 10
17.10326423999999
 20
12.14544054
 42
0.05751899999999996
 10
17.96970258
 20
12.4246779
 42
0.07547500000000017
 10
18.66532956
 20
12.87779766
 42
0.08434299999999977
 10
19.13918375999999
 20
13.47041034
 42
0.09738699999999996
 10
19.36092192
 20
14.15778426
 42
0.05799700000000012
 10
19.36202646000001
 20
14.7039702
 42
0.06996400000000015
 10
19.23344952
 20
15.20017896
 42
0.07264299999999994
 10
18.97856982
 20
15.6270513
 42
0.06971100000000009
 10
18.60908886
 20
15.97008198
 42
0.004546999999999986
 10
18.48114204
 20
16.0576152
 42
0.005890999999999984
 10
18.36215052
 20
16.13542584
 42
0.004518000000000007
 10
18.2613108
 20
16.19840970000001
 42
0.05165799999999952
 10
18.21908886
 20
16.21859982
 42
-0.4656510000000337
 10
18.20974674
 20
16.24369398
 42
-0.03668799999999992
 10
18.25475046
 20
16.3111206
 42
-0.02974799999999998
 10
18.3321018
 20
16.39907136
 42
-0.01577400000000001
 10
18.43750842
 20
16.49893662
 42
0.03887300000000001
 10
18.67582884
 20
16.74657641999999
 42
0.05430199999999995
 10
18.84411366
 20
17.00342316
 42
0.05535800000000034
 10
18.95096802
 20
17.28651618
 42
0.04257999999999992
 10
19.00532994
 20
17.6125686
 42
0.09141200000000006
 10
18.93484428
 20
18.2997252
 42
0.09078799999999998
 10
18.62398242
 20
18.91840434
 42
0.08555000000000008
 10
18.09495714
 20
19.41463067999999
 42
0.07036599999999991
 10
17.39428308
 20
19.74640721999999
 42
0.03701799999999998
 10
16.9888821
 20
19.8403587
 42
0.02596299999999994
 10
16.52249106
 20
19.8880083
 42
0.02618499999999999
 10
16.06124412
 20
19.88687478
 42
0.04223999999999996
  0
LWPOLYLINE
  5
7B
100
AcDbEntity
  8
0
  6
ByLayer
 62
  256
370
   -1
100
AcDbPolyline
 90
   44
 70
    1
 43
0
 10
8.880000000000001
 20
19.28234406
 42
0.04214299999999989
 10
8.70518268
 20
19.23499584
 42
0.05845500000000013
 10
8.560256580000001
 20
19.16219472000001
 42
0.06358599999999978
 10
8.445325800000001
 20
19.0635501
 42
0.06440299999999996
 10
8.359443479999999
 20
18.93958596
 42
0.033199
 10
8.116455479999786
 20
18.38185457999987
 42
0.0006200000000000386
 10
7.041674520000015
 20
15.37471895999852
 42
0.0002589999999999679
 10
5.923822199999849
 20
12.22964393999922
 42
0.08545399999999979
 10
5.879999999999999
 20
11.97510684
 42
0.131719
 10
5.954004719999997
 20
11.69906172
 42
0.1160400000000002
 10
6.158751719999998
 20
11.48143176
 42
0.111733
 10
6.44613768
 20
11.3725035
 42
0.1151380000000001
 10
6.749061779999999
 20
11.39969034
 42
0.08063299999999962
 10
6.942902219999999
 20
11.50053006
 42
0.08385099999999995
 10
7.091886120000001
 20
11.6563806
 42
0.05386599999999989
 10
7.225509539999998
 20
11.90814792
 42
0.01468199999999985
 10
7.380499319999998
 20
12.33149867999999
 42
-0.02413299999999991
 10
7.549426679999998
 20
12.76723464
 42
-0.08623700000000011
 10
7.715140799999999
 20
13.01465334
 42
-0.114539
 10
7.92707586
 20
13.1536626
 42
-0.06077700000000002
 10
8.234380620000001
 20
13.22594916
 42
-0.007856000000000002
 10
8.998337279999996
 20
13.29790554
 42
-0.003922999999999993
 10
9.967048560000009
 20
13.36617198000002
 42
-0.001225999999999975
 10
10.95566328
 20
13.42561757999999
 42
-0.08818099999999948
 10
11.11735668
 20
13.40639916
 42
-0.08846800000000019
 10
11.28419544
 20
13.3215066
 42
-0.05782499999999995
 10
11.44068318
 20
13.17197118
 42
-0.03974099999999996
 10
11.60600981999999
 20
12.93700572
 42
-0.01423100000000001
 10
11.80440936
 20
12.57832866
 42
0.03152200000000002
 10
12.0752004
 20
12.12639336000001
 42
0.1085010000000003
 10
12.32340666
 20
11.89432986
 42
0.1511169999999996
 10
12.59642364
 20
11.82876738
 42
0.083063
 10
12.93408648
 20
11.90784066
 42
0.09899100000000018
 10
13.09879896
 20
12.01887042
 42
0.07546000000000042
 10
13.227186
 20
12.19506654
 42
0.07611799999999992
 10
13.29664098
 20
12.3997572
 42
0.1044610000000006
 10
13.29024774
 20
12.5935215
 42
0.06499600000000003
 10
13.17051534000029
 20
12.90134231999991
 42
0.0003160000000000057
 10
11.55071148000002
 20
15.8565215399999
 42
0.0003639999999999873
 10
9.937208699999609
 20
18.79073339999973
 42
0.0558759999999999
 10
9.71805354
 20
19.1008989
 42
0.09602799999999975
 10
9.573300120000001
 20
19.21152833999999
 42
0.06204899999999993
 10
9.373624139999999
 20
19.28152296
 42
0.05476900000000005
 10
9.13633548
 20
19.30623954
 42
0.04368300000000002
  0
LWPOLYLINE
  5
7C
100
AcDbEntity
  8
0
  6
ByLayer
 62
  256
370
   -1
100
AcDbPolyline
 90
   24
 70
    1
 43
0
 10
9.8380638
 20
16.4672559
 42
-0.006214000000000035
 10
10.2518511
 20
15.6311163
 42
-0.04249300000000001
 10
10.41458772
 20
15.20161098
 42
-0.09478100000000013
 10
10.44003096
 20
14.91404526
 42
-0.1204000000000001
 10
10.35133314
 20
14.66361396
 42
-0.09987799999999997
 10
10.20594018
 20
14.51638818
 42
-0.07204000000000017
 10
9.997406159999999
 20
14.41598004
 42
-0.05010399999999992
 10
9.701332679999991
 20
14.35448874
 42
-0.01900699999999976
 10
9.279670859999987
 20
14.32634526000001
 42
-0.005536999999999789
 10
8.914382940000001
 20
14.31992892
 42
-0.05365700000000016
 10
8.76043872
 20
14.33548698
 42
-0.09974200000000011
 10
8.651973900000002
 20
14.38221168
 42
-0.03922199999999998
 10
8.52527124
 20
14.48550966
 42
-0.1010449999999995
 10
8.357152500000002
 20
14.72759544
 42
-0.1253220000000002
 10
8.314604159999998
 20
14.99768916
 42
-0.0498120000000001
 10
8.397776460000003
 20
15.4240905
 42
-0.005077000000000022
 10
8.704813680000008
 20
16.40851859999999
 42
-0.003507000000000017
 10
8.875452720000009
 20
16.92430224
 42
-0.006043999999999995
 10
9.025674299999991
 20
17.35086708
 42
-0.001699000000000004
 10
9.15896651999998
 20
17.71143762
 42
-0.5644190000000439
 10
9.183095340000001
 20
17.71596846
 42
-0.06103999999999992
 10
9.210027839999981
 20
17.67716951999999
 42
-0.0004500000000000081
 10
9.392418119999995
 20
17.33019714
 42
-0.001690999999999989
 10
9.599778719999989
 20
16.93158702
 42
-0.001083000000000007
  0
LWPOLYLINE
  5
7D
100
AcDbEntity
  8
0
  6
ByLayer
 62
  256
370
   -1
100
AcDbPolyline
 90
   32
 70
    1
 43
0
 10
32.32462602
 20
14.15995901999998
 42
-0.01119800000000005
 10
32.20150962
 20
13.52462315999993
 42
-0.001880999999999924
 10
31.93394814000001
 20
12.31429607999999
 42
-0.002217000000000131
 10
31.63820633999998
 20
11.0266555199999
 42
-0.00384299999999987
 10
31.37957262000001
 20
9.959999999999994
 42
0.009867999999999974
 10
31.17614741999998
 20
9.074580899999999
 42
0.0496849999999999
 10
31.12207398000001
 20
8.570235240000001
 42
0.09533099999999943
 10
31.18391982000001
 20
8.23525356
 42
0.1141939999999996
 10
31.36462025999999
 20
7.97115792
 42
0.04583900000000028
 10
31.52934137999999
 20
7.845488639999999
 42
0.04087999999999994
 10
31.72047246
 20
7.746374040000001
 42
0.04051600000000009
 10
31.8922209
 20
7.690278719999999
 42
0.2804950000000027
 10
31.9729524
 20
7.716338099999997
 42
0.1173879999999975
 10
31.99821881999969
 20
7.765117499999377
 42
0.0002460000000000274
 10
32.20464995999967
 20
8.595265199999361
 42
0.001678999999999976
 10
32.43365741999995
 20
9.531580979999639
 42
0.001039000000000056
 10
32.69672657999979
 20
10.63307531999952
 42
0.001127000000000096
 10
33.07629587999995
 20
12.25340819999976
 42
0.007480000000000069
 10
33.25175849999999
 20
13.06510715999996
 42
0.0143750000000001
 10
33.33689861999999
 20
13.5635334
 42
0.05105099999999995
 10
33.349335
 20
13.88703444
 42
0.015
 10
33.32901132
 20
14.10356088
 42
0.05269599999999997
 10
33.29729039999999
 20
14.23972404
 42
0.06853700000000001
 10
33.24277721999999
 20
14.34676644
 42
0.03904200000000001
 10
33.15063341999999
 20
14.45933886
 42
0.05830000000000009
 10
33.01606608
 20
14.57048028
 42
0.03702900000000005
 10
32.83746479999999
 20
14.66801628
 42
0.03732100000000001
 10
32.64985398
 20
14.73675924
 42
0.06789700000000007
 10
32.48850924
 20
14.75966538
 42
0.3297419999999814
 10
32.4604773
 20
14.73915864
 42
0.008854999999999976
 10
32.41500360000001
 20
14.58363966
 42
0.01509599999999995
 10
32.36831178
 20
14.38996512
 42
0.00934200000000002
  0
LWPOLYLINE
  5
7E
100
AcDbEntity
  8
0
  6
ByLayer
 62
  256
370
   -1
100
AcDbPolyline
 90
   32
 70
    1
 43
0
 10
29.40937842
 20
12.78028908
 42
0.006631000000000049
 10
29.1245844
 20
12.4676319
 42
0.01053400000000001
 10
28.89013517999999
 20
12.19179348
 42
0.006317000000000044
 10
28.70541545999999
 20
11.95900212
 42
0.1660330000000008
 10
28.68
 20
11.88457482
 42
0.1163889999999994
 10
28.70694132
 20
11.7704043
 42
0.09638499999999978
 10
28.78329192
 20
11.67113856
 42
0.09105499999999943
 10
28.89570714
 20
11.60354532
 42
0.09018100000000026
 10
29.02518996
 20
11.58
 42
0.1156089999999998
 10
29.12081934
 20
11.60241084
 42
0.047806
 10
29.2343988
 20
11.67297744
 42
0.03133999999999989
 10
29.37836118
 20
11.79775476
 42
0.01007799999999982
 10
29.57598924
 20
11.99999999999999
 42
-0.01949299999999992
 10
29.85916607999999
 20
12.27908322
 42
-0.0917020000000001
 10
30.05230284
 20
12.399162
 42
-0.1551270000000007
 10
30.22191552
 20
12.4102965
 42
-0.09245300000000022
 10
30.40775538
 20
12.32582328
 42
-0.06158800000000027
 10
30.46934988
 20
12.27025218
 42
-0.02022599999999998
 10
30.54563507999999
 20
12.1746123
 42
-0.01980199999999998
 10
30.62250792
 20
12.06060318
 42
-0.02115900000000001
 10
30.68832234
 20
11.94331068
 42
0.05756499999999996
 10
30.83901534
 20
11.7153126
 42
0.1214230000000016
 10
31.0092576
 20
11.59115988
 42
0.1640580000000003
 10
31.1827515
 20
11.58017718
 42
0.1316009999999998
 10
31.34571426
 20
11.67428574
 42
0.144895999999999
 10
31.41608988
 20
11.80384254
 42
0.1201170000000009
 10
31.41147912
 20
11.96133864
 42
0.05034499999999992
 10
31.31815584
 20
12.20269146
 42
0.007204000000000002
 10
31.07124630000001
 20
12.6723948
 42
0.01797
 10
30.63708432
 20
13.40611194
 42
0.2382909999999991
 10
30.3743073
 20
13.56102804
 42
0.209993
 10
30.07307658
 20
13.45136399999999
 42
0.013908
  0
LWPOLYLINE
  5
7F
100
AcDbEntity
  8
0
  6
ByLayer
 62
  256
370
   -1
100
AcDbPolyline
 90
   28
 70
    1
 43
0
 10
27.62184492
 20
13.37123694
 42
0.09406800000000025
 10
27.52546896
 20
13.29836508
 42
0.05452599999999997
 10
27.440016
 20
13.18038828
 42
0.05346400000000026
 10
27.38013396
 20
13.04302182
 42
0.07621299999999953
 10
27.36
 20
12.9116994
 42
0.07827999999999945
 10
27.36892158
 20
12.85506366
 42
0.01488499999999998
 10
27.40406249999999
 20
12.7564287
 42
0.01555600000000004
 10
27.45257621999999
 20
12.64267668
 42
0.01373800000000001
 10
27.51
 20
12.52727094
 42
-0.04540799999999996
 10
27.61364567999999
 20
12.28105002
 42
-0.06977000000000004
 10
27.65234196
 20
12.0533904
 42
-0.06189500000000023
 10
27.62875374
 20
11.80473498
 42
-0.02829600000000028
 10
27.54013151999999
 20
11.49038232
 42
0.02822699999999997
 10
27.46683863999999
 20
11.23054212
 42
0.1292930000000005
 10
27.47284692
 20
11.07525492
 42
0.3189420000000009
 10
27.54638028
 20
11.0184819
 42
0.1336349999999998
 10
27.67495752
 20
11.04800502
 42
0.05615299999999995
 10
27.88623492
 20
11.19366216
 42
0.02618199999999993
 10
28.12582488
 20
11.42511432
 42
0.02620100000000021
 10
28.34154846
 20
11.68230918
 42
0.05205400000000011
 10
28.47850524
 20
11.91
 42
0.07273299999999995
 10
28.59665231999999
 20
12.30262116
 42
0.06152000000000013
 10
28.60715442
 20
12.73643178
 42
0.06783800000000002
 10
28.51849614
 20
13.10812644
 42
0.1812549999999999
 10
28.34007948
 20
13.30820274
 42
0.06584400000000033
 10
28.17851484
 20
13.36762704
 42
0.03336499999999996
 10
27.96397248
 20
13.40098398
 42
0.03266500000000006
 10
27.75567348
 20
13.40561562
 42
0.1045660000000002
  0
LWPOLYLINE
  5
80
100
AcDbEntity
  8
0
  6
ByLayer
 62
  256
370
   -1
100
AcDbPolyline
 90
   38
 70
    1
 43
0
 10
34.53
 20
12.15561798
 42
0.1260789999999999
 10
33.67446714
 20
11.44053618
 42
0.08103200000000005
 10
33.09482502
 20
10.2765789
 42
0.08807899999999991
 10
32.94551382
 20
9.084711960000003
 42
0.2024980000000003
 10
33.3317478
 20
8.286514019999998
 42
0.04189800000000005
 10
33.5228808
 20
8.145159539999991
 42
0.07650200000000033
 10
33.70112442000001
 20
8.069729280000001
 42
0.06112399999999973
 10
33.91991736
 20
8.042118900000002
 42
0.01871800000000005
 10
34.25356032
 20
8.05346598
 42
0.0575520000000002
 10
34.70632608
 20
8.138855099999997
 42
0.05325000000000031
 10
35.1405099
 20
8.326420499999998
 42
0.05619899999999999
 10
35.50099344
 20
8.587304399999995
 42
0.08786900000000045
 10
35.73422508000001
 20
8.889832319999995
 42
0.04613600000000017
 10
35.76906341999999
 20
8.974760639999998
 42
0.01504399999999999
 10
35.80484297999999
 20
9.105575699999996
 42
0.01485000000000002
 10
35.83605378
 20
9.254045639999998
 42
0.01621199999999984
 10
35.85735432
 20
9.399832319999998
 10
35.8969716
 20
9.75
 10
35.4834858
 20
9.35386289999999
 42
-0.01891900000000001
 10
35.1774162
 20
9.082076279999992
 42
-0.03212100000000012
 10
34.89958218
 20
8.882009220000002
 42
-0.03911599999999976
 10
34.65197003999999
 20
8.752572720000002
 42
-0.07962300000000037
 10
34.43954262
 20
8.699558160000002
 42
-0.01959599999999988
 10
34.22213736
 20
8.68944744
 42
-0.05487400000000014
 10
34.07064456
 20
8.705007179999999
 42
-0.08455599999999917
 10
33.9675978
 20
8.746248840000007
 42
-0.1332779999999997
 10
33.9026133
 20
8.815116959999999
 42
-0.1439649999999983
 10
33.88797144000001
 20
8.885384940000002
 42
-0.1725830000000013
 10
33.91551552
 20
8.946679500000004
 42
-0.06515200000000008
 10
34.00361094
 20
9.017416860000001
 42
-0.008145999999999987
 10
34.21550232
 20
9.141605700000005
 42
0.05469799999999986
 10
34.96332876
 20
9.679026720000001
 42
0.04961699999999994
 10
35.60444957999999
 20
10.38226176
 42
0.05347099999999998
 10
36.02712239999999
 20
11.09832846
 42
0.1602970000000004
 10
36.08787030000001
 20
11.65599894
 42
0.1511839999999993
 10
35.8921473
 20
12.00633132
 42
0.1131990000000004
 10
35.50980209999999
 20
12.2333337
 42
0.09909699999999994
 10
35.02048584
 20
12.28876152
 42
0.09040100000000012
  0
LWPOLYLINE
  5
81
100
AcDbEntity
  8
0
  6
ByLayer
 62
  256
370
   -1
100
AcDbPolyline
 90
   20
 70
    1
 43
0
 10
35.46000000000001
 20
11.3202867
 42
-0.08174400000000258
 10
35.44817754
 20
11.24845572
 42
-0.02204399999999999
 10
35.40625350000001
 20
11.14047173999999
 42
-0.02170899999999994
 10
35.34706584000001
 20
11.02035167999999
 42
-0.02095100000000032
 10
35.27703318
 20
10.90434384
 42
-0.04255199999999991
 10
34.94901299999999
 20
10.49037467999999
 42
-0.02000699999999994
 10
34.46121977999999
 20
10.01199077999999
 42
-0.01532599999999993
 10
33.99270846
 20
9.613345199999985
 42
-0.6287449999999665
 10
33.9
 20
9.657925259999999
 42
-0.1103160000000011
 10
33.93572946
 20
9.817895580000002
 42
-0.01071399999999997
 10
34.11337571999999
 20
10.17562824
 42
-0.01467200000000003
 10
34.32238554
 20
10.54781472
 42
-0.02445000000000005
 10
34.5223089
 20
10.84646016
 42
-0.02578799999999998
 10
34.7396739
 20
11.10962736
 42
-0.04413199999999991
 10
34.94973299999999
 20
11.30168268
 42
-0.05509399999999993
 10
35.14691754
 20
11.4205176
 42
-0.1080759999999998
 10
35.325
 20
11.45977571999999
 42
-0.05701799999999991
 10
35.3897466
 20
11.4524772
 42
-0.1448990000000019
 10
35.4305301
 20
11.42945226000001
 42
-0.1406810000000129
 10
35.4529257
 20
11.38741608
 42
-0.0525459999999988
  0
LWPOLYLINE
  5
82
100
AcDbEntity
  8
0
  6
ByLayer
 62
  256
370
   -1
100
AcDbPolyline
 90
   70
 70
    1
 43
0
 10
26.16
 20
11.6089533
 42
-0.04975799999999975
 10
26.15765352
 20
11.58543275999989
 42
-0.0004699999999999824
 10
26.12323835999999
 20
11.41549025999989
 42
-0.001573999999999988
 10
26.08281978
 20
11.22001415999999
 42
-0.001018000000000098
 10
26.03485404
 20
10.99395329999997
 42
-0.02096099999999989
 10
25.94046287999999
 20
10.62890508
 42
-0.02852299999999991
 10
25.8232248
 20
10.30968893999999
 42
-0.01815800000000011
 10
25.63410359999999
 20
9.913452479999986
 42
-0.003726000000000008
 10
25.26985403999996
 20
9.229042139999962
 42
-0.002593999999999861
 10
25.02322913999999
 20
8.779440179999996
 42
-0.004492000000000045
 10
24.81298475999997
 20
8.408720339999959
 42
-0.001085999999999821
 10
24.62944001999999
 20
8.093332080000012
 42
-0.6356559999999886
 10
24.61307286
 20
8.09482362
 42
-0.1492349999999992
 10
24.61119246000003
 20
8.131529160000005
 42
-0.00100799999999995
 10
24.68980914
 20
8.443164719999997
 42
-0.003834000000000024
 10
24.78355913999999
 20
8.800173660000008
 42
-0.002427999999999998
 10
24.89807285999999
 20
9.215031899999993
 42
0.005863999999999965
 10
25.01368259999999
 20
9.645371699999984
 42
0.007160999999999925
 10
25.11130889999999
 20
10.05062171999998
 42
0.006101000000000121
 10
25.18419672
 20
10.39279776
 42
0.04945899999999975
 10
25.2
 20
10.55216838
 42
0.07908000000000004
 10
25.1502492
 20
10.86475962
 42
0.1019200000000004
 10
25.00639734
 20
11.11670106
 42
0.09189400000000007
 10
24.76127166
 20
11.30914668
 42
0.05364499999999995
 10
24.4125759
 20
11.44645236
 10
24.19515174
 20
11.50614354
 10
24.15727043999999
 20
11.13807174
 42
-0.02504699999999971
 10
24.12604757999999
 20
10.93511081999999
 42
-0.005387999999999973
 10
24.05064342
 20
10.58730857999997
 42
-0.005612999999999892
 10
23.95435260000001
 20
10.18601489999999
 42
-0.005331000000000016
 10
23.84748000000001
 20
9.779999999999998
 42
0.006063000000000018
 10
23.74079436000001
 20
9.37227162000001
 42
0.006234000000000064
 10
23.64506064000001
 20
8.965836240000002
 42
0.006054000000000004
 10
23.57073594000001
 20
8.611487280000002
 42
0.02615100000000003
 10
23.54022264
 20
8.398591379999999
 42
0.01136700000000002
 10
23.52417749999999
 20
8.160657780000001
 42
0.06631800000000011
 10
23.53516656
 20
8.035878240000001
 42
0.08994199999999913
 10
23.57741676
 20
7.935859560000003
 42
0.03011399999999995
 10
23.672463
 20
7.808015040000002
 42
0.0414540000000003
 10
23.84962086
 20
7.62977958
 42
0.03414800000000016
 10
24.06516294
 20
7.470201180000001
 42
0.03481699999999988
 10
24.2771325
 20
7.354559340000001
 42
0.1078710000000001
 10
24.43545732
 20
7.32
 42
0.129454
 10
24.61470768
 20
7.367200259999998
 42
0.08876100000000069
 10
24.77749188
 20
7.502102459999996
 42
0.04819800000000009
 10
24.95676672
 20
7.761129599999994
 42
0.01110400000000011
 10
25.20556272000001
 20
8.23109687999999
 42
-0.003938999999999923
 10
25.44523878
 20
8.69996297999999
 42
-0.04230400000000008
 10
25.5594144
 20
8.880072479999997
 42
-0.7582700000000188
 10
25.59202344
 20
8.86718778
 42
-0.04409099999999989
 10
25.55897388
 20
8.696422200000001
 42
0.06645499999999999
 10
25.50000024
 20
8.296988279999999
 42
0.1091629999999998
 10
25.56879624
 20
7.96376526
 42
0.1184389999999999
 10
25.7654199
 20
7.70875842
 42
0.08766900000000012
 10
26.07848808
 20
7.536389820000001
 42
0.007888000000000306
 10
26.18795148
 20
7.501008960000002
 42
0.01231099999999993
 10
26.2833651
 20
7.4743737
 42
0.00649200000000004
 10
26.36331348
 20
7.455264239999999
 42
0.257215999999977
 10
26.3801358
 20
7.460135820000001
 42
0.1406940000000031
 10
26.43444671999987
 20
7.558184939999222
 42
0.0003980000000000816
 10
26.77154279999979
 20
9.027685379999312
 42
0.0009190000000001217
 10
27.09130943999997
 20
10.43869194000001
 42
0.05531100000000005
 10
27.12
 20
10.69725288
 42
0.06735200000000004
 10
27.08574378
 20
10.95040626
 42
0.06955499999999999
 10
26.98550796
 20
11.18236764
 42
0.07060399999999999
 10
26.82716645999999
 20
11.37510084
 42
0.07293700000000032
 10
26.62306326
 20
11.51367618
 42
0.02254400000000002
 10
26.44935582
 20
11.5883007
 42
0.03945999999999999
 10
26.29907232
 20
11.63180844
 42
0.05481800000000001
 10
26.19232806
 20
11.64180708
 42
0.409497000000006
  0
LWPOLYLINE
  5
83
100
AcDbEntity
  8
0
  6
ByLayer
 62
  256
370
   -1
100
AcDbPolyline
 90
   22
 70
    1
 43
0
 10
29.64364212
 20
11.06563062
 42
-0.02547600000000001
 10
29.59584204
 20
10.85519183999999
 42
-0.006946999999999933
 10
29.49895632
 20
10.5283647
 42
-0.007007000000000121
 10
29.37856026
 20
10.16025431999999
 42
-0.007239999999999897
 10
29.24914248
 20
9.799672019999999
 42
0.011461
 10
28.95945089999999
 20
8.970594420000001
 42
0.05316799999999998
 10
28.85533301999999
 20
8.474808419999999
 42
0.1012149999999998
 10
28.88945952
 20
8.138003940000001
 42
0.1291829999999999
 10
29.05450416
 20
7.874557620000002
 42
0.0519539999999999
 10
29.22335352
 20
7.746098100000002
 42
0.04345000000000001
 10
29.42526654
 20
7.646132819999999
 42
0.04574600000000006
 10
29.60229888
 20
7.594950479999999
 42
0.3686159999999917
 10
29.67043181999999
 20
7.633627979999972
 42
0.005498999999999976
 10
30.03175499999996
 20
8.664374639999927
 42
0.006236999999999967
 10
30.35493108
 20
9.660600359999918
 42
0.002589000000000044
 10
30.62881920000001
 20
10.55859233999998
 42
0.122674
 10
30.63762456
 20
10.74687726
 42
0.07192299999999999
 10
30.55010844
 20
10.99350198
 42
0.0854220000000003
 10
30.39976482
 20
11.18922174
 42
0.07974199999999998
 10
30.18348264
 20
11.33284692
 42
0.05382299999999987
 10
29.901732
 20
11.42606244
 10
29.713464
 20
11.46657744
  0
LWPOLYLINE
  5
84
100
AcDbEntity
  8
0
  6
ByLayer
 62
  256
370
   -1
100
AcDbPolyline
 90
   76
 70
    1
 43
0
 10
21.03
 20
11.2871235
 42
0.06561299999999998
 10
20.72464572
 20
11.0949876
 42
0.03916000000000004
 10
20.41631976
 20
10.7954454
 42
0.03605800000000006
 10
20.12982384
 20
10.41817338
 42
0.03255900000000001
 10
19.88953848
 20
9.990913859999999
 42
0.01885899999999998
 10
19.70009406
 20
9.554437439999997
 42
0.03368499999999987
 10
19.58286612000001
 20
9.18134208
 42
0.035488
 10
19.52051628
 20
8.80952652
 42
0.02380399999999999
 10
19.5
 20
8.378827379999999
 42
0.06360999999999994
 10
19.5652092
 20
7.868334600000001
 42
0.0884319999999999
 10
19.757154
 20
7.450364520000001
 42
0.1063839999999997
 10
20.04869892
 20
7.17771636
 42
0.1358130000000001
 10
20.40181056
 20
7.079999999999998
 42
0.09051199999999991
 10
20.61411252
 20
7.118749080000001
 42
0.04514899999999991
 10
20.86080972
 20
7.23831288
 42
0.04176500000000002
 10
21.10789758
 20
7.416589080000001
 42
0.04116500000000008
 10
21.32322324
 20
7.634245979999999
 42
-0.01638599999999999
 10
21.40574766
 20
7.726367819999998
 42
-0.03773800000000004
 10
21.47489286
 20
7.788507179999996
 42
-0.08210499999999932
 10
21.5202009
 20
7.812837299999996
 42
-0.5119860000000508
 10
21.53828106000001
 20
7.799999999999999
 42
-0.06112799999999954
 10
21.53110242
 20
7.73791073999999
 42
-0.002430999999999891
 10
21.47634024
 20
7.516124999999989
 42
-0.004256999999999902
 10
21.40785323999999
 20
7.253878259999997
 42
-0.002995000000000123
 10
21.32653452000001
 20
6.959999999999983
 42
0.01555600000000004
 10
21.1618554
 20
6.300880619999998
 42
0.03265099999999999
 10
21.0837885
 20
5.778856140000002
 42
0.04255300000000001
 10
21.08454054
 20
5.38043616
 42
0.1198150000000006
 10
21.1730076
 20
5.118260039999999
 42
0.04660200000000007
 10
21.29589258
 20
4.958961599999999
 42
0.05701800000000024
 10
21.43884954
 20
4.836908219999997
 42
0.05786300000000038
 10
21.60383784
 20
4.751605319999999
 42
0.05021800000000004
 10
21.79204518
 20
4.70129088
 10
21.99678276
 20
4.66806654
 10
22.13093969999999
 20
5.349033300000005
 42
-0.007502999999999958
 10
22.21417313999999
 20
5.740451519999972
 42
-0.001320000000000003
 10
22.38357389999999
 20
6.473278499999985
 42
-0.001429999999999998
 10
22.58696706000006
 20
7.331617919999999
 42
-0.001285000000000082
 10
22.80258054000005
 20
8.220000000000002
 42
0.002076999999999864
 10
23.00850767999998
 20
9.074372339999892
 42
0.003036999999999943
 10
23.18210321999997
 20
9.828374999999852
 42
0.001477000000000019
 10
23.32379225999997
 20
10.47024569999988
 42
0.05393399999999948
 10
23.33980794
 20
10.62
 42
0.0742889999999999
 10
23.30378124
 20
10.8591399
 42
0.09635299999999976
 10
23.19967182
 20
11.05435062
 42
0.0897329999999996
 10
23.02324212
 20
11.20592045999999
 42
0.05640999999999982
 10
22.77412572
 20
11.31659082
 42
0.008111999999999972
 10
22.64524116
 20
11.35493094
 42
0.01287999999999999
 10
22.53362292
 20
11.3830941
 42
0.006762999999999999
 10
22.44052848
 20
11.4027297
 42
0.2906230000000078
 10
22.4225463
 20
11.39572788
 42
0.09521099999999837
 10
22.41225462
 20
11.37409025999999
 42
0.0009090000000000039
 10
22.36846745999999
 20
11.20423655999999
 42
0.002996000000000047
 10
22.31950505999999
 20
11.00797938000001
 42
0.001929999999999955
 10
22.26500184
 20
10.77997098000001
 42
-0.03189699999999993
 10
22.10514594
 20
10.25304479999999
 42
-0.02098299999999987
 10
21.85812785999999
 20
9.669251880000001
 42
-0.02005799999999982
 10
21.54640014
 20
9.073904039999999
 42
-0.02060200000000009
 10
21.19054235999999
 20
8.510895899999987
 42
-0.01467100000000004
 10
20.80855535999999
 20
7.991589599999987
 42
-0.1271839999999996
 10
20.58268848
 20
7.818367500000001
 42
-0.4361629999999998
 10
20.4490167
 20
7.878277199999999
 42
-0.08190199999999971
 10
20.40000000000001
 20
8.175510959999999
 42
-0.06949399999999982
 10
20.49944334
 20
8.88754044
 42
-0.06791000000000001
 10
20.790351
 20
9.551151840000003
 42
-0.06945800000000001
 10
21.24081798
 20
10.0997973
 42
-0.07899400000000012
 10
21.80659542
 20
10.47615918
 10
22.12935864
 20
10.62392508
 10
21.97616166
 20
10.89802434
 42
0.04852299999999991
 10
21.8452404
 20
11.08669542
 42
0.04630200000000004
 10
21.6785184
 20
11.24987484
 42
0.04997000000000001
 10
21.50595456
 20
11.36349294
 42
0.1242730000000005
 10
21.36
 20
11.39845800000001
 42
0.06513600000000082
 10
21.31058994
 20
11.39138232000001
 42
0.01326600000000007
 10
21.2259375
 20
11.36530242
 42
0.01377199999999999
 10
21.12848442
 20
11.32940562
 42
0.012531
  0
LWPOLYLINE
  5
85
100
AcDbEntity
  8
0
  6
ByLayer
 62
  256
370
   -1
100
AcDbPolyline
 90
   72
 70
    1
 43
0
 10
17.44554486
 20
11.07859194
 42
0.02869900000000005
 10
17.19950424
 20
10.96995792
 42
0.05876800000000026
 10
17.02459842
 20
10.85270376
 42
0.06588700000000015
 10
16.89442746
 20
10.7076102
 42
0.04582799999999991
 10
16.7872023
 20
10.51504296
 42
0.02556199999999998
 10
16.73126286
 20
10.36880928
 42
0.03983999999999997
 10
16.69992078
 20
10.23767712
 42
0.04054199999999989
 10
16.69008768
 20
10.1049195
 42
0.027702
 10
16.69953804
 20
9.953900459999998
 42
0.05278899999999991
 10
16.75261044
 20
9.72026352
 42
0.05134199999999982
 10
16.85374332
 20
9.500585100000002
 42
0.03093099999999998
 10
17.03912412
 20
9.227203680000011
 42
0.006824000000000019
 10
17.39170674
 20
8.783415960000008
 42
-0.007479000000000002
 10
17.71614491999999
 20
8.373953339999996
 42
-0.06757299999999966
 10
17.82943512
 20
8.176161840000001
 42
-0.1411990000000005
 10
17.8462518
 20
8.01609702
 42
-0.06972599999999951
 10
17.78234178
 20
7.820024099999999
 42
-0.02750000000000004
 10
17.71620642
 20
7.701596220000001
 42
-0.0803699999999994
 10
17.65437612
 20
7.63176204
 42
-0.09632400000000098
 10
17.5805679
 20
7.592045579999997
 42
-0.05131700000000039
 10
17.47853766
 20
7.571462339999999
 42
-0.04388600000000008
 10
17.3864955
 20
7.570651799999999
 42
-0.0588949999999993
 10
17.30475012
 20
7.58693016
 42
-0.06189199999999997
 10
17.23219224
 20
7.620898139999999
 42
-0.05604100000000003
 10
17.16743364
 20
7.672566360000001
 42
-0.08021699999999955
 10
17.07828840000001
 20
7.796044620000002
 42
-0.03285200000000008
 10
16.9976172
 20
7.987097519999999
 42
-0.03262299999999999
 10
16.93971018
 20
8.197450079999999
 42
-0.05027499999999972
 10
16.92033462
 20
8.385
 42
0.2076009999999933
 10
16.88047152
 20
8.47625124
 42
0.1641200000000027
 10
16.78133052
 20
8.521025940000001
 42
0.09744599999999989
 10
16.6280556
 20
8.50635726
 42
0.04692399999999999
 10
16.44429126
 20
8.432219099999998
 42
0.0544340000000001
 10
16.32250482
 20
8.35137804
 42
0.1023419999999999
 10
16.2492981
 20
8.25936312
 42
0.0864920000000013
 10
16.21145358
 20
8.135052659999999
 42
0.03075099999999998
 10
16.2
 20
7.948998720000001
 42
0.1151099999999999
 10
16.30692804
 20
7.490693700000001
 42
0.127194
 10
16.60364478
 20
7.146498000000001
 42
0.106826
 10
17.07680844
 20
6.95007996
 42
0.06411600000000001
 10
17.68679969999999
 20
6.917983379999997
 42
0.06043499999999995
 10
18.21474924
 20
7.022921759999999
 42
0.1052980000000001
 10
18.59903508
 20
7.246409099999999
 42
0.1179089999999998
 10
18.8314545
 20
7.586510879999999
 42
0.08906800000000012
 10
18.91589226
 20
8.032564799999999
 42
0.05634700000000003
 10
18.88088772
 20
8.370697560000002
 42
0.06704900000000022
 10
18.7710882
 20
8.671842960000005
 42
0.04944100000000005
 10
18.55638252
 20
8.99789676
 42
0.01662499999999998
 10
18.18275039999999
 20
9.4287639
 42
-0.009471000000000005
 10
17.84604918
 20
9.806002080000004
 42
-0.04978199999999994
 10
17.68704911999999
 20
10.03337178
 42
-0.09836900000000069
 10
17.630232
 20
10.20793452
 42
-0.1194749999999992
 10
17.65064783999999
 20
10.3783062
 42
-0.2381659999999997
 10
17.877318
 20
10.58782248
 42
-0.2069779999999999
 10
18.20094216
 20
10.54560474
 42
-0.136646
 10
18.49336943999999
 20
10.23871638
 42
-0.1230309999999991
 10
18.59999999999999
 20
9.811927139999998
 42
0.0687099999999998
 10
18.6140838
 20
9.709923059999998
 42
0.2791240000000141
 10
18.65795532
 20
9.668888639999995
 42
0.1363560000000019
 10
18.7425357
 20
9.674261219999996
 42
0.01532700000000014
 10
18.92408556
 20
9.743662019999999
 42
0.06022099999999982
 10
19.07823294
 20
9.831119459999998
 42
0.06145000000000029
 10
19.20592908
 20
9.952274159999996
 42
0.06685300000000033
 10
19.29112056000001
 20
10.08954798
 42
0.1058730000000007
 10
19.32
 20
10.22440692
 42
0.093685
 10
19.28311944
 20
10.419513
 42
0.04976299999999995
 10
19.17067296
 20
10.63919376
 42
0.04886099999999989
 10
19.0123956
 20
10.83890022
 42
0.07286300000000009
 10
18.83627712
 20
10.97488302
 42
0.07604699999999995
 10
18.55100418
 20
11.08233576
 42
0.03351099999999992
 10
18.15082398
 20
11.13931398
 42
0.03352200000000001
 10
17.74598658
 20
11.1423159
 42
0.07483899999999997
  0
LWPOLYLINE
  5
86
100
AcDbEntity
  8
0
  6
ByLayer
 62
  256
370
   -1
100
AcDbPolyline
 90
   42
 70
    1
 43
0
 10
14.47455438
 20
10.82601534
 42
0.08069700000000006
 10
13.9926393
 20
10.47952962
 42
0.04753999999999999
 10
13.53930966
 20
9.9318186
 42
0.04559399999999997
 10
13.17538734
 20
9.273909779999999
 42
0.05343799999999997
 10
12.95974848
 20
8.594555219999998
 42
0.05346999999999996
 10
12.90633024
 20
8.026399560000002
 42
0.06592799999999996
 10
12.9830265
 20
7.500282480000001
 42
0.07667599999999991
 10
13.17558624
 20
7.079833500000001
 42
0.1280870000000003
 10
13.46290974
 20
6.820895220000001
 42
0.1086860000000001
 10
13.90523202
 20
6.70219782
 42
0.06614900000000014
 10
14.4466866
 20
6.749125439999998
 42
0.06299700000000008
 10
14.98688706
 20
6.942885299999999
 42
0.07516699999999994
 10
15.4267353
 20
7.257074939999998
 42
0.04136300000000019
 10
15.61491486
 20
7.472585579999999
 42
0.05741399999999984
 10
15.7422807
 20
7.694819279999998
 42
0.057946
 10
15.81500598
 20
7.938568259999999
 42
0.04317299999999994
 10
15.83966538
 20
8.2183908
 10
15.84
 20
8.42678166
 10
15.435
 20
8.029647360000002
 42
-0.01577100000000009
 10
15.15542664
 20
7.772286419999999
 42
-0.03233200000000007
 10
14.91805818
 20
7.592633819999998
 42
-0.03872200000000014
 10
14.69029944
 20
7.466480519999999
 42
-0.03729700000000005
 10
14.44298268
 20
7.375119479999999
 42
-0.0625639999999999
 10
14.26756656
 20
7.34782974
 42
-0.06173300000000032
 10
14.0900235
 20
7.36455744
 42
-0.06906900000000007
 10
13.94263956
 20
7.419221640000001
 42
-0.1476370000000012
 10
13.85769168
 20
7.50431316
 42
-0.1634310000000028
 10
13.8466203
 20
7.569831719999999
 42
-0.1627730000000018
 10
13.8773091
 20
7.628878199999999
 42
-0.06205499999999981
 10
13.9682226
 20
7.697250300000001
 42
-0.008663000000000035
 10
14.17482264
 20
7.811067420000001
 42
0.05349699999999979
 10
14.60509025999999
 20
8.101094159999997
 42
0.02134299999999993
 10
15.12968495999999
 20
8.582677259999993
 42
0.02107599999999988
 10
15.60640571999999
 20
9.101331779999999
 42
0.06161199999999994
 10
15.8714133
 20
9.50751702
 42
0.04479600000000004
 10
15.99657504
 20
9.834587339999992
 42
0.05642600000000002
 10
16.04922444
 20
10.15428654
 42
0.06592700000000012
 10
16.02681168
 20
10.42977864
 42
0.1293369999999995
 10
15.92785716
 20
10.62454242
 42
0.0977899999999999
 10
15.6397095
 20
10.84291452
 42
0.07911300000000002
 10
15.26779158
 20
10.95619164
 42
0.07529099999999998
 10
14.86159746
 20
10.9510953
 42
0.07500499999999999
  0
LWPOLYLINE
  5
87
100
AcDbEntity
  8
0
  6
ByLayer
 62
  256
370
   -1
100
AcDbPolyline
 90
   16
 70
    1
 43
0
 10
15.41999999999999
 20
10.01605554
 42
-0.08078099999999926
 10
15.39809321999999
 20
9.8813472
 42
-0.04987599999999992
 10
15.33219462
 20
9.734608499999998
 42
-0.03079499999999982
 10
15.20722116
 20
9.545239619999998
 42
-0.008275000000000032
 10
14.98578846
 20
9.260783760000001
 42
-0.02863100000000019
 10
14.71894589999999
 20
8.96574227999999
 42
-0.01402299999999983
 10
14.34804635999997
 20
8.620038779999984
 42
-0.005497999999999953
 10
13.96452155999998
 20
8.289579119999988
 42
-0.3894789999999977
 10
13.8871224
 20
8.292877619999999
 42
-0.3123360000000021
 10
13.86506628
 20
8.41413588
 42
-0.01222200000000003
 10
14.0727561
 20
8.844099840000002
 42
-0.02080799999999991
 10
14.32772196
 20
9.293524259999998
 42
-0.02983300000000003
 10
14.59274814
 20
9.666885899999999
 42
-0.04900100000000003
 10
14.8561308
 20
9.935873640000001
 42
-0.07479000000000005
 10
15.1343514
 20
10.10595486
 42
-0.1536720000000011
 10
15.33212778
 20
10.12468848
 42
-0.353814999999998
  0
LWPOLYLINE
  5
88
100
AcDbEntity
  8
0
  6
ByLayer
 62
  256
370
   -1
100
AcDbPolyline
 90
   58
 70
    1
 43
0
 10
11.41902708
 20
10.73962002
 42
0.1165589999999996
 10
11.35286484
 20
10.69287342
 42
0.01691400000000009
 10
11.2471632
 20
10.5647493
 42
0.01838800000000006
 10
11.13091872
 20
10.40164482
 42
0.01481500000000006
 10
11.01787799999998
 20
10.21842317999994
 42
-0.001168999999999878
 10
10.73371823999999
 20
9.728407139999995
 42
-0.09378499999999984
 10
10.67587782
 20
9.661773059999998
 42
-0.6439880000000769
 10
10.6461816
 20
9.6770589
 42
-0.00923000000000008
 10
10.66380822
 20
9.938540399999996
 42
0.009655000000000219
 10
10.6785084
 20
10.15940388
 42
0.07099999999999994
 10
10.66854186
 20
10.26443238
 42
0.1293079999999999
 10
10.6311891
 20
10.3338651
 42
0.06130799999999994
 10
10.55274756
 20
10.39961208
 42
0.06847300000000009
 10
10.41082698
 20
10.46614619999999
 42
0.006959999999999985
 10
10.05325614000001
 20
10.57196850000001
 42
0.002657000000000069
 10
9.668241599999996
 20
10.67790336
 42
0.3336799999999934
 10
9.624417480000002
 20
10.6603518
 42
0.07928099999999998
 10
9.559143419999941
 20
10.50042018000019
 42
0.000561000000000038
 10
9.22798679999994
 20
9.074192880000155
 42
0.0007689999999999803
 10
8.906314020000064
 20
7.671894420000116
 42
0.05604599999999994
 10
8.879999999999997
 20
7.437879779999999
 42
0.08074099999999992
 10
8.930098919999997
 20
7.129656720000001
 42
0.08694899999999989
 10
9.074926619999999
 20
6.8618373
 42
0.08384699999999995
 10
9.307398239999999
 20
6.651985260000001
 42
0.06877499999999989
 10
9.61197552
 20
6.512422380000001
 10
9.878318520000001
 20
6.4322649
 10
10.09646478
 20
7.288782420000001
 42
-0.008579000000000017
 10
10.24020935999999
 20
7.815237000000002
 42
-0.02907899999999998
 10
10.35954
 20
8.150611679999999
 42
-0.026184
 10
10.52312148
 20
8.487236399999995
 42
-0.005989000000000018
 10
10.83584268000001
 20
9.037649939999994
 42
-0.001662999999999928
 10
11.03966651999999
 20
9.383947619999978
 42
-0.002475999999999973
 10
11.22052961999999
 20
9.685497179999995
 42
-0.00106400000000002
 10
11.37693546
 20
9.942132900000001
 42
-0.05129599999999963
 10
11.41347312
 20
9.989999999999998
 42
-0.4551520000000049
 10
11.43249114
 20
9.989278199999999
 42
-0.1534919999999959
 10
11.444055
 20
9.95981364
 42
-0.04195900000000028
 10
11.44297524
 20
9.88525074
 42
-0.01176299999999999
 10
11.42879802
 20
9.769499039999999
 42
0.08398799999999991
 10
11.43784128
 20
9.361952879999999
 42
0.1170329999999999
 10
11.58695232
 20
9.03052566
 42
0.1073379999999997
 10
11.881209
 20
8.78209416
 42
0.06254899999999985
 10
12.315
 20
8.617642439999999
 42
0.02910499999999993
 10
12.4152345
 20
8.599482179999999
 42
0.2471250000000017
 10
12.45662748
 20
8.615228399999999
 42
0.1701010000000008
 10
12.47603352
 20
8.663012039999998
 42
0.01305000000000001
 10
12.47923098
 20
8.803856880000001
 42
-0.02915299999999998
 10
12.48558653999999
 20
8.919528960000001
 42
-0.009417000000000047
 10
12.50818056
 20
9.089683379999999
 42
-0.009355000000000014
 10
12.540483
 20
9.278365799999998
 42
-0.01036699999999992
 10
12.57886266
 20
9.45932064
 42
0.0333669999999999
 10
12.6359274
 20
9.806258399999999
 42
0.09753299999999999
 10
12.61227522
 20
10.04649408
 42
0.1054389999999998
 10
12.50096184
 20
10.24895568
 42
0.04290900000000004
 10
12.27457398
 20
10.4694627
 42
0.02729600000000001
 10
12.01624038
 20
10.65856878
 42
0.06796799999999999
 10
11.80500966
 20
10.75842282
 42
0.09009899999999954
 10
11.61335568
 20
10.78272882
 42
0.08255399999999996
  0
LWPOLYLINE
  5
89
100
AcDbEntity
  8
0
  6
ByLayer
 62
  256
370
   -1
100
AcDbPolyline
 90
   66
 70
    1
 43
0
 10
7.29
 20
10.49341926
 42
0.04128899999999999
 10
7.11990072
 20
10.37468358
 42
0.04241899999999993
 10
6.973284720000001
 20
10.23058884
 42
0.03728200000000004
 10
6.838469100000001
 20
10.04752062
 42
0.0216389999999999
 10
6.70343238
 20
9.81
 10
6.51889278
 20
9.449999999999999
 10
6.46963938
 20
9.67858386
 42
0.026128
 10
6.409898760000001
 20
9.899179800000001
 42
0.08135099999999998
 10
6.33915312
 20
10.03538208
 42
0.08671500000000039
 10
6.23134626
 20
10.13711016
 42
0.03233399999999997
 10
6.04988706
 20
10.24070616
 42
0.09173600000000019
 10
5.725480259999999
 20
10.3308885
 42
0.3172280000000024
 10
5.54714058
 20
10.22730744
 42
0.04860200000000008
 10
5.411835359999941
 20
9.836252279999911
 42
0.0009650000000000338
 10
4.922593859999864
 20
7.784225699999894
 42
0.002572000000000015
 10
4.486531020000031
 20
5.896143180000035
 42
0.01854100000000001
 10
4.315009440000002
 20
4.978351200000004
 42
0.03897199999999992
 10
4.27679382
 20
4.431516240000001
 42
0.138889
 10
4.374222
 20
4.097912940000001
 42
0.05791899999999997
 10
4.486914959999998
 20
3.957371520000001
 42
0.05469100000000008
 10
4.630876259999998
 20
3.84332982
 42
0.0502989999999998
 10
4.807460639999999
 20
3.75580566
 42
0.0369430000000001
 10
5.0172504
 20
3.69416106
 10
5.20450086
 20
3.65386956
 10
5.27399952
 20
4.121934780000001
 42
-0.01247999999999993
 10
5.320496880000007
 20
4.389021839999985
 42
-0.002271000000000014
 10
5.421242280000016
 20
4.881296759999985
 42
-0.002444000000000054
 10
5.54462958000002
 20
5.456536500000013
 42
-0.002214999999999953
 10
5.677657439999998
 20
6.049713659999993
 10
6.0118167
 20
7.50942738
 10
6.414852839999998
 20
8.21103978
 42
-0.007029999999999985
 10
6.798844979999995
 20
8.858257979999998
 42
-0.01245999999999997
 10
7.135968960000001
 20
9.379096979999998
 42
-0.007339999999999929
 10
7.42342398
 20
9.786852600000003
 42
-0.2399690000000028
 10
7.52778516
 20
9.840000000000003
 42
-0.4139640000000017
 10
7.682719499999998
 20
9.68519772
 42
-0.03817600000000018
 10
7.637515799999997
 20
9.087307919999999
 42
-0.03895400000000007
 10
7.475168819999998
 20
8.392834379999998
 42
-0.05566199999999993
 10
7.218081359999998
 20
7.815166679999999
 42
-0.04798399999999992
 10
7.042096919999997
 20
7.5716721
 42
-0.02914400000000004
 10
6.792029819999997
 20
7.318887839999999
 42
-0.02915900000000004
 10
6.514614059999999
 20
7.097188320000001
 42
-0.04850499999999992
 10
6.254999999999999
 20
6.94889046
 42
0.01603799999999993
 10
6.157303859999999
 20
6.901199040000001
 42
0.02347099999999998
 10
6.074906219999999
 20
6.852572760000001
 42
0.02049999999999993
 10
6.01290006
 20
6.808205940000001
 42
0.2311739999999986
 10
6
 20
6.78179586
 42
0.1752809999999995
 10
6.040554119999999
 20
6.669666840000001
 42
0.03551099999999995
 10
6.18948168
 20
6.514556700000001
 42
0.03788499999999982
 10
6.369754139999999
 20
6.37493376
 42
0.08023100000000039
 10
6.530403059999999
 20
6.302584199999999
 42
0.1036439999999999
 10
6.82887258
 20
6.28570758
 42
0.07267700000000009
 10
7.151985599999999
 20
6.383948999999999
 42
0.05868499999999997
 10
7.494048359999999
 20
6.597215879999998
 42
0.03464699999999984
 10
7.84865742
 20
6.923617859999999
 42
0.03570899999999959
 10
8.107637579999999
 20
7.239883679999997
 42
0.04435999999999991
 10
8.298488819999998
 20
7.568553179999999
 42
0.0404109999999999
 10
8.44061802
 20
7.950020939999998
 42
0.023135
 10
8.552503680000001
 20
8.428706639999998
 42
0.03934899999999999
 10
8.61845718
 20
9.056359559999994
 42
0.06009699999999994
 10
8.567119680000001
 20
9.600828179999999
 42
0.07220900000000001
 10
8.403234899999999
 20
10.03857558
 42
0.1045780000000001
 10
8.134729800000001
 20
10.35046026
 42
0.06734800000000005
 10
7.93361346
 20
10.4648412
 42
0.05379399999999999
 10
7.693374120000001
 20
10.53265866
 42
0.05663600000000007
 10
7.4620443
 20
10.54527804
 42
0.1175939999999995
  0
LWPOLYLINE
  5
8A
100
AcDbEntity
  8
Etiquette
  6
ByLayer
 62
  256
370
   -1
100
AcDbPolyline
 90
    4
 70
    1
 43
0
 10
0
 20
0
 10
40
 20
0
 10
40
 20
23
 10
0
 20
23
  0
DIMENSION
  5
8B
100
AcDbEntity
  8
Cot
  6
ByLayer
 62
  256
370
   -1
100
AcDbDimension
  2
*D1
 10
40
 20
30
 30
0
 11
20
 21
34.6875
 31
0
 70
   33
 71
    5
  3
Standard
 53
0
210
0
220
0
230
1
100
AcDbAlignedDimension
 13
0
 23
23
 33
0
 14
40
 24
23
 34
0
  0
DIMENSION
  5
8C
100
AcDbEntity
  8
Cot
  6
ByLayer
 62
  256
370
   -1
100
AcDbDimension
  2
*D2
 10
-10
 20
2.449212707644755e-015
 30
0
 11
-14.6875
 21
11.5
 31
0
 70
   33
 71
    5
  3
Standard
 53
0
210
0
220
0
230
1
100
AcDbAlignedDimension
 13
0
 23
23
 33
0
 14
0
 24
0
 34
0
  0
INSERT
  5
8D
100
AcDbEntity
  8
0
  6
ByLayer
 62
  256
370
   -1
100
AcDbBlockReference
  2
couteau-4
 10
0
 20
0
 30
0
 41
0.06
 42
0.06
 43
0
 50
0
 70
    1
 71
    1
 44
0
 45
0
  0
ENDSEC
  0
SECTION
  2
OBJECTS
  0
DICTIONARY
  5
C
330
0
100
AcDbDictionary
281
    1
  3
ACAD_GROUP
350
D
  0
DICTIONARY
  5
D
330
C
100
AcDbDictionary
281
    1
  0
ENDSEC
  0
EOF
