999
dxfrw 0.6.3
  0
SECTION
  2
HEADER
  9
$ACADVER
  1
AC1021
  9
$DWGCODEPAGE
  3
ANSI_1252
  9
$INSBASE
 10
0
 20
0
 30
0
  9
$EXTMIN
 10
-205.139673739895
 20
-316.477572915438
 30
0
  9
$EXTMAX
 10
213.9591970586816
 20
339.464025989464
 30
0
  9
$LIMMIN
 10
0
 20
0
  9
$LIMMAX
 10
420
 20
297
  9
$ORTHOMODE
 70
    0
  9
$REGENMODE
 70
    1
  9
$FILLMODE
 70
    1
  9
$QTEXTMODE
 70
    0
  9
$MIRRTEXT
 70
    0
  9
$LTSCALE
 40
1
  9
$ATTMODE
 70
    0
  9
$TEXTSIZE
 40
2.5
  9
$TRACEWID
 40
15.68
  9
$TEXTSTYLE
  7
STANDARD
  9
$CLAYER
  8
0
  9
$CELTYPE
  6
BYLAYER
  9
$CECOLOR
 62
  256
  9
$CELTSCALE
 40
1
  9
$DISPSILH
 70
    0
  9
$DIMSCALE
 40
2.5
  9
$DIMASZ
 40
2.5
  9
$DIMEXO
 40
0.625
  9
$DIMDLI
 40
3.75
  9
$DIMRND
 40
0
  9
$DIMDLE
 40
0
  9
$DIMEXE
 40
1.25
  9
$DIMTP
 40
0
  9
$DIMTM
 40
0
  9
$DIMTXT
 40
2.5
  9
$DIMCEN
 40
2.5
  9
$DIMTSZ
 40
0
  9
$DIMTOL
 70
    0
  9
$DIMLIM
 70
    0
  9
$DIMTIH
 70
    0
  9
$DIMTOH
 70
    0
  9
$DIMSE1
 70
    0
  9
$DIMSE2
 70
    0
  9
$DIMTAD
 70
    1
  9
$DIMZIN
 70
    8
  9
$DIMBLK
  1

  9
$DIMASO
 70
    1
  9
$DIMSHO
 70
    1
  9
$DIMPOST
  1

  9
$DIMAPOST
  1

  9
$DIMALT
 70
    0
  9
$DIMALTD
 70
    3
  9
$DIMALTF
 40
0.03937
  9
$DIMLFAC
 40
1
  9
$DIMTOFL
 70
    1
  9
$DIMTVP
 40
0
  9
$DIMTIX
 70
    0
  9
$DIMSOXD
 70
    0
  9
$DIMSAH
 70
    0
  9
$DIMBLK1
  1

  9
$DIMBLK2
  1

  9
$DIMSTYLE
  2
Standard
  9
$DIMCLRD
 70
    0
  9
$DIMCLRE
 70
    0
  9
$DIMCLRT
 70
    0
  9
$DIMTFAC
 40
1
  9
$DIMGAP
 40
0.625
  9
$DIMJUST
 70
    0
  9
$DIMSD1
 70
    0
  9
$DIMSD2
 70
    0
  9
$DIMTOLJ
 70
    0
  9
$DIMTZIN
 70
    8
  9
$DIMALTZ
 70
    0
  9
$DIMALTTZ
 70
    0
  9
$DIMUPT
 70
    0
  9
$DIMDEC
 70
    2
  9
$DIMTDEC
 70
    2
  9
$DIMALTU
 70
    2
  9
$DIMALTTD
 70
    3
  9
$DIMTXSTY
  7
STANDARD
  9
$DIMAUNIT
 70
    0
  9
$DIMADEC
 70
    0
  9
$DIMALTRND
 40
0
  9
$DIMAZIN
 70
    0
  9
$DIMDSEP
 70
   44
  9
$DIMATFIT
 70
    3
  9
$DIMFRAC
 70
    0
  9
$DIMLDRBLK
  1
STANDARD
  9
$DIMLUNIT
 70
    2
  9
$DIMLWD
 70
   -2
  9
$DIMLWE
 70
   -2
  9
$DIMTMOVE
 70
    0
  9
$DIMFXL
 40
1
  9
$DIMFXLON
 70
    0
  9
$DIMJOGANG
 40
0.7854
  9
$DIMTFILL
 70
    0
  9
$DIMTFILLCLR
 70
    0
  9
$DIMARCSYM
 70
    0
  9
$DIMLTYPE
  6

  9
$DIMLTEX1
  6

  9
$DIMLTEX2
  6

  9
$LUNITS
 70
    2
  9
$LUPREC
 70
    4
  9
$SKETCHINC
 40
1
  9
$FILLETRAD
 40
0
  9
$AUNITS
 70
    0
  9
$AUPREC
 70
    2
  9
$MENU
  1
.
  9
$ELEVATION
 40
0
  9
$PELEVATION
 40
0
  9
$THICKNESS
 40
0
  9
$LIMCHECK
 70
    0
  9
$CHAMFERA
 40
0
  9
$CHAMFERB
 40
0
  9
$CHAMFERC
 40
0
  9
$CHAMFERD
 40
0
  9
$SKPOLY
 70
    0
  9
$USRTIMER
 70
    1
  9
$ANGBASE
 50
0
  9
$ANGDIR
 70
    0
  9
$PDMODE
 70
   34
  9
$PDSIZE
 40
0
  9
$PLINEWID
 40
0
  9
$SPLFRAME
 70
    0
  9
$SPLINETYPE
 70
    2
  9
$SPLINESEGS
 70
    8
  9
$HANDSEED
  5
20000
  9
$SURFTAB1
 70
    6
  9
$SURFTAB2
 70
    6
  9
$SURFTYPE
 70
    6
  9
$SURFU
 70
    6
  9
$SURFV
 70
    6
  9
$UCSBASE
  2

  9
$UCSNAME
  2

  9
$UCSORG
 10
0
 20
0
 30
0
  9
$UCSXDIR
 10
1
 20
0
 30
0
  9
$UCSYDIR
 10
0
 20
1
 30
0
  9
$UCSORTHOREF
  2

  9
$UCSORTHOVIEW
 70
    0
  9
$UCSORGTOP
 10
0
 20
0
 30
0
  9
$UCSORGBOTTOM
 10
0
 20
0
 30
0
  9
$UCSORGLEFT
 10
0
 20
0
 30
0
  9
$UCSORGRIGHT
 10
0
 20
0
 30
0
  9
$UCSORGFRONT
 10
0
 20
0
 30
0
  9
$UCSORGBACK
 10
0
 20
0
 30
0
  9
$PUCSBASE
  2

  9
$PUCSNAME
  2

  9
$PUCSORG
 10
0
 20
0
 30
0
  9
$PUCSXDIR
 10
1
 20
0
 30
0
  9
$PUCSYDIR
 10
0
 20
1
 30
0
  9
$PUCSORTHOREF
  2

  9
$PUCSORTHOVIEW
 70
    0
  9
$PUCSORGTOP
 10
0
 20
0
 30
0
  9
$PUCSORGBOTTOM
 10
0
 20
0
 30
0
  9
$PUCSORGLEFT
 10
0
 20
0
 30
0
  9
$PUCSORGRIGHT
 10
0
 20
0
 30
0
  9
$PUCSORGFRONT
 10
0
 20
0
 30
0
  9
$PUCSORGBACK
 10
0
 20
0
 30
0
  9
$USERI1
 70
    0
  9
$USERI2
 70
    0
  9
$USERI3
 70
    0
  9
$USERI4
 70
    0
  9
$USERI5
 70
    0
  9
$USERR1
 40
0
  9
$USERR2
 40
0
  9
$USERR3
 40
0
  9
$USERR4
 40
0
  9
$USERR5
 40
0
  9
$WORLDVIEW
 70
    1
  9
$SHADEDGE
 70
    3
  9
$SHADEDIF
 70
   70
  9
$TILEMODE
 70
    1
  9
$MAXACTVP
 70
   64
  9
$PINSBASE
 10
0
 20
0
 30
0
  9
$PLIMCHECK
 70
    0
  9
$PEXTMIN
 10
0
 20
0
 30
0
  9
$PEXTMAX
 10
0
 20
0
 30
0
  9
$GRIDMODE
 70
    1
  9
$SNAPSTYLE
 70
    0
  9
$PLIMMIN
 10
0
 20
0
  9
$PLIMMAX
 10
210
 20
297
  9
$UNITMODE
 70
    0
  9
$VISRETAIN
 70
    1
  9
$PLINEGEN
 70
    0
  9
$PSLTSCALE
 70
    1
  9
$TREEDEPTH
 70
 3020
  9
$CMLSTYLE
  2
Standard
  9
$CMLJUST
 70
    0
  9
$CMLSCALE
 40
20
  9
$PROXYGRAPHICS
 70
    1
  9
$MEASUREMENT
 70
    1
  9
$CELWEIGHT
370
   -1
  9
$ENDCAPS
280
    0
  9
$JOINSTYLE
280
    0
  9
$LWDISPLAY
290
    0
  9
$INSUNITS
 70
    0
  9
$HYPERLINKBASE
  1

  9
$STYLESHEET
  1

  9
$XEDIT
290
    1
  9
$CEPSNTYPE
380
    0
  9
$PSTYLEMODE
290
    1
  9
$EXTNAMES
290
    1
  9
$PSVPSCALE
 40
1
  9
$OLESTARTUP
290
    0
  9
$SORTENTS
280
  127
  9
$INDEXCTL
280
    0
  9
$HIDETEXT
280
    1
  9
$XCLIPFRAME
290
    0
  9
$HALOGAP
280
    0
  9
$OBSCOLOR
 70
  257
  9
$OBSLTYPE
280
    0
  9
$INTERSECTIONDISPLAY
280
    0
  9
$INTERSECTIONCOLOR
 70
  257
  9
$DIMASSOC
280
    1
  9
$PROJECTNAME
  1

  9
$CAMERADISPLAY
290
    0
  9
$LENSLENGTH
 40
50
  9
$CAMERAHEIGHT
 40
0
  9
$STEPSPERSEC
 40
2
  9
$STEPSIZE
 40
50
  9
$3DDWFPREC
 40
2
  9
$PSOLWIDTH
 40
5
  9
$PSOLHEIGHT
 40
80
  9
$LOFTANG1
 40
1.570796326794897
  9
$LOFTANG2
 40
1.570796326794897
  9
$LOFTMAG1
 40
0
  9
$LOFTMAG2
 40
0
  9
$LOFTPARAM
 70
    7
  9
$LOFTNORMALS
280
    1
  9
$LATITUDE
 40
1
  9
$LONGITUDE
 40
1
  9
$NORTHDIRECTION
 40
0
  9
$TIMEZONE
 70
-8000
  9
$LIGHTGLYPHDISPLAY
280
    1
  9
$TILEMODELIGHTSYNCH
280
    1
  9
$SOLIDHIST
280
    1
  9
$SHOWHIST
280
    1
  9
$DWFFRAME
280
    2
  9
$DGNFRAME
280
    0
  9
$REALWORLDSCALE
290
    1
  9
$INTERFERECOLOR
 62
    1
  9
$CSHADOW
280
    0
  9
$SHADOWPLANELOCATION
 40
0
  0
ENDSEC
  0
SECTION
  2
CLASSES
  0
ENDSEC
  0
SECTION
  2
TABLES
  0
TABLE
  2
VPORT
  5
8
330
0
100
AcDbSymbolTable
 70
    1
  0
VPORT
  5
31
330
2
100
AcDbSymbolTableRecord
100
AcDbViewportTableRecord
  2
*ACTIVE
 70
    0
 10
0
 20
0
 11
1
 21
1
 12
422.4488726209407
 22
173.2973966414633
 13
0
 23
0
 14
10
 24
10
 15
10
 25
10
 16
0
 26
0
 36
1
 17
0
 27
0
 37
0
 40
842.5637735699426
 41
2.037396121883657
 42
50
 43
0
 44
0
 50
0
 51
0
 71
    0
 72
  100
 73
    1
 74
    3
 75
    0
 76
    1
 77
    0
 78
    0
281
    0
 65
    1
110
0
120
0
130
0
111
1
121
0
131
0
112
0
122
1
132
0
 79
    0
146
0
348
10020
 60
    7
 61
    5
292
1
282
    1
141
0
142
0
 63
  250
421
3358443
  0
ENDTAB
  0
TABLE
  2
LTYPE
  5
5
330
0
100
AcDbSymbolTable
 70
    4
  0
LTYPE
  5
14
330
5
100
AcDbSymbolTableRecord
100
AcDbLinetypeTableRecord
  2
ByBlock
 70
    0
  3

 72
   65
 73
    0
 40
0
  0
LTYPE
  5
15
330
5
100
AcDbSymbolTableRecord
100
AcDbLinetypeTableRecord
  2
ByLayer
 70
    0
  3

 72
   65
 73
    0
 40
0
  0
LTYPE
  5
16
330
5
100
AcDbSymbolTableRecord
100
AcDbLinetypeTableRecord
  2
Continuous
 70
    0
  3
Solid line
 72
   65
 73
    0
 40
0
  0
LTYPE
  5
32
330
5
100
AcDbSymbolTableRecord
100
AcDbLinetypeTableRecord
  2
DOT
 70
    0
  3
Dot . . . . . . . . . . . . . . . . . . . . . .
 72
   65
 73
    2
 40
6.35
 49
0
 74
    0
 49
-6.35
 74
    0
  0
LTYPE
  5
33
330
5
100
AcDbSymbolTableRecord
100
AcDbLinetypeTableRecord
  2
DOTTINY
 70
    0
  3
Dot (.15x) .....................................
 72
   65
 73
    2
 40
0.9525
 49
0
 74
    0
 49
-0.9525
 74
    0
  0
LTYPE
  5
34
330
5
100
AcDbSymbolTableRecord
100
AcDbLinetypeTableRecord
  2
DOT2
 70
    0
  3
Dot (.5x) .....................................
 72
   65
 73
    2
 40
3.175
 49
0
 74
    0
 49
-3.175
 74
    0
  0
LTYPE
  5
35
330
5
100
AcDbSymbolTableRecord
100
AcDbLinetypeTableRecord
  2
DOTX2
 70
    0
  3
Dot (2x) .  .  .  .  .  .  .  .  .  .  .  .  .
 72
   65
 73
    2
 40
12.7
 49
0
 74
    0
 49
-12.7
 74
    0
  0
LTYPE
  5
36
330
5
100
AcDbSymbolTableRecord
100
AcDbLinetypeTableRecord
  2
DASHED
 70
    0
  3
Dashed _ _ _ _ _ _ _ _ _ _ _ _ _ _ _ _ _
 72
   65
 73
    2
 40
19.05
 49
12.7
 74
    0
 49
-6.35
 74
    0
  0
LTYPE
  5
37
330
5
100
AcDbSymbolTableRecord
100
AcDbLinetypeTableRecord
  2
DASHEDTINY
 70
    0
  3
Dashed (.15x) _ _ _ _ _ _ _ _ _ _ _ _ _ _ _ _ _
 72
   65
 73
    2
 40
2.8575
 49
1.905
 74
    0
 49
-0.9525
 74
    0
  0
LTYPE
  5
38
330
5
100
AcDbSymbolTableRecord
100
AcDbLinetypeTableRecord
  2
DASHED2
 70
    0
  3
Dashed (.5x) _ _ _ _ _ _ _ _ _ _ _ _ _ _ _ _ _
 72
   65
 73
    2
 40
9.524999999999999
 49
6.35
 74
    0
 49
-3.175
 74
    0
  0
LTYPE
  5
39
330
5
100
AcDbSymbolTableRecord
100
AcDbLinetypeTableRecord
  2
DASHEDX2
 70
    0
  3
Dashed (2x) ____  ____  ____  ____  ____  ___
 72
   65
 73
    2
 40
38.09999999999999
 49
25.4
 74
    0
 49
-12.7
 74
    0
  0
LTYPE
  5
3A
330
5
100
AcDbSymbolTableRecord
100
AcDbLinetypeTableRecord
  2
DASHDOT
 70
    0
  3
Dash dot __ . __ . __ . __ . __ . __ . __ . __
 72
   65
 73
    4
 40
25.4
 49
12.7
 74
    0
 49
-6.35
 74
    0
 49
0
 74
    0
 49
-6.35
 74
    0
  0
LTYPE
  5
3B
330
5
100
AcDbSymbolTableRecord
100
AcDbLinetypeTableRecord
  2
DASHDOTTINY
 70
    0
  3
Dash dot (.15x) _._._._._._._._._._._._._._._.
 72
   65
 73
    4
 40
3.81
 49
1.905
 74
    0
 49
-0.9525
 74
    0
 49
0
 74
    0
 49
-0.9525
 74
    0
  0
LTYPE
  5
3C
330
5
100
AcDbSymbolTableRecord
100
AcDbLinetypeTableRecord
  2
DASHDOT2
 70
    0
  3
Dash dot (.5x) _._._._._._._._._._._._._._._.
 72
   65
 73
    4
 40
12.7
 49
6.35
 74
    0
 49
-3.175
 74
    0
 49
0
 74
    0
 49
-3.175
 74
    0
  0
LTYPE
  5
3D
330
5
100
AcDbSymbolTableRecord
100
AcDbLinetypeTableRecord
  2
DASHDOTX2
 70
    0
  3
Dash dot (2x) ____  .  ____  .  ____  .  ___
 72
   65
 73
    4
 40
50.8
 49
25.4
 74
    0
 49
-12.7
 74
    0
 49
0
 74
    0
 49
-12.7
 74
    0
  0
LTYPE
  5
3E
330
5
100
AcDbSymbolTableRecord
100
AcDbLinetypeTableRecord
  2
DIVIDE
 70
    0
  3
Divide ____ . . ____ . . ____ . . ____ . . ____
 72
   65
 73
    6
 40
31.75
 49
12.7
 74
    0
 49
-6.35
 74
    0
 49
0
 74
    0
 49
-6.35
 74
    0
 49
0
 74
    0
 49
-6.35
 74
    0
  0
LTYPE
  5
3F
330
5
100
AcDbSymbolTableRecord
100
AcDbLinetypeTableRecord
  2
DIVIDETINY
 70
    0
  3
Divide (.15x) __..__..__..__..__..__..__..__.._
 72
   65
 73
    6
 40
4.7625
 49
1.905
 74
    0
 49
-0.9525
 74
    0
 49
0
 74
    0
 49
-0.9525
 74
    0
 49
0
 74
    0
 49
-0.9525
 74
    0
  0
LTYPE
  5
40
330
5
100
AcDbSymbolTableRecord
100
AcDbLinetypeTableRecord
  2
DIVIDE2
 70
    0
  3
Divide (.5x) __..__..__..__..__..__..__..__.._
 72
   65
 73
    6
 40
15.875
 49
6.35
 74
    0
 49
-3.175
 74
    0
 49
0
 74
    0
 49
-3.175
 74
    0
 49
0
 74
    0
 49
-3.175
 74
    0
  0
LTYPE
  5
41
330
5
100
AcDbSymbolTableRecord
100
AcDbLinetypeTableRecord
  2
DIVIDEX2
 70
    0
  3
Divide (2x) ________  .  .  ________  .  .  _
 72
   65
 73
    6
 40
63.5
 49
25.4
 74
    0
 49
-12.7
 74
    0
 49
0
 74
    0
 49
-12.7
 74
    0
 49
0
 74
    0
 49
-12.7
 74
    0
  0
LTYPE
  5
42
330
5
100
AcDbSymbolTableRecord
100
AcDbLinetypeTableRecord
  2
BORDER
 70
    0
  3
Border __ __ . __ __ . __ __ . __ __ . __ __ .
 72
   65
 73
    6
 40
44.45
 49
12.7
 74
    0
 49
-6.35
 74
    0
 49
12.7
 74
    0
 49
-6.35
 74
    0
 49
0
 74
    0
 49
-6.35
 74
    0
  0
LTYPE
  5
43
330
5
100
AcDbSymbolTableRecord
100
AcDbLinetypeTableRecord
  2
BORDERTINY
 70
    0
  3
Border (.15x) __.__.__.__.__.__.__.__.__.__.__.
 72
   65
 73
    6
 40
6.6675
 49
1.905
 74
    0
 49
-0.9525
 74
    0
 49
1.905
 74
    0
 49
-0.9525
 74
    0
 49
0
 74
    0
 49
-0.9525
 74
    0
  0
LTYPE
  5
44
330
5
100
AcDbSymbolTableRecord
100
AcDbLinetypeTableRecord
  2
BORDER2
 70
    0
  3
Border (.5x) __.__.__.__.__.__.__.__.__.__.__.
 72
   65
 73
    6
 40
22.225
 49
6.35
 74
    0
 49
-3.175
 74
    0
 49
6.35
 74
    0
 49
-3.175
 74
    0
 49
0
 74
    0
 49
-3.175
 74
    0
  0
LTYPE
  5
45
330
5
100
AcDbSymbolTableRecord
100
AcDbLinetypeTableRecord
  2
BORDERX2
 70
    0
  3
Border (2x) ____  ____  .  ____  ____  .  ___
 72
   65
 73
    6
 40
88.89999999999999
 49
25.4
 74
    0
 49
-12.7
 74
    0
 49
25.4
 74
    0
 49
-12.7
 74
    0
 49
0
 74
    0
 49
-12.7
 74
    0
  0
LTYPE
  5
46
330
5
100
AcDbSymbolTableRecord
100
AcDbLinetypeTableRecord
  2
CENTER
 70
    0
  3
Center ____ _ ____ _ ____ _ ____ _ ____ _ ____
 72
   65
 73
    4
 40
50.8
 49
31.75
 74
    0
 49
-6.35
 74
    0
 49
6.35
 74
    0
 49
-6.35
 74
    0
  0
LTYPE
  5
47
330
5
100
AcDbSymbolTableRecord
100
AcDbLinetypeTableRecord
  2
CENTERTINY
 70
    0
  3
Center (.15x) ___ _ ___ _ ___ _ ___ _ ___ _ ___
 72
   65
 73
    4
 40
7.62
 49
4.7625
 74
    0
 49
-0.9525
 74
    0
 49
0.9525
 74
    0
 49
-0.9525
 74
    0
  0
LTYPE
  5
48
330
5
100
AcDbSymbolTableRecord
100
AcDbLinetypeTableRecord
  2
CENTER2
 70
    0
  3
Center (.5x) ___ _ ___ _ ___ _ ___ _ ___ _ ___
 72
   65
 73
    4
 40
28.575
 49
19.05
 74
    0
 49
-3.175
 74
    0
 49
3.175
 74
    0
 49
-3.175
 74
    0
  0
LTYPE
  5
49
330
5
100
AcDbSymbolTableRecord
100
AcDbLinetypeTableRecord
  2
CENTERX2
 70
    0
  3
Center (2x) ________  __  ________  __  _____
 72
   65
 73
    4
 40
101.6
 49
63.5
 74
    0
 49
-12.7
 74
    0
 49
12.7
 74
    0
 49
-12.7
 74
    0
  0
ENDTAB
  0
TABLE
  2
LAYER
  5
2
330
0
100
AcDbSymbolTable
 70
    1
  0
LAYER
  5
10
330
2
100
AcDbSymbolTableRecord
100
AcDbLayerTableRecord
  2
0
 70
    0
 62
    7
  6
CONTINUOUS
370
    0
390
F
  0
ENDTAB
  0
TABLE
  2
STYLE
  5
3
330
0
100
AcDbSymbolTable
 70
    3
  0
STYLE
  5
4A
330
2
100
AcDbSymbolTableRecord
100
AcDbTextStyleTableRecord
  2
Standard
 70
    0
 40
0
 41
1
 50
0
 71
    0
 42
1
  3
txt
  4

  0
ENDTAB
  0
TABLE
  2
VIEW
  5
6
330
0
100
AcDbSymbolTable
 70
    0
  0
ENDTAB
  0
TABLE
  2
UCS
  5
7
330
0
100
AcDbSymbolTable
 70
    0
  0
ENDTAB
  0
TABLE
  2
APPID
  5
9
330
0
100
AcDbSymbolTable
 70
    1
  0
APPID
  5
12
330
9
100
AcDbSymbolTableRecord
100
AcDbRegAppTableRecord
  2
ACAD
 70
    0
  0
APPID
  5
4B
330
9
100
AcDbSymbolTableRecord
100
AcDbRegAppTableRecord
  2
LibreCad
 70
    0
  0
ENDTAB
  0
TABLE
  2
DIMSTYLE
  5
A
330
0
100
AcDbSymbolTable
 70
    1
100
AcDbDimStyleTable
 71
    1
  0
DIMSTYLE
105
4C
330
A
100
AcDbSymbolTableRecord
100
AcDbDimStyleTableRecord
  2
Standard
 70
    0
 40
2.5
 41
2.5
 42
0.625
 43
0.38
 44
1.25
 45
0
 46
0
 47
0
 48
0
 49
1
140
2.5
141
0.09
142
0
143
25.4
144
1
145
0
146
1
147
0.625
148
0
 71
    0
 72
    0
 73
    0
 74
    1
 75
    0
 76
    0
 77
    0
 78
    8
 79
    0
170
    0
171
    2
172
    0
173
    0
174
    0
175
    0
176
    0
177
    0
178
    0
179
    0
271
    2
272
    4
273
    2
274
    2
275
    0
276
    0
277
    2
278
   44
279
    0
280
    0
281
    0
282
    0
283
    1
284
    0
285
    0
286
    0
288
    0
289
    3
340
STANDARD
341

371
   -2
372
   -2
  0
ENDTAB
  0
TABLE
  2
BLOCK_RECORD
  5
1
330
0
100
AcDbSymbolTable
 70
    2
  0
BLOCK_RECORD
  5
1F
330
1
100
AcDbSymbolTableRecord
100
AcDbBlockTableRecord
  2
*Model_Space
 70
    0
280
    1
281
    0
  0
BLOCK_RECORD
  5
1E
330
1
100
AcDbSymbolTableRecord
100
AcDbBlockTableRecord
  2
*Paper_Space
 70
    0
280
    1
281
    0
  0
ENDTAB
  0
ENDSEC
  0
SECTION
  2
BLOCKS
  0
BLOCK
  5
20
330
1F
100
AcDbEntity
  8
0
100
AcDbBlockBegin
  2
*Model_Space
 70
    0
 10
0
 20
0
 30
0
  3
*Model_Space
  1

  0
ENDBLK
  5
21
330
1F
100
AcDbEntity
  8
0
100
AcDbBlockEnd
  0
BLOCK
  5
1C
330
1B
100
AcDbEntity
  8
0
100
AcDbBlockBegin
  2
*Paper_Space
 70
    0
 10
0
 20
0
 30
0
  3
*Paper_Space
  1

  0
ENDBLK
  5
1D
330
1F
100
AcDbEntity
  8
0
100
AcDbBlockEnd
  0
ENDSEC
  0
SECTION
  2
ENTITIES
  0
LWPOLYLINE
  5
4D
100
AcDbEntity
  8
0
  6
ByLayer
 62
  256
370
   -1
100
AcDbPolyline
 90
   78
 70
    1
 43
0
 10
-14.02992355597735
 20
338.440253344598
 42
0.02033300000000005
 10
-18.48163955597732
 20
337.1047563445979
 42
0.04596000000000008
 10
-21.68611855597733
 20
335.6584443445979
 42
0.0528889999999996
 10
-24.29034755597728
 20
333.7933473445979
 42
0.03632500000000006
 10
-26.82401855597735
 20
331.185625344598
 42
-0.06700500000000011
 10
-29.83314155597737
 20
328.4456963445979
 42
-0.08559300000000024
 10
-33.23002255597742
 20
326.8712223445981
 42
-0.08586899999999927
 10
-36.94932655597735
 20
326.5282993445981
 42
-0.06791900000000026
 10
-40.90187055597728
 20
327.3914593445979
 42
0.006727000000000009
 10
-46.47944055597734
 20
329.346781344598
 42
0.03746700000000004
 10
-49.55095655597734
 20
330.127237344598
 42
0.06352600000000043
 10
-51.92211055597733
 20
330.2388753445981
 42
0.04583200000000016
 10
-54.53394155597733
 20
329.7866793445979
 42
0.09249300000000003
 10
-62.46309655597745
 20
325.980943344598
 42
0.04988700000000007
 10
-70.55272955597741
 20
318.7173793445979
 42
0.049434
 10
-77.1644885559774
 20
309.849522344598
 42
0.08060400000000006
 10
-80.64646755597737
 20
301.1575943445979
 42
0.01899699999999993
 10
-81.24195355597732
 20
297.925036344598
 42
0.07124799999999953
 10
-81.24592255597736
 20
295.8666623445979
 42
0.06479900000000025
 10
-80.67253455597732
 20
293.7927973445979
 42
0.01396400000000002
 10
-79.12619555597732
 20
290.395006344598
 42
0.05769400000000009
 10
-76.18107655597736
 20
285.8029823445979
 42
0.05344099999999986
 10
-72.19551355597744
 20
281.872169344598
 42
0.04041500000000028
 10
-66.51422655597744
 20
278.0606873445981
 42
0.01617799999999985
 10
-58.19125055597747
 20
273.7511343445981
 42
-0.01126000000000003
 10
-53.62288655597737
 20
271.4423613445979
 42
-0.03326499999999991
 10
-50.63928055597741
 20
269.5843663445978
 42
-0.04574799999999986
 10
-48.49945155597744
 20
267.7267923445979
 42
-0.04486499999999991
 10
-46.7175805559774
 20
265.4996673445979
 42
-0.04639399999999987
 10
-45.15834855597736
 20
262.5931983445979
 42
-0.0613710000000002
 10
-44.33738255597732
 20
259.7065713445979
 42
-0.02805699999999998
 10
-43.90436555597739
 20
255.320164344598
 42
-0.00296
 10
-43.52992355597723
 20
245.0318453445981
 42
0.002814999999999926
 10
-43.18208655597743
 20
235.3974633445984
 42
0.02359600000000009
 10
-42.79547755597743
 20
231.0601603445979
 42
0.05668100000000012
 10
-42.17708555597738
 20
228.631496344598
 42
0.1454680000000001
 10
-41.08879355597735
 20
227.2042923445979
 42
0.1432299999999984
 10
-38.88249455597752
 20
226.409198344598
 42
0.007505000000000011
 10
-31.29360255597787
 20
226.0571763445979
 42
0.006714000000000037
 10
-19.17344355597965
 20
225.8399893445976
 42
0.001122999999999877
 10
4.088625444018063
 20
225.7877613445971
 10
47.32491644402262
 20
225.7877613445979
 10
49.39749644402264
 20
228.4226203445979
 42
0.07943000000000007
 10
50.53794644402262
 20
230.4711283445979
 42
0.05806899999999992
 10
51.14125544402267
 20
233.0082763445979
 42
0.02603200000000002
 10
51.41096044402275
 20
237.1266693445971
 42
0.003334999999999979
 10
51.47007644402277
 20
245.9883613445972
 42
-0.005916000000000018
 10
51.54441344402269
 20
252.270583344598
 42
-0.01045299999999998
 10
51.77543944402278
 20
257.450710344598
 42
-0.009173000000000023
 10
52.11527044402261
 20
261.4955693445979
 42
-0.09337799999999927
 10
52.59226244402273
 20
263.1035023445979
 42
-0.06039299999999991
 10
54.8038434440226
 20
266.3694483445979
 42
-0.04695600000000016
 10
57.91290844402258
 20
269.3308523445979
 42
-0.03705800000000006
 10
62.21067644402263
 20
272.2281133445979
 42
-0.01780200000000011
 10
68.10099644402257
 20
275.320711344598
 42
0.06650899999999993
 10
82.08490044402264
 20
284.4963763445979
 42
0.1694239999999997
 10
88.04746844402271
 20
294.8711923445979
 42
0.1702700000000004
 10
86.2485084440226
 20
306.6666383445979
 42
0.06730699999999999
 10
76.54009044402268
 20
320.177849344598
 42
0.03475700000000006
 10
71.91777944402268
 20
324.4310423445979
 42
0.03915800000000002
 10
66.92318344402268
 20
327.8192983445979
 42
0.04315499999999999
 10
62.0854044440226
 20
330.0470243445978
 42
0.08755999999999922
 10
57.97007644402265
 20
330.7560303445979
 42
0.0463380000000003
 10
56.51568644402266
 20
330.614990344598
 42
0.01871200000000003
 10
54.57081044402264
 20
330.166370344598
 42
0.01832599999999999
 10
52.49982144402271
 20
329.5239903445978
 42
0.02214399999999988
 10
50.61087244402268
 20
328.7657993445978
 42
-0.06375599999999992
 10
45.23384744402266
 20
327.110512344598
 42
-0.09645900000000017
 10
40.35284844402267
 20
327.2131523445979
 42
-0.1031460000000009
 10
36.09897844402264
 20
329.1072803445978
 42
-0.08206800000000034
 10
32.54738444402268
 20
332.6791913445979
 42
0.1057610000000006
 10
29.20284944402269
 20
335.740920344598
 42
0.07082600000000017
 10
24.3870524440226
 20
337.7155643445979
 42
0.04390299999999989
 10
17.20147544402266
 20
338.8748823445981
 42
0.01271299999999998
 10
5.970076444022695
 20
339.4007353445982
 42
0.006183000000000011
 10
-0.8916075559773505
 20
339.462448344598
 42
0.011154
 10
-6.512608555977362
 20
339.318068344598
 42
0.01328199999999993
 10
-10.96148755597731
 20
338.9857923445979
 42
0.03743799999999994
  0
LWPOLYLINE
  5
4E
100
AcDbEntity
  8
0
  6
ByLayer
 62
  256
370
   -1
100
AcDbPolyline
 90
   36
 70
    1
 43
0
 10
52.15400144402269
 20
221.0428593445979
 42
-0.1735830000000016
 10
49.9146934440226
 20
219.9838993445979
 42
-0.01541600000000003
 10
43.58854644402248
 20
219.5583973445979
 42
-0.0083680000000002
 10
32.23519644401958
 20
219.3359203445962
 42
-0.0007769999999999728
 10
4.184617444019688
 20
219.2993783445963
 42
-0.001644999999999892
 10
-13.680468555978
 20
219.3626573445983
 42
-0.002564999999999915
 10
-29.06957555598042
 20
219.5467753445982
 42
-0.0007240000000000166
 10
-42.45564655598066
 20
219.7950133445984
 42
-0.0879359999999985
 10
-44.12413255597725
 20
220.125269344598
 42
0.09897000000000135
 10
-45.32181755597736
 20
220.335221344598
 42
0.188660000000009
 10
-46.20997955597744
 20
219.9631643445979
 42
0.08805700000000095
 10
-47.04219855597736
 20
218.8108963445979
 42
0.01221599999999999
 10
-48.26424955597736
 20
216.1136523445979
 42
0.04257500000000001
 10
-51.03361755597732
 20
207.639959344598
 42
0.04173899999999998
 10
-52.35116455597737
 20
198.7629603445979
 42
0.04091999999999989
 10
-52.18776855597738
 20
189.6244323445981
 42
0.03769699999999997
 10
-50.55177555597748
 20
180.3732013445979
 42
0.02647200000000004
 10
-48.36142255597738
 20
173.3748213445979
 42
0.03662000000000006
 10
-45.6231855559773
 20
167.3957523445979
 42
0.03636400000000002
 10
-42.0256415559774
 20
161.8488283445979
 42
0.02558600000000003
 10
-37.23704555597742
 20
156.1546473445979
 42
0.04247000000000008
 10
-28.89231155597736
 20
148.6034013445979
 42
0.05232299999999988
 10
-19.92670755597746
 20
143.1547543445979
 42
0.05255599999999993
 10
-10.05916655597741
 20
139.702862344598
 42
0.04343899999999992
 10
0.9700764440225691
 20
138.0959373445979
 42
0.04786299999999998
 10
13.17197944402255
 20
138.5573513445978
 42
0.05660800000000022
 10
24.36277744402258
 20
141.3736813445978
 42
0.05654599999999988
 10
34.64684144402249
 20
146.631469344598
 42
0.04759299999999999
 10
44.15923744402253
 20
154.3347483445979
 42
0.07898300000000003
 10
54.82047944402259
 20
168.733513344598
 42
0.07823299999999986
 10
60.53533544402264
 20
185.7751923445979
 42
0.0791390000000001
 10
60.70380544402266
 20
203.5732103445979
 42
0.08373100000000001
 10
55.2852494440226
 20
220.1709933445979
 42
0.01473099999999998
 10
54.3870894440226
 20
221.7688603445978
 42
0.1917209999999804
 10
53.85493644402268
 20
222.1737473445979
 42
0.2446110000000065
 10
53.26267844402264
 20
222.048602344598
 42
0.02436299999999998
  0
LWPOLYLINE
  5
4F
100
AcDbEntity
  8
0
  6
ByLayer
 62
  256
370
   -1
100
AcDbPolyline
 90
  130
 70
    1
 43
0
 10
-75.83407455597737
 20
115.826675344598
 42
0.02634400000000008
 10
-77.9911545559774
 20
114.845476344598
 42
0.01458900000000002
 10
-80.51834955597735
 20
113.4360093445979
 42
0.01451499999999997
 10
-83.00192055597734
 20
111.8547683445979
 42
0.02262600000000001
 10
-85.03428755597736
 20
110.3376983445979
 42
0.08887699999999996
 10
-90.35479455597726
 20
104.1104153445979
 42
0.05786699999999982
 10
-94.17096055597727
 20
95.42872834459796
 42
0.02228300000000003
 10
-98.18202055597703
 20
79.97688434459633
 42
0.002121999999999952
 10
-106.1294215559756
 20
41.78776134459554
 42
-0.001174999999999932
 10
-110.295857555976
 20
21.57526134459442
 42
-0.001885999999999955
 10
-113.9547355559771
 20
4.358820344593369
 42
-0.0003220000000000285
 10
-117.256760555978
 20
-10.84784465540588
 42
-0.1122259999999994
 10
-117.7525535559773
 20
-11.90650665540205
 42
-0.0851390000000006
 10
-118.6183215559831
 20
-12.6961216554073
 42
-0.0003539999999999698
 10
-129.5208545559813
 20
-19.66667065540582
 42
-0.001744000000000037
 10
-141.9416595559792
 20
-27.53469665540342
 42
-0.001096999999999922
 10
-156.5092475559793
 20
-36.64703065540357
 42
0.002632999999999881
 10
-171.4518735559773
 20
-46.05795865540222
 42
0.004102999999999977
 10
-184.2166225559772
 20
-54.3395076554018
 42
0.002158000000000046
 10
-194.7878845559775
 20
-61.38761765540175
 42
0.0692140000000003
 10
-197.0928935559774
 20
-63.452762655402
 42
0.08827400000000003
 10
-203.0786815559773
 20
-73.76486665540213
 42
0.0882849999999996
 10
-205.1395765559773
 20
-85.50837065540203
 42
0.08941100000000007
 10
-203.0183765559773
 20
-97.1165866554021
 42
0.09357800000000002
 10
-196.9886785559773
 20
-107.0468886554021
 42
0.04476200000000007
 10
-191.8581125559774
 20
-111.8171526554021
 42
0.05832199999999994
 10
-186.3723015559773
 20
-115.1282816554021
 42
0.05905100000000009
 10
-180.3262935559774
 20
-117.0554706554021
 42
0.04752599999999999
 10
-173.5299235559773
 20
-117.7073816554022
 42
0.009516999999999991
 10
-170.4295625559774
 20
-117.6503746554021
 42
0.009357000000000028
 10
-167.3159865559774
 20
-117.4754236554021
 42
0.009271999999999787
 10
-164.5939325559774
 20
-117.220476655402
 42
0.0348439999999999
 10
-162.9080095559773
 20
-116.9109156554021
 10
-159.7860955559773
 20
-116.1095926554021
 10
-159.3419685559774
 20
-121.4651826554021
 42
0.04738800000000015
 10
-158.4521475559774
 20
-126.4271106554021
 42
0.04256900000000007
 10
-156.6247305559774
 20
-131.3230766554021
 42
0.04156799999999989
 10
-153.9419445559773
 20
-135.9504156554021
 42
0.04050000000000008
 10
-150.5096655559774
 20
-140.1136756554021
 42
0.03857300000000014
 10
-146.6030435559774
 20
-143.5627656554021
 42
0.04694199999999996
 10
-142.4498225559773
 20
-146.1225966554021
 42
0.03522200000000007
 10
-137.0108115559775
 20
-148.3463996554022
 42
0.01176500000000007
 10
-128.7799235559774
 20
-150.8401046554021
 42
-0.004878999999999952
 10
-124.8501865559774
 20
-151.971852655402
 42
-0.007948000000000004
 10
-121.5408615559774
 20
-153.017562655402
 42
-0.00260600000000008
 10
-118.7364925559774
 20
-153.9692616554021
 42
-0.3198909999999854
 10
-118.5299235559773
 20
-154.2590966554021
 42
-0.3063840000000485
 10
-118.7161345559774
 20
-154.5344556554021
 42
-0.009293999999999841
 10
-120.0721115559774
 20
-155.049492655402
 42
-0.015393
 10
-121.7674705559774
 20
-155.5993496554021
 42
-0.009661000000000081
 10
-123.7799235559773
 20
-156.1423016554021
 42
0.04730500000000006
 10
-131.4191475559774
 20
-158.8337616554021
 42
0.05504100000000016
 10
-138.0080485559773
 20
-162.8125236554021
 42
0.0564080000000002
 10
-143.4407165559774
 20
-168.0375636554021
 42
0.05401899999999998
 10
-147.6592705559773
 20
-174.4171786554021
 42
0.06980600000000006
 10
-149.6276185559773
 20
-180.0364536554021
 42
0.04166599999999993
 10
-150.4366055559774
 20
-187.0858716554021
 42
0.041004
 10
-150.0654075559774
 20
-194.3599466554021
 42
0.05697100000000002
 10
-148.4730735559774
 20
-200.681246655402
 42
0.05728200000000008
 10
-145.5069125559774
 20
-206.4486086554021
 42
0.04823300000000007
 10
-141.1545915559774
 20
-211.7667696554021
 42
0.04845199999999988
 10
-135.8882825559774
 20
-216.128517655402
 42
0.05928699999999974
 10
-130.2114185559774
 20
-219.0584486554021
 42
0.07688500000000005
 10
-121.6644505559774
 20
-220.8315826554021
 42
0.05799100000000012
 10
-112.0788855559774
 20
-220.209912655402
 42
0.02050500000000003
 10
-96.2083215559835
 20
-216.633934655405
 42
0.00157400000000021
 10
-53.9706605559777
 20
-205.1363786554039
 10
4.360901444022659
 20
-189.0605186554021
 10
62.72553044401707
 20
-205.1363786554011
 42
0.0015850000000001
 10
104.7676084440197
 20
-216.5731276554015
 42
0.01999499999999994
 10
120.7929784440226
 20
-220.1979496554021
 42
0.05597800000000003
 10
130.4246894440225
 20
-220.8793266554021
 42
0.07936800000000004
 10
138.8296584440226
 20
-219.1788916554021
 42
0.1410859999999999
 10
152.4807924440227
 20
-209.0500976554021
 42
0.1315290000000002
 10
159.1156394440226
 20
-192.9353616554021
 42
0.1308479999999995
 10
156.8274924440224
 20
-175.5953976554021
 42
0.1390019999999998
 10
146.2282094440227
 20
-162.151990655402
 42
0.03509000000000007
 10
144.0950844440226
 20
-160.824235655402
 42
0.015387
 10
141.1043834440227
 20
-159.3579716554021
 42
0.01514
 10
137.8223084440226
 20
-157.9904506554021
 42
0.01959699999999998
 10
134.7318474440226
 20
-156.948019655402
 42
-0.00675299999999998
 10
131.9479944440227
 20
-156.0879776554019
 42
-0.01087199999999992
 10
129.6032214440226
 20
-155.272010655402
 42
-0.004827000000000171
 10
127.6644914440226
 20
-154.528327655402
 42
-0.3079290000000316
 10
127.4700764440228
 20
-154.2425776554021
 42
-0.3187049999998944
 10
127.6713104440227
 20
-153.9589386554021
 42
-0.003480000000000003
 10
130.0403884440226
 20
-153.148195655402
 42
-0.009218000000000037
 10
132.8655094440227
 20
-152.2608566554021
 42
-0.005678000000000027
 10
136.2200764440225
 20
-151.3160316554021
 42
0.01140599999999994
 10
144.2348354440225
 20
-148.959237655402
 42
0.03260199999999979
 10
149.6404334440226
 20
-146.8377676554021
 42
0.04236599999999995
 10
153.8788284440227
 20
-144.3893096554021
 42
0.0340579999999999
 10
157.9852414440226
 20
-141.0914946554021
 42
0.04263299999999998
 10
161.8870714440227
 20
-136.8257386554021
 42
0.043633
 10
164.9750524440227
 20
-131.9915376554021
 42
0.04470300000000011
 10
167.1148744440226
 20
-126.8137016554021
 42
0.04996599999999993
 10
168.2013204440226
 20
-121.5272856554021
 10
168.7597174440226
 20
-116.1169436554021
 10
171.8648964440226
 20
-116.9145916554021
 42
0.03497100000000018
 10
173.5438434440226
 20
-117.222756655402
 42
0.009249000000000163
 10
176.2610554440226
 20
-117.4765026554021
 42
0.009339999999999935
 10
179.3709444440225
 20
-117.6506436554021
 42
0.009477000000000223
 10
182.4700764440225
 20
-117.7073816554021
 42
0.01510000000000011
 10
186.6007514440226
 20
-117.5799266554021
 42
0.03679599999999997
 10
189.6173904440227
 20
-117.171408655402
 42
0.04030200000000032
 10
192.3756454440226
 20
-116.352148655402
 42
0.02163200000000011
 10
195.6306204440226
 20
-114.927599655402
 42
0.1207809999999999
 10
207.4037594440226
 20
-105.0876056554021
 42
0.1166389999999998
 10
213.4805514440227
 20
-90.79352965540212
 42
0.117544
 10
212.4887034440227
 20
-75.3809966554021
 42
0.124029
 10
204.6302404440227
 20
-62.42074765540208
 42
0.04755499999999994
 10
201.7946714440227
 20
-60.10945865540202
 42
0.002009999999999992
 10
190.9693154440228
 20
-52.9421066554022
 42
0.003442999999999946
 10
178.0296864440224
 20
-44.57643365540184
 42
0.002441000000000004
 10
163.4005484440224
 20
-35.36072765540189
 10
125.9277114440226
 20
-12.00921665540204
 10
115.0940924440229
 20
41.139272344598
 42
0.001736999999999999
 10
110.4539014440229
 20
63.50609134459808
 42
0.003368999999999996
 10
106.563234444023
 20
81.34224334459799
 42
0.002273999999999997
 10
103.3400474440227
 20
95.35689834459794
 42
0.04715299999999997
 10
101.9639154440227
 20
99.44314534459799
 42
0.05064200000000018
 10
99.36967144402274
 20
103.9711763445979
 42
0.03911899999999997
 10
95.70418744402266
 20
108.3258743445979
 42
0.03860200000000003
 10
91.34116344402264
 20
112.1199303445979
 42
0.04525899999999997
 10
86.66288944402265
 20
114.976239344598
 10
81.97007644402265
 20
117.2877613445979
 10
5.470076444021174
 20
117.5005863445949
 42
0.0004359999999999848
 10
-42.53996655597712
 20
117.5922443445925
 42
0.005405000000000017
 10
-60.79795455597739
 20
117.4137753445978
 42
0.01235099999999999
 10
-70.81669555597736
 20
116.9597553445979
 42
0.07620599999999976
  0
LWPOLYLINE
  5
50
100
AcDbEntity
  8
0
  6
ByLayer
 62
  256
370
   -1
100
AcDbPolyline
 90
   18
 70
    1
 43
0
 10
-65.04418055597733
 20
-100.0598286554021
 42
-0.2696410000000052
 10
-65.93083955599559
 20
-100.294411655399
 42
-0.0002489999999999208
 10
-87.32753855598753
 20
-94.40472165539813
 42
-0.0009810000000001577
 10
-107.4975755559801
 20
-88.79930265539952
 42
-0.05223599999999993
 10
-111.2118295559774
 20
-87.32694265540218
 42
-0.5612989999999642
 10
-111.2466115559771
 20
-86.80119265540202
 42
-0.002533999999999987
 10
-105.7264105559773
 20
-82.952575655402
 42
-0.007384000000000049
 10
-99.04589255597739
 20
-78.48926765540193
 42
-0.004255000000000005
 10
-90.87836355597892
 20
-73.30329965540295
 42
0.001261000000000383
 10
-82.47791955597631
 20
-68.03974665540204
 42
0.001797999999999931
 10
-75.04671255597748
 20
-63.31993465540222
 42
0.0009869999999998595
 10
-68.78637955597833
 20
-59.29467065540234
 42
0.02688899999999994
 10
-67.19645755597736
 20
-58.14232965540208
 10
-65.02992355597735
 20
-56.3870086554021
 10
-64.76001255597737
 20
-77.9463796554021
 42
-0.002435
 10
-64.69648155597736
 20
-86.25128465540206
 42
-0.003907999999999861
 10
-64.73214855597735
 20
-93.33544565540302
 42
-0.0008549999999998514
 10
-64.8224445559772
 20
-99.53659165540193
 42
-0.1946869999999844
  0
LWPOLYLINE
  5
51
100
AcDbEntity
  8
0
  6
ByLayer
 62
  256
370
   -1
100
AcDbPolyline
 90
   18
 70
    1
 43
0
 10
103.6465334440228
 20
-75.77265765540233
 42
-0.001646999999999957
 10
110.4057864440226
 20
-79.97915865540222
 42
-0.002765000000000012
 10
116.052585444022
 20
-83.56285365540271
 42
-0.0003169999999999815
 10
121.0375074440221
 20
-86.76975765540284
 42
-0.4780990000002194
 10
121.0576424440227
 20
-86.95800665540212
 42
-0.1273209999999998
 10
120.210506443982
 20
-87.45677265542326
 42
-0.000118999999999927
 10
98.17971444399427
 20
-93.7585136554153
 42
-0.0002170000000000737
 10
76.50398444401253
 20
-99.94294065540453
 42
-0.06713899999999969
 10
74.72007644402265
 20
-100.200558655402
 42
-0.387106000000003
 10
74.05729444402263
 20
-99.60821165540207
 42
-0.01147500000000003
 10
73.73416944402265
 20
-95.56880565540197
 42
-0.01176200000000003
 10
73.52429744402298
 20
-89.27837265540134
 42
-0.002456999999999941
 10
73.47007644402288
 20
-78.24573065540174
 10
73.47007644402265
 20
-56.27922265540207
 10
79.72007644402254
 20
-60.56593965540202
 42
0.007190999999999794
 10
83.22082144402179
 20
-62.89369965540129
 42
0.001564999999999905
 10
89.32659844402178
 20
-66.80118465540113
 42
0.001631000000000031
 10
96.42077144402276
 20
-71.2775386554024
 42
0.001562000000000038
  0
ELLIPSE
  5
52
100
AcDbEntity
  8
0
  6
ByLayer
 62
  256
370
   -1
100
AcDbEllipse
 10
0
 20
-301.1978772778786
 30
0
 11
-181.780216683125
 21
-2.653725790994542
 31
0
 40
0.08277845842433261
 41
0
 42
6.283185307179586
  0
ENDSEC
  0
SECTION
  2
OBJECTS
  0
DICTIONARY
  5
C
330
0
100
AcDbDictionary
281
    1
  3
ACAD_GROUP
350
D
  0
DICTIONARY
  5
D
330
C
100
AcDbDictionary
281
    1
  0
ENDSEC
  0
EOF
